<?xml version="1.0" encoding="UTF-8"?>
<svg data-bbox="2.5 2.5 79 79" xmlns="http://www.w3.org/2000/svg" viewBox="0 0 84 84" height="84" width="84" data-type="ugc">
    <g>
        <defs>
            <filter id="93e9e02e-00a6-4b4d-8c00-e709f8a98699" filterUnits="objectBoundingBox" height="113.5%" width="113.5%" y="-6.8%" x="-6.8%">
                <feGaussianBlur in="SourceGraphic"/>
            </filter>
        </defs>
        <g fill-rule="evenodd">
            <g filter="url(#93e9e02e-00a6-4b4d-8c00-e709f8a98699)" transform="translate(5 5)">
                <path stroke-linejoin="square" stroke-width="3.92" stroke="#000000" d="M72.04 37c0 19.352-15.688 35.04-35.04 35.04C17.648 72.04 1.96 56.352 1.96 37 1.96 17.648 17.648 1.96 37 1.96c19.352 0 35.04 15.688 35.04 35.04z" fill="none"/>
                <path stroke-width="5" stroke="#FFFFFF" d="M76.5 37c0 21.815-17.685 39.5-39.5 39.5S-2.5 58.815-2.5 37 15.185-2.5 37-2.5 76.5 15.185 76.5 37z" fill="none"/>
            </g>
            <path stroke-linecap="round" stroke-width="3.92" stroke="#000000" d="M42 42.558V14.737" fill="none"/>
            <path stroke-linecap="round" stroke-width="3.92" stroke="#000000" d="m40.5 42.5-10-12" fill="none"/>
            <path fill="#000000" d="M45.762 44.656a3.895 3.895 0 1 1-7.79 0 3.895 3.895 0 0 1 7.79 0z"/>
        </g>
    </g>
</svg>
