<?xml version="1.0" encoding="UTF-8"?>
<svg id="Ebene_2" data-name="Ebene 2" xmlns="http://www.w3.org/2000/svg" viewBox="0 0 208 143.3">
  <defs>
    <style>
      .cls-1 {
        fill: #fff;
      }

      .cls-2 {
        fill: #ffeff9;
      }

      .cls-2, .cls-3, .cls-4 {
        fill-rule: evenodd;
      }

      .cls-3 {
        fill: #f24cae;
      }

      .cls-4 {
        fill: #9e9e9e;
      }

      .cls-5 {
        stroke: #cbcbcb;
        stroke-dasharray: 0 0 0 2;
        stroke-width: .5px;
      }

      .cls-5, .cls-6 {
        fill: none;
        stroke-linecap: round;
      }

      .cls-6 {
        stroke: #efefef;
      }

      .cls-7 {
        fill: #3b3b3b;
      }
    </style>
  </defs>
  <g id="Ebene_2-2" data-name="Ebene 2">
    <g>
      <path class="cls-6" d="M18.5,7.53V125.71"/>
      <path class="cls-5" d="M207.5,16.71H18.5"/>
      <path class="cls-3" d="M40,9.21c6.08,0,11,4.93,11,11V125.21H29V20.21c0-6.07,4.92-11,11-11Z"/>
      <path class="cls-2" d="M77,62.21c6.07,0,11,4.93,11,11v52h-22v-52c0-6.07,4.93-11,11-11Z"/>
      <path class="cls-2" d="M113,48.21c6.07,0,11,4.92,11,11V126.21h-22V59.21c0-6.08,4.93-11,11-11Z"/>
      <path class="cls-2" d="M150,27.21c6.07,0,11,4.92,11,11V126.21h-22V38.21c0-6.08,4.93-11,11-11Z"/>
      <path class="cls-2" d="M186,80.21c6.07,0,11,4.93,11,11v35h-22v-35c0-6.07,4.93-11,11-11Z"/>
      <path d="M8.19,122.06c0-.57,.06-1.01,.18-1.32s.3-.55,.52-.71c.22-.16,.47-.24,.75-.24s.53,.08,.76,.24c.23,.16,.4,.4,.54,.72,.13,.32,.2,.75,.2,1.3s-.06,.97-.19,1.29c-.13,.32-.31,.56-.54,.72-.22,.16-.49,.25-.76,.24-.27,0-.52-.08-.74-.24-.22-.16-.39-.39-.52-.71-.12-.31-.19-.75-.19-1.32v.03Zm.4,0c0,.49,.04,.85,.13,1.1s.22,.44,.39,.57,.35,.19,.54,.19,.38-.07,.54-.19c.17-.12,.29-.31,.38-.57,.11-.31,.16-.68,.16-1.11s-.05-.79-.14-1.07c-.1-.28-.23-.48-.4-.61-.15-.12-.34-.19-.53-.19-.2,0-.39,.07-.54,.19-.18,.15-.31,.34-.38,.57-.09,.25-.13,.62-.13,1.11h-.02Z"/>
      <g>
        <path d="M4.14,97.9h.85v4.31h-.43v-3.89h-.68l.26-.42Z"/>
        <path d="M9.3,97.9v.41h-1.54l-.21,1.18c.16-.05,.33-.08,.51-.08,.39,0,.72,.13,.97,.39,.26,.26,.38,.6,.38,1.01,0,.28-.06,.54-.2,.78-.12,.23-.31,.42-.53,.54-.24,.13-.5,.2-.78,.19-.35,0-.64-.11-.88-.32-.24-.21-.39-.51-.43-.83h.44c.03,.17,.09,.3,.17,.4,.18,.22,.45,.35,.73,.35s.54-.11,.73-.32c.2-.21,.3-.48,.3-.81,0-.29-.09-.53-.28-.71-.18-.18-.43-.27-.74-.27-.25,0-.56,.08-.92,.23l.4-2.14h1.88Z"/>
        <path d="M9.86,100.06c0-.57,.06-1.01,.18-1.32s.3-.55,.52-.71c.22-.16,.47-.24,.75-.24s.53,.08,.76,.24c.23,.16,.41,.4,.54,.72s.2,.75,.2,1.3-.06,.97-.19,1.29c-.13,.32-.31,.56-.54,.72-.22,.16-.49,.25-.76,.24-.27,0-.53-.08-.74-.24-.22-.16-.39-.39-.52-.71-.12-.31-.19-.75-.19-1.32v.03Zm.4,0c0,.49,.04,.85,.13,1.1s.22,.44,.39,.57,.35,.19,.54,.19,.38-.07,.53-.19c.17-.12,.29-.31,.38-.57,.11-.31,.16-.68,.16-1.11s-.05-.79-.14-1.07c-.1-.28-.23-.48-.4-.61-.15-.12-.34-.19-.53-.19-.2,0-.39,.07-.54,.19-.18,.15-.31,.34-.38,.57-.09,.25-.13,.62-.13,1.11h-.01Z"/>
      </g>
      <g>
        <path d="M67.04,131.9l2.01,4.31h-.46l-.68-1.42h-1.86l-.67,1.42h-.48l2.04-4.31h.1Zm-.05,.91l-.74,1.56h1.47l-.73-1.56h0Z"/>
        <path d="M72.33,135.16l.35,.18c-.1,.2-.23,.38-.39,.54-.15,.14-.32,.24-.5,.31-.2,.07-.42,.11-.63,.11-.52,0-.93-.17-1.22-.51-.28-.32-.44-.73-.44-1.16,0-.4,.12-.76,.37-1.08,.31-.4,.74-.6,1.26-.6s.98,.21,1.3,.62c.23,.29,.35,.65,.35,1.09h-2.87c0,.37,.13,.68,.36,.91,.23,.24,.51,.36,.85,.36,.32,0,.62-.11,.86-.31,.11-.09,.22-.25,.35-.46h0Zm0-.86c-.04-.19-.12-.37-.24-.52-.11-.14-.25-.25-.41-.32-.17-.08-.35-.12-.54-.12-.31,0-.58,.1-.81,.3-.16,.15-.29,.37-.37,.66h2.37Z"/>
        <path d="M73.39,133.03h.42v.46c.1-.16,.24-.3,.4-.41,.13-.09,.28-.14,.43-.14,.13,0,.25,.04,.36,.11l-.21,.35c-.07-.03-.14-.05-.22-.06-.15,0-.29,.06-.4,.17-.13,.11-.22,.29-.29,.52-.05,.18-.08,.55-.08,1.1v1.08h-.42v-3.19h.01Z"/>
        <path d="M76.86,132.94c.49,0,.9,.18,1.22,.53,.29,.32,.44,.71,.44,1.15s-.15,.84-.46,1.17-.71,.5-1.19,.5-.89-.17-1.2-.5c-.3-.31-.47-.73-.46-1.17,0-.44,.15-.82,.44-1.15,.31-.35,.75-.55,1.22-.54h-.01Zm0,.41c-.34,0-.63,.13-.88,.38-.24,.24-.37,.57-.37,.91,0,.23,.06,.45,.17,.64,.11,.2,.26,.35,.45,.46,.19,.11,.4,.16,.62,.16s.43-.05,.62-.16,.34-.26,.45-.46c.11-.2,.17-.42,.17-.64,0-.36-.12-.66-.37-.91-.23-.24-.54-.38-.87-.38h.01Z"/>
        <path d="M79.31,136.21v-4.42h.41v1.78c.17-.21,.36-.37,.58-.47,.22-.11,.46-.16,.7-.16,.45,0,.84,.16,1.15,.49,.32,.33,.48,.72,.48,1.19s-.16,.85-.48,1.18c-.32,.33-.71,.49-1.16,.49-.25,0-.49-.05-.71-.17s-.41-.29-.56-.5v.59h-.41Zm1.64-.31c.46,0,.88-.24,1.1-.64,.23-.4,.23-.89,0-1.29-.11-.2-.27-.36-.46-.48-.19-.11-.4-.17-.62-.17s-.44,.06-.64,.17-.36,.27-.47,.46c-.11,.2-.17,.43-.16,.65,0,.37,.12,.68,.36,.93s.54,.37,.9,.37h0Z"/>
        <path d="M83.52,131.71c.09,0,.17,.03,.24,.1s.1,.15,.1,.24-.03,.17-.1,.24c-.06,.07-.15,.1-.24,.1s-.18-.04-.24-.1c-.06-.06-.1-.15-.1-.24s.03-.17,.1-.24c.06-.06,.15-.1,.24-.1Zm-.21,1.31h.41v3.19h-.41v-3.19h0Z"/>
        <path d="M87.67,133.69l-.32,.2c-.28-.37-.67-.56-1.15-.56-.39,0-.71,.12-.97,.38-.26,.25-.39,.55-.39,.91,0,.47,.25,.9,.66,1.13,.21,.11,.44,.17,.69,.17,.47,0,.85-.19,1.15-.56l.32,.21c-.15,.23-.36,.41-.61,.53-.27,.13-.57,.19-.88,.19-.5,0-.92-.16-1.25-.48-.32-.3-.51-.73-.5-1.17,0-.31,.08-.6,.23-.86s.37-.48,.64-.62c.27-.15,.58-.22,.91-.22,.21,0,.42,.03,.61,.1,.2,.07,.36,.15,.5,.25s.25,.24,.35,.4h0Z"/>
      </g>
      <g>
        <path d="M140.04,131.9h2.16v.43h-1.73v1.35h1.73v.43h-1.73v2.11h-.43v-4.31h0Z"/>
        <path d="M146.06,133.03v3.19h-.4v-.55c-.16,.2-.35,.36-.58,.47-.22,.11-.46,.16-.7,.16-.45,0-.84-.16-1.16-.49-.32-.32-.49-.75-.48-1.2,0-.46,.16-.85,.48-1.18,.32-.33,.71-.49,1.16-.49,.26,0,.5,.06,.71,.17s.4,.28,.56,.5v-.59h.41Zm-1.64,.32c-.45,0-.87,.24-1.09,.64-.23,.4-.23,.89,0,1.29,.12,.21,.27,.36,.46,.48,.19,.11,.4,.17,.62,.17,.45,0,.87-.24,1.1-.63,.11-.19,.16-.41,.16-.65,0-.37-.12-.68-.37-.93-.23-.24-.56-.38-.9-.37h.02Z"/>
        <path d="M146.98,131.8h.41v1.8c.15-.2,.33-.37,.55-.49,.2-.11,.41-.16,.65-.16s.45,.06,.63,.18c.18,.12,.32,.28,.41,.49,.09,.2,.13,.52,.13,.96v1.64h-.41v-1.52c0-.37,0-.61-.04-.74-.05-.21-.14-.37-.28-.48-.15-.11-.34-.17-.53-.16-.25,0-.47,.08-.67,.25-.19,.16-.33,.37-.39,.61-.04,.16-.06,.45-.06,.87v1.17h-.41v-4.42h0Z"/>
        <path d="M150.48,133.03h.42v.47c.1-.16,.24-.3,.4-.41,.13-.09,.28-.14,.43-.14,.11,0,.24,.04,.36,.11l-.21,.35c-.07-.03-.14-.05-.22-.06-.15,0-.29,.06-.4,.17-.13,.11-.22,.29-.29,.52-.05,.18-.08,.55-.08,1.1v1.08h-.42v-3.19h.01Z"/>
        <path d="M152.29,133.03h.42v.47c.1-.16,.24-.3,.4-.41,.13-.09,.28-.14,.43-.14,.11,0,.23,.04,.36,.11l-.21,.35c-.07-.03-.14-.05-.22-.06-.15,0-.29,.06-.4,.17-.13,.11-.22,.29-.29,.52-.05,.18-.08,.55-.08,1.1v1.08h-.42v-3.19h.01Z"/>
        <path d="M157.43,133.03v3.19h-.4v-.55c-.16,.2-.35,.36-.58,.47-.22,.11-.46,.16-.7,.16-.45,0-.84-.16-1.16-.49-.32-.32-.49-.75-.48-1.2,0-.46,.16-.85,.48-1.18,.32-.33,.71-.49,1.16-.49,.26,0,.5,.06,.71,.17s.4,.28,.56,.5v-.59h.41Zm-1.64,.32c-.46,0-.88,.24-1.1,.64-.23,.4-.23,.89,0,1.29,.12,.21,.27,.36,.46,.48,.19,.11,.4,.17,.62,.17,.45,0,.87-.24,1.1-.63,.11-.19,.16-.41,.16-.65,0-.37-.12-.68-.37-.93-.23-.24-.56-.38-.9-.37h.03Z"/>
        <path d="M161.53,131.8v4.42h-.4v-.55c-.16,.2-.35,.36-.58,.47-.22,.11-.46,.16-.7,.16-.44,0-.86-.17-1.16-.49-.32-.32-.49-.75-.48-1.2,0-.46,.16-.85,.48-1.18,.32-.33,.71-.49,1.16-.49,.26,0,.5,.06,.71,.17s.4,.28,.56,.5v-1.82h.41Zm-1.64,1.55c-.46,0-.88,.24-1.1,.64-.23,.4-.23,.89,0,1.29,.12,.21,.27,.36,.46,.48,.2,.11,.4,.17,.63,.17s.44-.06,.64-.17,.36-.27,.46-.46c.11-.19,.16-.41,.16-.65,0-.37-.12-.68-.36-.93-.23-.24-.56-.38-.9-.37h0Z"/>
        <path d="M141.77,138.8v.4c-.12-.06-.25-.09-.39-.1-.07,0-.14,0-.2,.05-.05,.02-.08,.06-.1,.11,0,.04-.02,.15-.02,.34v.43h.66v.35h-.67v2.84h-.41v-2.84h-.42v-.35h.42v-.5c0-.23,.02-.39,.06-.49s.12-.18,.21-.24c.1-.06,.22-.09,.36-.09,.13,0,.29,.03,.48,.08h.02Z"/>
        <path d="M145.51,140.03v3.19h-.4v-.55c-.16,.2-.35,.36-.58,.47-.22,.11-.46,.16-.7,.16-.45,0-.84-.16-1.16-.49-.32-.32-.49-.75-.48-1.2,0-.46,.16-.85,.48-1.18,.32-.33,.71-.49,1.16-.49,.26,0,.5,.06,.71,.17s.4,.28,.56,.5v-.59h.41Zm-1.64,.32c-.46,0-.88,.24-1.1,.64-.23,.4-.23,.89,0,1.29,.12,.21,.27,.36,.46,.48,.19,.11,.4,.17,.63,.17s.44-.06,.64-.17,.36-.27,.46-.46c.11-.19,.16-.41,.16-.65,0-.37-.12-.68-.37-.93-.23-.24-.56-.38-.9-.37h.02Z"/>
        <path d="M146.44,138.8h.41v1.8c.15-.2,.33-.37,.55-.49,.2-.11,.41-.16,.65-.16s.45,.06,.63,.18c.18,.12,.32,.28,.41,.49,.09,.2,.13,.52,.13,.96v1.64h-.41v-1.52c0-.37,0-.61-.04-.74-.04-.19-.13-.35-.28-.48-.15-.11-.34-.17-.53-.16-.25,0-.47,.08-.67,.25-.19,.16-.33,.37-.39,.61-.04,.16-.06,.45-.06,.87v1.17h-.41v-4.42h0Z"/>
        <path d="M149.94,140.03h.42v.47c.1-.16,.24-.3,.4-.41,.13-.09,.28-.14,.43-.14,.11,0,.23,.04,.36,.11l-.21,.35c-.07-.03-.14-.05-.22-.06-.15,0-.29,.06-.4,.17-.13,.11-.22,.29-.29,.52-.05,.18-.08,.55-.08,1.1v1.08h-.42v-3.19h.01Z"/>
        <path d="M154.59,142.16l.35,.18c-.1,.2-.23,.38-.39,.54-.15,.14-.32,.24-.5,.31-.2,.07-.42,.11-.63,.11-.52,0-.93-.17-1.22-.51-.28-.32-.44-.73-.44-1.16,0-.39,.13-.77,.37-1.08,.31-.4,.74-.6,1.26-.6s.98,.21,1.3,.62c.23,.29,.35,.65,.35,1.09h-2.87c0,.37,.13,.68,.35,.91,.23,.24,.51,.36,.85,.36,.32,0,.62-.11,.86-.31,.11-.09,.22-.25,.35-.46h0Zm0-.86c-.04-.19-.12-.37-.24-.52-.11-.14-.25-.25-.41-.32-.17-.08-.35-.12-.54-.12-.31,0-.58,.1-.81,.3-.16,.15-.29,.37-.37,.66h2.37Z"/>
        <path d="M155.8,140.03h.41v.57c.14-.2,.33-.37,.54-.49,.2-.11,.42-.16,.65-.16s.45,.06,.63,.18,.32,.28,.41,.49c.09,.2,.13,.52,.13,.96v1.64h-.41v-1.52c0-.37,0-.61-.05-.74-.05-.21-.14-.37-.27-.48-.15-.11-.34-.17-.53-.16-.25,0-.47,.08-.67,.25-.19,.16-.33,.37-.39,.61-.04,.16-.06,.45-.06,.87v1.17h-.41v-3.19h.02Z"/>
      </g>
      <g>
        <path d="M178.57,131.9h.5l1.1,1.77,1.08-1.77h.5l-1.37,2.25v2.06h-.42v-2.06l-1.39-2.25h0Z"/>
        <path d="M183.9,132.94c.49,0,.9,.18,1.22,.53,.29,.32,.44,.71,.44,1.15s-.16,.83-.46,1.17c-.31,.33-.71,.5-1.19,.5s-.89-.17-1.2-.5c-.3-.31-.47-.73-.46-1.17,0-.44,.15-.82,.44-1.15,.31-.35,.75-.55,1.22-.54h0Zm0,.41c-.34,0-.63,.13-.88,.38s-.37,.57-.37,.91c0,.23,.06,.45,.17,.65s.26,.35,.45,.46,.4,.16,.62,.16,.43-.05,.62-.16,.34-.26,.45-.46c.11-.2,.17-.42,.17-.65,0-.36-.12-.66-.37-.91-.23-.24-.54-.38-.88-.38h.02Z"/>
        <path d="M189.07,133.03h.41v2.54c0,.45-.04,.77-.12,.98-.1,.28-.3,.52-.56,.68-.26,.16-.59,.24-.96,.24-.27,0-.52-.04-.74-.12-.2-.06-.38-.17-.53-.31-.16-.16-.29-.36-.38-.57h.45c.12,.21,.28,.37,.47,.47s.43,.15,.71,.15,.51-.05,.71-.16c.17-.09,.32-.22,.41-.39,.08-.16,.12-.41,.12-.76v-.16c-.15,.19-.34,.35-.57,.45-.22,.1-.46,.16-.71,.16-.29,0-.57-.07-.83-.22-.25-.14-.46-.34-.6-.59s-.21-.53-.21-.81,.07-.57,.22-.82c.15-.26,.35-.46,.61-.6,.26-.15,.53-.22,.82-.22,.24,0,.46,.05,.67,.15,.21,.1,.4,.26,.6,.49v-.55h0v-.03Zm-1.2,.31c-.23,0-.45,.06-.65,.17-.4,.23-.64,.65-.64,1.11,0,.35,.12,.64,.35,.87,.23,.23,.54,.34,.91,.34s.68-.11,.91-.34c.23-.23,.35-.52,.35-.89,0-.24-.05-.45-.16-.64-.1-.19-.26-.34-.45-.45s-.41-.17-.62-.16h0Z"/>
        <path d="M193.54,133.03v3.19h-.4v-.55c-.16,.2-.36,.36-.58,.47s-.46,.16-.7,.16c-.45,0-.84-.16-1.16-.49-.32-.32-.49-.75-.48-1.19,0-.46,.16-.85,.48-1.18,.32-.33,.71-.49,1.16-.49,.26,0,.5,.06,.71,.17s.4,.28,.56,.5v-.59h.41Zm-1.64,.31c-.46,0-.88,.24-1.1,.64-.23,.4-.23,.89,0,1.29,.12,.2,.27,.36,.46,.48,.19,.11,.4,.17,.62,.17,.45,0,.87-.24,1.1-.63,.11-.19,.16-.41,.16-.65,0-.35-.12-.68-.37-.93-.23-.24-.56-.38-.9-.37h.03Z"/>
      </g>
      <path class="cls-6" d="M207.5,125.71H18.5"/>
      <g>
        <path d="M103.79,132.63l-.33,.32c-.23-.23-.5-.41-.79-.54-.26-.12-.55-.18-.83-.18-.34,0-.66,.08-.96,.25-.59,.31-.96,.91-.96,1.58,.01,.68,.39,1.29,.98,1.61,.31,.17,.64,.25,1.01,.25,.44,0,.82-.12,1.12-.38,.3-.24,.5-.59,.54-.97h-1.37v-.42h1.86c0,.66-.2,1.19-.59,1.59-.39,.39-.92,.59-1.57,.59-.8,0-1.43-.27-1.89-.81-.35-.4-.54-.92-.54-1.45,0-.41,.1-.79,.31-1.14s.49-.63,.84-.82c.37-.2,.79-.3,1.21-.3,.36,0,.71,.07,1.03,.2s.64,.34,.94,.63h-.01Z"/>
        <path d="M107.48,135.16l.35,.18c-.1,.2-.23,.38-.39,.54-.15,.13-.32,.24-.5,.31-.2,.07-.42,.11-.63,.11-.52,0-.93-.17-1.22-.51-.28-.32-.44-.73-.44-1.16,0-.4,.12-.76,.37-1.08,.32-.4,.74-.6,1.26-.6s.98,.21,1.3,.62c.23,.29,.35,.65,.35,1.09h-2.86c0,.37,.13,.68,.36,.91,.23,.24,.51,.36,.85,.36,.32,0,.62-.11,.86-.31,.11-.09,.22-.25,.35-.46h-.01Zm0-.86c-.04-.19-.12-.37-.24-.52-.11-.14-.25-.25-.42-.32-.17-.08-.35-.12-.54-.12-.31,0-.58,.1-.81,.3-.16,.15-.29,.37-.37,.66h2.38Z"/>
        <path d="M108.26,133.03h.42l.98,2.31,1.02-2.31h.07l1.02,2.31,.99-2.31h.43l-1.38,3.19h-.08l-1.01-2.28-1.02,2.28h-.08l-1.36-3.19h0Z"/>
        <path d="M113.83,131.71c.09,0,.17,.03,.24,.1s.1,.15,.1,.24-.03,.17-.1,.24c-.06,.07-.15,.1-.24,.1s-.18-.04-.24-.1c-.06-.06-.1-.15-.1-.24s.03-.17,.1-.24c.06-.06,.15-.1,.24-.1Zm-.21,1.31h.41v3.19h-.41v-3.19h0Z"/>
        <path d="M117.98,133.69l-.32,.2c-.28-.37-.67-.56-1.15-.56-.39,0-.71,.12-.97,.38-.26,.25-.39,.55-.39,.91,0,.47,.25,.9,.66,1.13,.21,.11,.44,.17,.69,.17,.45,0,.88-.2,1.15-.56l.32,.21c-.15,.23-.36,.41-.61,.53-.27,.13-.57,.19-.88,.19-.5,0-.92-.16-1.25-.48-.32-.3-.51-.73-.5-1.17,0-.31,.08-.6,.23-.86s.37-.48,.64-.62c.27-.15,.57-.22,.91-.22,.21,0,.42,.03,.61,.1,.2,.07,.36,.15,.5,.25s.25,.24,.35,.4h0Z"/>
        <path d="M118.76,131.8h.41v1.8c.17-.22,.35-.38,.55-.49,.2-.11,.42-.16,.65-.16s.45,.06,.63,.18,.32,.28,.41,.49c.09,.2,.13,.52,.13,.96v1.64h-.41v-1.52c0-.37-.01-.61-.04-.74-.05-.21-.14-.37-.28-.48-.15-.11-.34-.17-.53-.16-.25,0-.47,.08-.67,.25-.19,.16-.33,.37-.39,.61-.04,.16-.06,.45-.06,.87v1.17h-.41v-4.42h0Z"/>
        <path d="M122.78,131.84h.41v1.18h.65v.35h-.65v2.84h-.41v-2.84h-.56v-.35h.56v-1.18Z"/>
        <path d="M102.35,138.8h.41v1.8c.17-.22,.35-.38,.55-.49,.2-.11,.42-.16,.65-.16s.45,.06,.64,.18c.18,.12,.32,.28,.41,.49,.09,.2,.13,.52,.13,.96v1.64h-.41v-1.52c0-.37-.01-.61-.04-.74-.04-.19-.13-.35-.28-.48-.15-.11-.34-.17-.53-.16-.25,0-.47,.08-.67,.25-.19,.16-.33,.37-.39,.61-.04,.16-.06,.45-.06,.87v1.17h-.41v-4.42h0Z"/>
        <path d="M108.7,142.16l.35,.18c-.1,.2-.23,.38-.39,.54-.15,.14-.32,.24-.5,.31-.2,.07-.42,.11-.63,.11-.52,0-.93-.17-1.22-.51-.28-.32-.44-.73-.44-1.16,0-.4,.12-.76,.37-1.08,.31-.4,.74-.6,1.26-.6s.98,.21,1.3,.62c.23,.29,.35,.65,.35,1.09h-2.86c0,.37,.13,.68,.35,.91,.23,.24,.51,.36,.85,.36,.32,0,.62-.11,.86-.31,.11-.09,.22-.25,.35-.46h0Zm0-.86c-.04-.19-.12-.37-.24-.52-.11-.14-.25-.25-.41-.32-.17-.08-.35-.12-.54-.12-.31,0-.58,.1-.81,.3-.16,.15-.29,.37-.37,.66h2.37Z"/>
        <path d="M109.94,143.21v-4.42h.41v1.78c.17-.21,.36-.37,.58-.47,.21-.1,.45-.16,.7-.16,.45,0,.84,.16,1.16,.49,.32,.33,.48,.72,.48,1.19s-.16,.85-.48,1.18c-.32,.33-.71,.49-1.16,.49-.25,0-.49-.05-.71-.17s-.41-.29-.56-.5v.59h-.42Zm1.64-.31c.46,0,.88-.24,1.1-.64,.23-.4,.23-.89,0-1.29-.11-.2-.27-.36-.46-.48-.19-.11-.4-.17-.62-.17s-.44,.06-.64,.17-.36,.27-.47,.46c-.11,.2-.17,.43-.16,.65,0,.37,.12,.68,.36,.93s.54,.37,.9,.37h0Z"/>
        <path d="M116.69,142.16l.35,.18c-.1,.2-.23,.38-.39,.54-.15,.14-.32,.24-.5,.31-.2,.07-.42,.11-.63,.11-.52,0-.93-.17-1.22-.51-.28-.32-.44-.73-.44-1.16,0-.4,.12-.76,.37-1.08,.31-.4,.74-.6,1.26-.6s.98,.21,1.3,.62c.23,.29,.35,.65,.35,1.09h-2.86c0,.37,.13,.68,.35,.91,.23,.24,.51,.36,.85,.36,.32,0,.62-.11,.86-.31,.14-.13,.26-.29,.35-.46h0Zm0-.86c-.04-.19-.12-.37-.24-.52-.11-.14-.25-.25-.42-.32-.17-.08-.35-.12-.54-.12-.31,0-.58,.1-.81,.3-.16,.15-.29,.37-.37,.66h2.38Z"/>
        <path d="M117.9,140.03h.41v.57c.16-.22,.35-.38,.54-.49,.2-.11,.42-.16,.65-.16s.45,.06,.63,.18,.32,.28,.41,.49c.09,.2,.13,.52,.13,.96v1.64h-.41v-1.52c0-.37-.02-.61-.05-.74-.05-.21-.14-.37-.28-.48-.15-.11-.34-.17-.53-.16-.25,0-.47,.08-.67,.25-.19,.16-.33,.37-.39,.61-.04,.16-.06,.45-.06,.87v1.17h-.41v-3.19h.03Z"/>
      </g>
      <g>
        <path d="M3.72,79.26h-.41c0-.43,.15-.78,.43-1.05,.27-.27,.61-.41,1.01-.41s.72,.13,.96,.38c.25,.26,.37,.56,.37,.9,0,.24-.06,.48-.18,.69s-.34,.5-.68,.87l-1.07,1.16h1.99v.42H3.2l1.65-1.78c.33-.36,.55-.62,.65-.8s.15-.36,.15-.55c0-.24-.1-.46-.27-.63-.18-.17-.42-.27-.66-.26-.26,0-.51,.09-.69,.28-.18,.18-.29,.44-.31,.77h0Z"/>
        <path d="M6.54,80.06c0-.57,.06-1.01,.18-1.32s.29-.55,.52-.71,.47-.24,.75-.24,.53,.08,.76,.24c.23,.16,.41,.4,.54,.72s.2,.75,.2,1.3-.06,.97-.19,1.29c-.13,.32-.31,.56-.54,.72-.22,.16-.49,.25-.76,.24-.28,0-.52-.08-.74-.24-.22-.16-.39-.39-.52-.71-.12-.31-.19-.75-.19-1.32v.03Zm.4,0c0,.49,.04,.85,.13,1.1s.22,.44,.39,.57,.35,.19,.54,.19,.38-.07,.54-.19c.17-.12,.29-.31,.38-.57,.11-.31,.16-.68,.16-1.11s-.05-.79-.14-1.07c-.1-.28-.23-.48-.4-.61-.15-.12-.34-.19-.53-.19-.2,0-.39,.07-.54,.19-.18,.15-.31,.34-.38,.57-.09,.25-.13,.62-.13,1.11h-.02Z"/>
        <path d="M9.86,80.06c0-.57,.06-1.01,.18-1.32s.3-.55,.52-.71c.22-.16,.47-.24,.75-.24s.53,.08,.76,.24c.23,.16,.4,.4,.54,.72s.2,.75,.2,1.3-.06,.97-.19,1.29c-.13,.32-.31,.56-.54,.72-.22,.16-.49,.25-.76,.24-.27,0-.52-.08-.74-.24-.22-.16-.39-.39-.52-.71-.12-.31-.19-.75-.19-1.32v.03Zm.4,0c0,.49,.04,.85,.13,1.1s.22,.44,.39,.57,.35,.19,.54,.19,.38-.07,.54-.19c.17-.12,.29-.31,.38-.57,.11-.31,.16-.68,.16-1.11s-.05-.79-.14-1.07c-.1-.28-.23-.48-.4-.61-.15-.12-.34-.19-.53-.19-.2,0-.39,.07-.54,.19-.18,.15-.31,.34-.38,.57-.09,.25-.13,.62-.13,1.11h-.02Z"/>
      </g>
      <path class="cls-4" d="M16,17.21c0,4.42-3.58,8-8,8S0,21.63,0,17.21,3.58,9.21,8,9.21s8,3.58,8,8Z"/>
      <g>
        <path d="M3.72,58.26h-.41c0-.43,.15-.78,.43-1.05,.27-.27,.61-.41,1.01-.41s.72,.13,.96,.38c.25,.26,.37,.56,.37,.9,0,.24-.06,.48-.18,.69s-.34,.5-.68,.87l-1.07,1.16h1.99v.42H3.2l1.65-1.78c.33-.36,.55-.62,.65-.8s.15-.35,.15-.55c0-.24-.1-.46-.27-.63-.18-.17-.42-.27-.66-.26-.26,0-.51,.09-.69,.28-.18,.18-.29,.44-.31,.77h0Z"/>
        <path d="M9.3,56.9v.41h-1.54l-.21,1.17c.16-.05,.33-.08,.51-.08,.36,0,.72,.13,.97,.39,.26,.26,.38,.6,.38,1.01,0,.28-.06,.54-.2,.78-.12,.23-.31,.42-.53,.54-.24,.13-.5,.2-.78,.19-.35,0-.64-.11-.88-.32-.24-.21-.39-.51-.43-.83h.44c.03,.17,.09,.3,.17,.4,.18,.22,.45,.35,.73,.35s.54-.11,.73-.32c.2-.22,.31-.51,.31-.81s-.09-.53-.28-.71c-.18-.18-.43-.27-.74-.27-.25,0-.56,.08-.92,.23l.4-2.14h1.87Z"/>
        <path d="M9.86,59.06c0-.57,.06-1.01,.18-1.32s.3-.55,.52-.71c.22-.16,.47-.24,.75-.24s.53,.08,.76,.24c.23,.16,.4,.4,.54,.72s.2,.76,.2,1.3-.06,.97-.19,1.29c-.13,.32-.31,.56-.54,.72-.22,.16-.49,.25-.76,.24-.27,0-.52-.08-.74-.24-.22-.16-.39-.39-.52-.71-.12-.31-.19-.75-.19-1.32v.03Zm.4,0c0,.49,.04,.85,.13,1.1s.22,.44,.39,.57,.35,.19,.54,.19,.38-.07,.54-.19c.17-.12,.29-.31,.38-.57,.11-.31,.16-.68,.16-1.11s-.05-.79-.14-1.06c-.1-.28-.23-.48-.4-.61-.15-.12-.34-.19-.53-.19-.2,0-.39,.07-.54,.19-.18,.15-.31,.34-.38,.56-.09,.25-.13,.62-.13,1.11h-.02Z"/>
      </g>
      <g>
        <path d="M3.82,36.9h-.44c.08-.35,.23-.63,.46-.82,.23-.19,.5-.29,.8-.29,.22,0,.43,.05,.63,.15,.19,.1,.34,.24,.45,.41,.11,.17,.16,.36,.16,.54,0,.37-.18,.67-.55,.88,.21,.08,.38,.21,.51,.37,.19,.23,.28,.48,.28,.77,0,.24-.06,.48-.19,.7-.12,.22-.31,.4-.53,.51-.23,.12-.49,.18-.75,.18-.37,0-.68-.11-.93-.32s-.41-.53-.49-.94h.42c.07,.28,.18,.48,.32,.61,.18,.16,.4,.24,.68,.24,.31,0,.56-.09,.75-.28,.18-.17,.29-.41,.28-.66,0-.35-.21-.66-.52-.8-.16-.07-.41-.12-.74-.14v-.4c.2,0,.38-.03,.54-.1,.14-.05,.26-.14,.35-.26,.07-.1,.11-.23,.11-.35,0-.19-.08-.36-.22-.49-.16-.14-.36-.21-.57-.21-.17,0-.34,.05-.48,.16-.14,.1-.25,.28-.34,.53h0Z"/>
        <path d="M6.54,38.06c0-.57,.06-1.01,.18-1.32s.29-.55,.52-.71,.47-.24,.75-.24,.53,.08,.76,.24c.23,.16,.41,.4,.54,.72s.2,.76,.2,1.3-.06,.97-.19,1.29c-.13,.32-.31,.56-.54,.72-.22,.16-.49,.25-.76,.24-.28,0-.52-.08-.74-.24s-.39-.39-.52-.71c-.12-.31-.19-.75-.19-1.32v.03Zm.4,0c0,.49,.04,.85,.13,1.1s.22,.44,.39,.57,.35,.19,.54,.19,.38-.07,.54-.19c.17-.12,.29-.31,.38-.57,.11-.31,.16-.68,.16-1.11s-.05-.79-.14-1.06c-.1-.28-.23-.48-.4-.61-.15-.12-.34-.19-.53-.19-.2,0-.39,.07-.54,.19-.18,.15-.31,.34-.38,.56-.09,.25-.13,.62-.13,1.11h-.02Z"/>
        <path d="M9.86,38.06c0-.57,.06-1.01,.18-1.32s.29-.55,.52-.71c.22-.16,.47-.24,.75-.24s.53,.08,.76,.24c.23,.16,.41,.4,.54,.72s.2,.76,.2,1.3-.06,.97-.19,1.29c-.13,.32-.31,.56-.54,.72-.22,.16-.49,.25-.76,.24-.27,0-.52-.08-.74-.24-.22-.16-.39-.39-.52-.71-.12-.31-.19-.75-.19-1.32v.03Zm.4,0c0,.49,.04,.85,.13,1.1s.22,.44,.39,.57,.35,.19,.54,.19,.38-.07,.54-.19c.17-.12,.29-.31,.38-.57,.11-.31,.16-.68,.16-1.11s-.05-.79-.14-1.06c-.1-.28-.23-.48-.4-.61-.15-.12-.34-.19-.53-.19-.2,0-.39,.07-.54,.19-.18,.15-.31,.34-.38,.56-.09,.25-.13,.62-.13,1.11h-.02Z"/>
      </g>
      <g>
        <path d="M3.13,1.91l-.3,.19c-.26-.35-.62-.52-1.07-.52-.36,0-.66,.12-.9,.35s-.36,.51-.36,.84c0,.22,.06,.42,.16,.61,.11,.19,.26,.34,.45,.44s.4,.16,.64,.16c.43,0,.79-.17,1.06-.52l.3,.2c-.14,.21-.34,.38-.57,.49-.25,.12-.53,.18-.81,.17-.47,0-.85-.15-1.16-.44-.3-.28-.47-.67-.46-1.08,0-.29,.07-.55,.22-.8,.14-.24,.35-.44,.59-.57,.25-.14,.53-.21,.84-.21,.2,0,.38,.03,.57,.09,.18,.06,.34,.14,.46,.23,.13,.1,.23,.22,.32,.37h.02Z"/>
        <path d="M6.8,1.3v2.95h-.37v-.51c-.15,.18-.33,.33-.54,.44-.2,.1-.42,.15-.65,.15-.4,0-.79-.16-1.07-.45-.29-.29-.45-.69-.44-1.11,0-.42,.15-.79,.45-1.09,.3-.3,.66-.45,1.08-.45,.24,0,.46,.05,.66,.15,.2,.1,.37,.26,.52,.46v-.54h.36Zm-1.52,.29c-.42,0-.81,.22-1.01,.59-.21,.37-.21,.82,0,1.19,.11,.19,.25,.34,.43,.44,.18,.11,.37,.16,.58,.16s.41-.05,.59-.16c.18-.1,.33-.25,.43-.43s.15-.38,.15-.6c0-.34-.11-.63-.34-.86-.22-.23-.52-.35-.83-.34h0Z"/>
        <path d="M7.59,.16h.38V4.25h-.38V.16Z"/>
      </g>
      <path class="cls-1" d="M36.06,18.97h-.79c.04-.32,.15-.57,.34-.77,.26-.27,.59-.4,.99-.4,.35,0,.65,.11,.89,.34,.24,.23,.36,.49,.36,.8,0,.19-.05,.37-.16,.52-.11,.17-.27,.3-.46,.38,.26,.08,.47,.21,.61,.41,.15,.2,.23,.44,.22,.69,0,.39-.14,.71-.43,.98-.28,.27-.65,.4-1.09,.4s-.76-.13-1.02-.38c-.26-.25-.41-.6-.43-1.03h.81c.03,.22,.11,.39,.23,.5s.27,.16,.46,.16,.35-.06,.48-.18c.12-.12,.19-.28,.19-.45,0-.2-.1-.38-.26-.5-.17-.14-.42-.2-.74-.21v-.7c.2-.01,.34-.05,.44-.09,.09-.04,.17-.11,.23-.19,.05-.07,.08-.16,.08-.25,0-.11-.04-.22-.12-.29-.09-.08-.2-.12-.32-.12s-.23,.04-.32,.11-.16,.17-.2,.28h0Z"/>
      <path class="cls-1" d="M39.42,18.97h-.79c.04-.32,.15-.57,.34-.77,.26-.27,.59-.4,.99-.4,.35,0,.65,.11,.89,.34,.24,.23,.36,.49,.36,.8,0,.19-.05,.37-.16,.52-.11,.17-.27,.3-.46,.38,.26,.08,.47,.21,.61,.41,.15,.19,.22,.42,.22,.69,0,.39-.14,.71-.43,.98-.28,.27-.65,.4-1.09,.4s-.76-.13-1.02-.38-.41-.6-.43-1.03h.81c.03,.22,.11,.39,.23,.5s.27,.16,.46,.16,.35-.06,.48-.18c.12-.12,.19-.28,.19-.45,0-.2-.1-.38-.26-.5-.17-.14-.42-.2-.74-.21v-.7c.2-.01,.34-.05,.44-.09,.09-.04,.17-.11,.23-.19,.05-.07,.08-.16,.08-.25,0-.11-.04-.22-.12-.29-.09-.08-.2-.12-.32-.12s-.23,.04-.32,.11-.16,.17-.2,.28h0Z"/>
      <path class="cls-1" d="M43.26,22.32l-.7-.34,.75-1.47c-.37,0-.68-.13-.93-.39-.26-.26-.39-.61-.38-.98,0-.36,.14-.71,.39-.96,.25-.26,.59-.4,.95-.39,.39,0,.71,.14,.97,.41,.26,.27,.39,.58,.39,.93,0,.13-.02,.27-.06,.4s-.13,.34-.28,.62l-1.11,2.17h.01Zm.1-2.59c.15,0,.28-.06,.38-.17,.1-.11,.16-.26,.16-.41,0-.16-.05-.31-.16-.42-.1-.11-.23-.17-.38-.17s-.29,.06-.39,.17c-.11,.11-.17,.26-.16,.42,0,.17,.05,.31,.16,.42,.1,.11,.25,.17,.4,.17h-.01Z"/>
      <path class="cls-7" d="M72.72,71.26h-.41c.01-.43,.15-.78,.43-1.05,.27-.27,.61-.41,1.01-.41s.72,.13,.96,.38c.25,.26,.37,.56,.37,.9,0,.24-.06,.48-.18,.69s-.34,.5-.68,.87l-1.07,1.16h1.99v.42h-2.93l1.65-1.78c.33-.36,.55-.62,.65-.8s.15-.36,.15-.55c0-.24-.1-.46-.27-.63-.18-.17-.42-.27-.66-.26-.26,0-.51,.09-.69,.28-.18,.18-.29,.44-.31,.77h-.01Z"/>
      <path class="cls-7" d="M77.9,69.8h.09v3h.52v.41h-.52v1h-.43v-1h-2.06l2.4-3.42h0Zm-.34,3.01v-1.8l-1.27,1.8h1.27Z"/>
      <path class="cls-7" d="M81.23,69.8h.09v3h.52v.41h-.52v1h-.43v-1h-2.06l2.4-3.42h0Zm-.34,3.01v-1.8l-1.27,1.8h1.27Z"/>
      <g>
        <path class="cls-7" d="M108.72,56.26h-.41c.01-.43,.15-.78,.43-1.05,.27-.27,.61-.41,1.01-.41s.72,.13,.96,.38c.25,.26,.37,.56,.37,.9,0,.24-.06,.48-.18,.69s-.34,.5-.68,.87l-1.07,1.16h1.99v.42h-2.93l1.65-1.78c.33-.36,.55-.62,.65-.8s.15-.35,.15-.55c0-.24-.1-.46-.27-.63-.18-.17-.42-.27-.66-.26-.26,0-.51,.09-.69,.28-.18,.18-.29,.44-.31,.77h-.01Z"/>
        <path class="cls-7" d="M113.55,54.8l.35,.23-1.16,1.76c.16-.05,.3-.08,.44-.08,.34,0,.63,.12,.87,.37,.24,.25,.36,.55,.36,.91,0,.25-.06,.47-.17,.67-.11,.2-.28,.36-.49,.48-.42,.23-.92,.24-1.34,0-.2-.11-.37-.28-.48-.48s-.17-.43-.17-.67c0-.18,.04-.36,.11-.56,.07-.19,.2-.43,.38-.7l1.31-1.95h0v.02Zm-.48,2.29c-.24,0-.47,.09-.64,.26s-.27,.4-.26,.64c0,.25,.09,.46,.26,.64,.18,.18,.39,.26,.64,.26s.46-.09,.64-.26c.17-.17,.27-.4,.26-.64,0-.24-.09-.47-.26-.64-.17-.17-.4-.27-.64-.26Z"/>
        <path class="cls-7" d="M116.88,54.8l.35,.23-1.16,1.76c.16-.05,.3-.08,.44-.08,.34,0,.63,.12,.87,.37,.24,.25,.36,.55,.36,.91,0,.25-.06,.47-.17,.67-.11,.2-.28,.36-.49,.48-.42,.23-.92,.24-1.34,0-.2-.11-.37-.28-.48-.48s-.17-.43-.17-.67c0-.18,.04-.36,.11-.56s.2-.43,.38-.7l1.31-1.95h0v.02Zm-.48,2.29c-.24,0-.47,.09-.64,.26s-.27,.4-.26,.64c0,.25,.09,.46,.26,.64,.18,.18,.39,.26,.64,.26s.46-.09,.64-.26c.17-.17,.27-.4,.26-.64,0-.24-.09-.47-.26-.64-.17-.17-.4-.27-.64-.26Z"/>
      </g>
      <g>
        <path class="cls-7" d="M145.82,33.9h-.44c.08-.35,.24-.63,.46-.82,.23-.19,.49-.29,.8-.29,.23,0,.43,.05,.63,.15,.19,.1,.34,.24,.45,.41s.16,.36,.16,.54c0,.37-.18,.67-.55,.88,.21,.08,.38,.21,.51,.37,.19,.23,.28,.48,.28,.77,0,.24-.06,.48-.19,.7-.12,.22-.31,.4-.53,.51-.23,.12-.49,.18-.75,.18-.37,0-.68-.11-.93-.32s-.41-.53-.49-.94h.42c.07,.28,.18,.48,.32,.61,.18,.16,.4,.24,.68,.24,.31,0,.56-.09,.75-.28,.18-.17,.29-.41,.28-.66,0-.35-.21-.66-.52-.8-.16-.07-.41-.12-.74-.14v-.4c.2,0,.38-.03,.54-.1,.14-.05,.26-.14,.35-.26,.07-.1,.11-.23,.11-.35,0-.19-.08-.36-.22-.49-.16-.14-.36-.21-.57-.21-.17,0-.34,.05-.48,.16-.14,.1-.25,.28-.34,.53h.01Z"/>
        <path class="cls-7" d="M149.46,32.9h.85v4.31h-.43v-3.89h-.68l.26-.42h0Z"/>
        <path class="cls-7" d="M152.79,32.9h.85v4.31h-.43v-3.89h-.68l.26-.42h0Z"/>
      </g>
      <g>
        <path class="cls-7" d="M182.13,86.9h.85v4.31h-.43v-3.89h-.68l.26-.42h0Z"/>
        <path class="cls-7" d="M184.78,86.9h2.73l-2.31,4.42-.35-.18,1.99-3.83h-2.07v-.41h.01Z"/>
        <path class="cls-7" d="M189.98,88.85c.29,.14,.5,.31,.62,.5,.13,.19,.19,.41,.19,.63,0,.33-.11,.62-.33,.88-.27,.31-.65,.46-1.14,.46s-.84-.14-1.08-.41c-.25-.27-.37-.57-.37-.9,0-.24,.07-.46,.19-.65,.13-.19,.34-.36,.64-.51-.19-.09-.35-.23-.48-.41-.1-.15-.16-.34-.16-.52,0-.19,.06-.37,.17-.55s.27-.32,.47-.42c.4-.21,.87-.2,1.27,0,.19,.1,.34,.24,.45,.42s.16,.36,.16,.56-.05,.37-.15,.52c-.12,.17-.28,.3-.46,.4h0Zm-.64-1.64c-.22,0-.43,.07-.59,.21-.15,.12-.23,.31-.23,.5s.08,.36,.25,.52c.16,.15,.37,.24,.59,.23,.29,0,.55-.15,.7-.39,.07-.11,.11-.24,.11-.37,0-.18-.08-.35-.21-.48-.14-.15-.35-.22-.61-.22h0Zm.02,1.85c-.28,0-.55,.1-.75,.29-.19,.17-.3,.42-.3,.67,0,.33,.19,.63,.49,.77,.15,.08,.33,.11,.54,.11,.32,0,.57-.09,.75-.28,.18-.17,.28-.4,.28-.65s-.11-.48-.29-.64c-.19-.18-.45-.28-.71-.28h0Z"/>
      </g>
      <g>
        <path class="cls-1" d="M3.82,15.9h-.44c.08-.35,.23-.63,.46-.82,.23-.19,.5-.29,.8-.29,.22,0,.43,.05,.63,.15,.19,.1,.34,.24,.45,.41,.11,.17,.16,.36,.16,.55,0,.37-.18,.67-.55,.88,.21,.08,.38,.21,.51,.37,.19,.23,.28,.48,.28,.77,0,.24-.06,.48-.19,.7-.12,.22-.31,.4-.53,.51-.23,.12-.49,.18-.75,.18-.37,0-.68-.11-.93-.32s-.41-.53-.49-.94h.42c.07,.28,.18,.48,.32,.61,.18,.16,.4,.24,.68,.24,.31,0,.56-.09,.75-.28,.18-.17,.29-.41,.28-.66,0-.35-.21-.66-.52-.8-.16-.07-.41-.12-.74-.14v-.4c.2,0,.38-.03,.54-.1,.14-.05,.26-.14,.35-.26,.07-.1,.11-.23,.11-.35,0-.19-.08-.36-.22-.49-.16-.14-.36-.21-.57-.2-.17,0-.34,.05-.48,.16-.14,.1-.25,.28-.34,.53h0Z"/>
        <path class="cls-1" d="M9.3,14.9v.41h-1.53l-.21,1.17c.16-.05,.33-.08,.51-.08,.39,0,.72,.13,.97,.39,.26,.26,.38,.6,.38,1.01,0,.28-.07,.54-.2,.78-.12,.23-.31,.42-.53,.54-.24,.13-.5,.2-.78,.19-.35,0-.64-.11-.88-.32-.24-.21-.39-.51-.43-.83h.44c.03,.17,.09,.3,.17,.4,.18,.22,.45,.35,.73,.35s.54-.11,.73-.32c.2-.22,.3-.48,.3-.81,0-.29-.09-.53-.27-.71s-.43-.27-.74-.27c-.25,0-.56,.08-.92,.23l.4-2.14h1.86Z"/>
        <path class="cls-1" d="M9.86,17.06c0-.57,.06-1.01,.18-1.32s.29-.55,.52-.71c.22-.16,.47-.24,.75-.24s.53,.08,.76,.24c.23,.16,.41,.4,.54,.73,.13,.32,.2,.75,.2,1.3s-.06,.97-.19,1.29c-.13,.32-.31,.56-.54,.73-.22,.16-.49,.25-.76,.24-.27,0-.52-.08-.74-.24-.22-.16-.39-.39-.52-.71-.12-.31-.19-.75-.19-1.32h-.01Zm.41,.01c0,.49,.04,.85,.13,1.1s.22,.44,.39,.57,.35,.19,.54,.19,.38-.07,.54-.19c.17-.12,.29-.31,.38-.57,.11-.31,.16-.68,.16-1.11s-.05-.79-.14-1.07c-.1-.28-.23-.48-.4-.61-.15-.12-.34-.19-.53-.19-.2,0-.39,.07-.54,.19-.18,.15-.31,.34-.38,.57-.09,.25-.13,.62-.13,1.11h-.02Z"/>
      </g>
      <path d="M9.57,4.7L11.38,0h.44l-1.81,4.7h-.44Z"/>
      <g>
        <path d="M34.1,130.59h.35c.18,.03,.41,.08,.51,.22,.28,.36-.05,.86-.18,1.18-.09,.24-.16,.5-.22,.75-.24,1.02-.36,2.14,.13,3.05,.14-.08,.18-.25,.22-.4,.29-.99,.35-2.17,.57-3.22,.04-.16,.07-.38,.13-.5,.08-.13,.36-.3,.54-.29,.2,0,.41,.2,.46,.37,.08,.26-.04,.55-.09,.84-.15,.85-.33,1.6-.47,2.39-.09,.52-.17,1.07-.32,1.59-.13,.43-.37,1.07-.75,1.18-.16,.05-.51,0-.62-.05-.17-.08-.33-.43-.43-.67-.11-.29-.18-.58-.25-.85-.16-.64-.28-1.16-.32-1.86-.02-.33,.02-.69,.03-1.04,.04-.72,.08-1.29,.26-1.92,.09-.28,.23-.68,.43-.75"/>
        <path d="M44.19,133.93c.17,.2,.42,.29,.63,.43s.41,.28,.62,.44c.35,.27,1.01,.83,.81,1.48-.17,.56-.95,1-1.47,1.24-.42,.19-1.01,.38-1.62,.32-.22-.02-.43-.09-.44-.23-.03-.32,.54-.37,.82-.44,.29-.08,.6-.27,.91-.46,.24-.15,.67-.37,.72-.63,.03-.17-.11-.36-.23-.51-.37-.43-.93-.68-1.34-1.1,.05,.77,.1,1.53,.18,2.32-.19,.05-.51,.18-.7,.05-.04-1.14-.33-2.31-.35-3.48,0-.37,0-.77-.05-1.14-.03-.2-.12-.44-.07-.63,.08-.33,.57-.52,.9-.63,.44-.15,.91-.25,1.31-.28,.57-.04,1.42,.06,1.35,.75-.03,.27-.2,.53-.35,.78-.41,.65-1,1.34-1.62,1.74m-.62-.25l.02-.03c.31-.56,.9-1.04,1.34-1.55,.13-.15,.37-.44,.29-.62-.06-.13-.27-.16-.46-.16-.45-.02-.91,.09-1.18,.25-.12,.64-.03,1.53-.02,2.12"/>
        <path d="M50.45,137.79c-.08,0-.16-.05-.22-.09-.64-.38-1.02-1.06-1.16-1.96-.5,.05-1.06,.11-1.57,.16-.04,.5-.02,1.03,.07,1.54-.22,.12-.51,.17-.8,.13-.56-1.43-.22-3.74,.25-5.13,.22-.65,.59-1.59,1.38-1.6,.87-.02,1.1,.79,1.25,1.55,.12,.6,.18,1.24,.22,1.81,.12,1.37,.53,2.31,.58,3.57m-1.89-5.2c-.03-.14-.05-.6-.21-.63-.15-.03-.29,.18-.34,.26-.34,.58-.43,1.85-.5,2.63,.44-.05,.86-.09,1.35-.09-.1-.7-.18-1.46-.3-2.17"/>
        <path d="M29.88,136.84c1.16-.11,2.24-.55,3.32-.56,.16,0,.36,0,.41,.12,.08,.2-.52,.49-.76,.6-.37,.17-.69,.27-1.04,.38-.63,.2-1.64,.48-2.32,.47-.53,0-1.13-.24-1.19-.75-.06-.53,.4-1.19,.63-1.52,.75-1.1,1.62-2,2.48-2.98,.17-.19,.36-.37,.46-.63-.13-.13-.36-.12-.54-.1-.8,.07-1.69,.53-2.53,.47-.4-.03-.64-.2-.95-.37,.52-.82,1.92-1.11,3.12-1.08,.87,.02,1.91,.26,2.22,.93,.18,.39-.06,.68-.28,1-.94,1.36-2.1,2.67-2.99,3.99l-.03,.05v-.02Z"/>
        <path d="M39.78,135.17c.25-.45,.44-.95,.7-1.45,.19-.35,.54-1.07,1.01-1.18,.6-.13,.87,.35,.91,.88,.03,.38-.03,.71-.03,1.1,0,.89,.06,1.82,.09,2.66,0,.11,.03,.38-.02,.53-.07,.24-.49,.57-.8,.5-.37-.09-.35-.99-.37-1.39-.02-.51-.03-1.02-.07-1.54-.24,.32-.46,.72-.69,1.13-.23,.4-.41,.82-.78,1.03-.63,.36-.83-.37-.93-.9-.25-1.28-.21-2.56-.23-3.99-.69,1.21-1.01,3.01-1.14,4.8-.14,.28-.57,.43-.97,.28,0-1.11,.12-2.27,.37-3.42,.23-1.06,.53-2.17,1.16-2.78,.25-.23,.71-.44,1.16-.25,.59,.25,.56,1.42,.57,2.11,.02,.7,.02,1.26,.05,1.88"/>
        <path d="M51.19,130.58c0,.11-.03,.22-.08,.31-.05,.09-.13,.17-.23,.23-.09,.06-.2,.08-.31,.08s-.22-.03-.31-.08c-.1-.05-.17-.13-.23-.23-.06-.09-.08-.2-.08-.31s.03-.22,.08-.31c.05-.1,.13-.17,.23-.23,.09-.06,.2-.08,.31-.08s.22,.03,.31,.08c.1,.05,.17,.13,.23,.23,.06,.09,.08,.2,.08,.31Zm-.13,0c0-.14-.05-.26-.14-.35-.1-.1-.21-.14-.35-.14s-.26,.05-.35,.14c-.1,.1-.15,.21-.15,.35,0,.09,.02,.17,.07,.25,.04,.08,.11,.14,.18,.18,.08,.04,.16,.07,.25,.07s.17-.02,.25-.07c.08-.04,.14-.1,.18-.18,.04-.07,.07-.16,.07-.24h-.01Zm-.75-.35h.3c.06,0,.11,0,.14,.02,.03,0,.05,.04,.07,.07,.02,.03,.03,.07,.03,.11s0,.07-.02,.09c0,.02-.03,.05-.06,.07,.03,0,.04,.03,.05,.05,0,.02,0,.05,.02,.09,0,.08,0,.13,0,.15,0,0,0,.03,.03,.04h-.17s0-.03,0-.05v-.17s0-.02-.03-.03c0,0-.04,0-.07,0h-.12v.27h-.15v-.68h0l-.02-.02Zm.15,.13v.16h.13s.08,0,.1-.02c.02,0,.02-.03,.02-.06s0-.05-.02-.06-.05-.02-.1-.02h-.13Z"/>
      </g>
      <g>
        <g>
          <path d="M13.57,1.45h-.44c.08-.35,.23-.63,.46-.82,.23-.19,.5-.29,.8-.29,.22,0,.43,.05,.63,.15,.19,.1,.34,.24,.45,.41,.11,.17,.16,.36,.16,.54,0,.37-.18,.67-.55,.88,.21,.08,.38,.21,.51,.37,.19,.23,.28,.48,.28,.77,0,.24-.06,.48-.19,.7-.12,.22-.31,.4-.53,.51-.23,.12-.49,.18-.75,.18-.37,0-.68-.11-.93-.32s-.41-.53-.49-.94h.42c.07,.28,.18,.48,.32,.61,.18,.16,.4,.24,.68,.24,.31,0,.56-.09,.75-.28,.18-.17,.29-.41,.28-.66,0-.35-.21-.66-.52-.8-.16-.07-.41-.12-.74-.14v-.4c.2,0,.38-.03,.54-.1,.14-.05,.26-.14,.35-.26,.07-.1,.11-.23,.11-.35,0-.19-.08-.36-.22-.49-.16-.14-.36-.21-.57-.21-.17,0-.34,.05-.48,.16-.14,.1-.25,.28-.34,.53h0Z"/>
          <path d="M16.29,2.61c0-.57,.06-1.01,.18-1.32s.29-.55,.52-.71,.47-.24,.75-.24,.53,.08,.76,.24c.23,.16,.41,.4,.54,.72s.2,.76,.2,1.3-.06,.97-.19,1.29c-.13,.32-.31,.56-.54,.72-.22,.16-.49,.25-.76,.24-.28,0-.52-.08-.74-.24s-.39-.39-.52-.71c-.12-.31-.19-.75-.19-1.32v.03Zm.4,0c0,.49,.04,.85,.13,1.1s.22,.44,.39,.57,.35,.19,.54,.19,.38-.07,.54-.19c.17-.12,.29-.31,.38-.57,.11-.31,.16-.68,.16-1.11s-.05-.79-.14-1.06c-.1-.28-.23-.48-.4-.61-.15-.12-.34-.19-.53-.19-.2,0-.39,.07-.54,.19-.18,.15-.31,.34-.38,.56-.09,.25-.13,.62-.13,1.11h-.02Z"/>
        </g>
        <g>
          <path d="M20.97,2.69c0-.3,0-.55-.02-.79h.46l.02,.47h.02c.16-.28,.43-.53,.91-.53,.4,0,.7,.24,.82,.58h.01c.09-.16,.2-.29,.32-.38,.17-.13,.37-.2,.64-.2,.38,0,.95,.25,.95,1.26v1.71h-.52v-1.64c0-.56-.2-.89-.63-.89-.3,0-.53,.22-.62,.48-.02,.07-.04,.17-.04,.26v1.79h-.52v-1.74c0-.46-.2-.8-.61-.8-.33,0-.57,.26-.65,.53-.03,.08-.04,.17-.04,.26v1.75h-.52V2.69Z"/>
          <path d="M26.56,1.09c0,.18-.13,.32-.34,.32-.19,0-.32-.14-.32-.32s.14-.33,.33-.33,.32,.14,.32,.33Zm-.59,3.72V1.91h.53v2.9h-.53Z"/>
          <path d="M27.38,2.69c0-.3,0-.55-.02-.79h.47l.03,.48h.01c.14-.28,.48-.55,.96-.55,.4,0,1.03,.24,1.03,1.24v1.73h-.53v-1.67c0-.47-.17-.86-.67-.86-.35,0-.62,.25-.71,.54-.02,.07-.04,.16-.04,.25v1.75h-.53V2.69Z"/>
        </g>
      </g>
    </g>
  </g>
</svg>