<?xml version="1.0" encoding="UTF-8"?>
<svg data-bbox="0 0.5 207.5 144.582" xmlns="http://www.w3.org/2000/svg" viewBox="0 0 208 146" height="146" width="208" data-type="ugc">
    <g fill-rule="evenodd">
        <path stroke-linecap="round" stroke="#EFEFEF" d="M18.5.5v127" fill="none"/>
        <path stroke-dasharray="2" stroke-linecap="round" stroke-width=".5" stroke="#CBCBCB" d="M207.5 18.5h-189" fill="none"/>
        <path fill="#F24CAE" d="M40 11c6.075 0 11 4.925 11 11v105H29V22c0-6.075 4.925-11 11-11Z"/>
        <path fill="#FFEFF9" d="M77 64c6.075 0 11 4.925 11 11v52H66V75c0-6.075 4.925-11 11-11Z"/>
        <path fill="#FFEFF9" d="M113 50c6.075 0 11 4.925 11 11v67h-22V61c0-6.075 4.925-11 11-11Z"/>
        <path fill="#FFEFF9" d="M150 29c6.075 0 11 4.925 11 11v88h-22V40c0-6.075 4.925-11 11-11Z"/>
        <path fill="#FFEFF9" d="M186 82c6.075 0 11 4.925 11 11v35h-22V93c0-6.075 4.925-11 11-11Z"/>
        <path d="M8.19 123.847c0-.569.061-1.008.183-1.319.122-.31.295-.546.517-.706.223-.16.472-.24.747-.24.28 0 .532.08.76.242.226.16.405.403.537.725.131.322.197.755.197 1.298 0 .54-.065.971-.194 1.292-.13.32-.31.562-.538.725a1.281 1.281 0 0 1-.762.244c-.275 0-.523-.079-.744-.237-.22-.158-.393-.394-.517-.707-.124-.314-.186-.753-.186-1.317Zm.407.008c0 .487.044.854.13 1.103.088.25.216.438.386.567.17.13.35.194.539.194a.87.87 0 0 0 .536-.19c.166-.125.292-.314.378-.566.107-.307.161-.676.161-1.108 0-.433-.048-.788-.143-1.065-.096-.276-.228-.478-.397-.606a.872.872 0 0 0-.535-.192.874.874 0 0 0-.54.192 1.18 1.18 0 0 0-.383.565c-.088.25-.132.618-.132 1.106Z" fill="#000000" fill-rule="nonzero"/>
        <g fill-rule="nonzero">
            <path d="M4.135 99.69h.846V104h-.427v-3.888h-.677l.258-.422z" fill="#000000"/>
            <path d="M9.3 99.69v.41H7.765l-.214 1.175a1.83 1.83 0 0 1 .507-.082c.392 0 .716.132.97.394.256.263.383.6.383 1.01 0 .283-.065.543-.196.779a1.37 1.37 0 0 1-.532.543 1.552 1.552 0 0 1-.775.19c-.35 0-.644-.108-.885-.321a1.313 1.313 0 0 1-.43-.831h.442c.033.166.09.3.169.404a.944.944 0 0 0 .731.346.969.969 0 0 0 .73-.322c.202-.215.304-.484.304-.806 0-.29-.092-.527-.276-.709-.183-.182-.428-.272-.735-.272-.254 0-.561.077-.923.231l.399-2.139H9.3Z" fill="#000000"/>
            <path d="M9.865 101.847c0-.569.061-1.008.183-1.319.122-.31.295-.546.517-.706.223-.16.472-.24.748-.24.279 0 .532.08.758.242.227.16.406.403.538.725.132.322.198.755.198 1.298 0 .54-.065.971-.195 1.292-.13.32-.31.562-.538.725a1.281 1.281 0 0 1-.761.244 1.25 1.25 0 0 1-.745-.237c-.22-.158-.393-.394-.517-.707-.124-.314-.186-.753-.186-1.317Zm.408.008c0 .487.043.854.13 1.103.087.25.215.438.385.567.17.13.35.194.54.194a.87.87 0 0 0 .535-.19c.166-.125.292-.314.378-.566.108-.307.161-.676.161-1.108 0-.433-.047-.788-.143-1.065-.096-.276-.228-.478-.397-.606a.872.872 0 0 0-.535-.192.874.874 0 0 0-.539.192 1.18 1.18 0 0 0-.384.565c-.088.25-.131.618-.131 1.106Z" fill="#000000"/>
        </g>
        <g fill-rule="nonzero">
            <path d="M29.677 134.109v-.419h2.364v.419h-.96v3.89h-.44v-3.889h-.964z" fill="#000000"/>
            <path d="M35.767 134.812V138h-.403v-.548a1.758 1.758 0 0 1-.58.471 1.565 1.565 0 0 1-.7.159 1.56 1.56 0 0 1-1.157-.491 1.645 1.645 0 0 1-.479-1.194c0-.459.162-.852.484-1.178.322-.326.71-.489 1.163-.489.262 0 .499.056.71.167.212.111.398.278.559.501v-.586h.404Zm-1.64.314a1.238 1.238 0 0 0-1.094.641 1.295 1.295 0 0 0 .001 1.29c.116.204.27.364.465.478.194.114.403.172.625.172a1.285 1.285 0 0 0 1.103-.63c.109-.194.163-.411.163-.654a1.27 1.27 0 0 0-.365-.925 1.208 1.208 0 0 0-.898-.372Z" fill="#000000"/>
            <path d="M36.691 134.812h.41v.571c.164-.218.346-.382.545-.49.199-.109.416-.163.65-.163.238 0 .45.06.634.182.185.12.321.284.41.489.087.205.13.524.13.958v1.64h-.406v-1.519c0-.367-.016-.612-.047-.735-.049-.211-.14-.37-.276-.476-.134-.107-.31-.16-.527-.16-.248 0-.47.082-.666.246a1.153 1.153 0 0 0-.389.61c-.039.158-.058.447-.058.867V138h-.41v-3.188Z" fill="#000000"/>
            <path d="M40.089 134.812h2.34l-1.804 2.824h1.746V138h-2.452l1.805-2.828h-1.635v-.36z" fill="#000000"/>
            <path d="m45.582 136.942.346.182a1.885 1.885 0 0 1-.393.539 1.58 1.58 0 0 1-.5.312 1.746 1.746 0 0 1-.63.107c-.52 0-.926-.17-1.22-.512a1.726 1.726 0 0 1-.439-1.155c0-.405.124-.765.372-1.081.315-.403.736-.604 1.263-.604.543 0 .977.206 1.3.618.231.291.349.655.352 1.09h-2.865c.008.371.126.675.355.913.228.237.51.356.846.356a1.355 1.355 0 0 0 .865-.31c.107-.095.223-.246.348-.455Zm0-.858a1.361 1.361 0 0 0-.238-.525 1.13 1.13 0 0 0-.415-.316 1.268 1.268 0 0 0-.542-.12c-.313 0-.581.1-.806.301-.164.147-.288.367-.372.66h2.373Z" fill="#000000"/>
            <path d="M46.798 134.812h.41v.571c.164-.218.346-.382.545-.49.2-.109.416-.163.65-.163.239 0 .45.06.635.182.184.12.32.284.409.489.087.205.131.524.131.958v1.64h-.407v-1.519c0-.367-.015-.612-.047-.735-.049-.211-.14-.37-.275-.476-.135-.107-.31-.16-.527-.16-.249 0-.47.082-.667.246a1.153 1.153 0 0 0-.388.61c-.04.158-.059.447-.059.867V138h-.41v-3.188Z" fill="#000000"/>
        </g>
        <g fill-rule="nonzero">
            <path d="m67.038 133.69 2.01 4.31h-.464l-.676-1.418H66.05L65.376 138h-.48l2.036-4.31h.106Zm-.053.914-.741 1.562h1.472l-.73-1.562Z" fill="#000000"/>
            <path d="m72.332 136.942.345.182a1.885 1.885 0 0 1-.392.54c-.149.136-.316.24-.501.311a1.746 1.746 0 0 1-.63.107c-.52 0-.926-.17-1.219-.511a1.726 1.726 0 0 1-.44-1.156c0-.404.125-.765.373-1.081.314-.402.735-.604 1.262-.604.543 0 .977.207 1.301.619.23.29.348.654.352 1.09h-2.867c.008.37.126.675.355.912.228.237.51.356.847.356a1.355 1.355 0 0 0 .864-.31c.107-.094.224-.246.349-.455Zm0-.858a1.361 1.361 0 0 0-.24-.524 1.13 1.13 0 0 0-.414-.317 1.268 1.268 0 0 0-.542-.12c-.312 0-.58.1-.805.302-.164.146-.289.366-.372.659h2.373Z" fill="#000000"/>
            <path d="M73.392 134.813h.419v.465a1.47 1.47 0 0 1 .396-.411.78.78 0 0 1 .433-.137.75.75 0 0 1 .363.109l-.213.346a.57.57 0 0 0-.217-.056.593.593 0 0 0-.396.168c-.127.113-.223.287-.29.523-.05.182-.076.55-.076 1.102V138h-.419v-3.188Z" fill="#000000"/>
            <path d="M76.861 134.73c.49 0 .896.178 1.219.534.293.324.439.708.439 1.151 0 .445-.155.835-.464 1.168-.31.333-.708.499-1.194.499-.488 0-.887-.166-1.197-.5a1.66 1.66 0 0 1-.464-1.167c0-.441.146-.824.44-1.148a1.57 1.57 0 0 1 1.22-.537Zm0 .402c-.34 0-.632.126-.876.378a1.266 1.266 0 0 0-.366.914c0 .23.055.445.167.644.111.2.261.353.45.462.19.108.398.162.625.162.226 0 .434-.054.624-.162.19-.109.34-.262.451-.462a1.3 1.3 0 0 0 .167-.644c0-.358-.123-.662-.368-.914a1.179 1.179 0 0 0-.874-.378Z" fill="#000000"/>
            <path d="M79.307 138v-4.418h.407v1.778c.172-.21.365-.368.578-.473a1.57 1.57 0 0 1 .7-.157c.45 0 .836.164 1.155.491.32.327.48.724.48 1.191 0 .461-.162.855-.484 1.18-.322.327-.71.49-1.163.49a1.49 1.49 0 0 1-.706-.167 1.647 1.647 0 0 1-.56-.5V138h-.407Zm1.64-.313a1.238 1.238 0 0 0 1.095-.642 1.295 1.295 0 0 0-.001-1.292 1.259 1.259 0 0 0-.465-.48 1.208 1.208 0 0 0-.622-.17c-.225 0-.438.057-.64.17a1.196 1.196 0 0 0-.466.462 1.313 1.313 0 0 0-.163.654c0 .369.122.677.365.925s.542.373.898.373Z" fill="#000000"/>
            <path d="M83.517 133.5c.094 0 .174.033.24.1.067.066.1.146.1.24 0 .092-.033.17-.1.237a.327.327 0 0 1-.24.1.324.324 0 0 1-.237-.1.324.324 0 0 1-.1-.237c0-.094.033-.174.1-.24a.324.324 0 0 1 .237-.1Zm-.205 1.313h.413V138h-.413v-3.188Z" fill="#000000"/>
            <path d="m87.668 135.475-.325.202c-.281-.373-.665-.56-1.151-.56-.389 0-.712.125-.968.375-.257.25-.386.554-.386.911a1.3 1.3 0 0 0 .664 1.134c.206.113.437.17.693.17.469 0 .851-.186 1.148-.56l.325.214a1.534 1.534 0 0 1-.613.532 1.97 1.97 0 0 1-.878.189c-.504 0-.922-.16-1.254-.48a1.563 1.563 0 0 1-.498-1.17c0-.308.078-.595.233-.86a1.64 1.64 0 0 1 .64-.619c.272-.148.576-.223.911-.223.211 0 .415.033.611.097.197.065.363.149.5.252.137.104.253.235.348.396Z" fill="#000000"/>
        </g>
        <g fill-rule="nonzero">
            <path d="M140.04 133.69h2.16v.425h-1.733v1.348h1.731v.425h-1.73V138h-.428v-4.31z" fill="#000000"/>
            <path d="M146.058 134.812V138h-.405v-.548a1.758 1.758 0 0 1-.578.472 1.565 1.565 0 0 1-.702.158c-.451 0-.836-.164-1.156-.49a1.645 1.645 0 0 1-.479-1.195c0-.459.161-.851.484-1.177.322-.326.71-.49 1.163-.49.261 0 .498.056.71.167.212.112.398.279.558.501v-.586h.405Zm-1.641.314a1.238 1.238 0 0 0-1.094.642 1.295 1.295 0 0 0 .001 1.289c.115.205.27.364.465.479.194.114.402.171.625.171a1.285 1.285 0 0 0 1.103-.63c.108-.193.163-.411.163-.653 0-.37-.122-.678-.365-.926a1.208 1.208 0 0 0-.898-.372Z" fill="#000000"/>
            <path d="M146.98 133.582h.41v1.802a1.76 1.76 0 0 1 .548-.491c.2-.108.415-.163.648-.163.238 0 .45.061.634.182.185.121.321.284.409.488.088.204.132.524.132.96V138h-.41v-1.52c0-.368-.015-.613-.044-.736-.051-.21-.143-.37-.277-.476a.825.825 0 0 0-.526-.16c-.248 0-.47.082-.667.246a1.153 1.153 0 0 0-.388.61c-.039.156-.058.445-.058.867V138h-.41v-4.418Z" fill="#000000"/>
            <path d="M150.484 134.812h.42v.466a1.47 1.47 0 0 1 .395-.411.78.78 0 0 1 .433-.137c.114 0 .235.037.364.109l-.214.346a.57.57 0 0 0-.217-.056.593.593 0 0 0-.396.168c-.126.113-.223.287-.29.523-.05.182-.076.55-.076 1.102V138h-.419v-3.188Z" fill="#000000"/>
            <path d="M152.289 134.812h.419v.466a1.47 1.47 0 0 1 .395-.411.78.78 0 0 1 .434-.137c.113 0 .234.037.363.109l-.214.346a.57.57 0 0 0-.216-.056.593.593 0 0 0-.396.168c-.127.113-.223.287-.29.523-.05.182-.076.55-.076 1.102V138h-.419v-3.188Z" fill="#000000"/>
            <path d="M157.425 134.812V138h-.405v-.548a1.758 1.758 0 0 1-.578.472 1.565 1.565 0 0 1-.702.158c-.451 0-.836-.164-1.156-.49a1.645 1.645 0 0 1-.479-1.195c0-.459.162-.851.484-1.177.322-.326.71-.49 1.163-.49.262 0 .498.056.71.167.212.112.398.279.558.501v-.586h.405Zm-1.64.314a1.238 1.238 0 0 0-1.095.642 1.295 1.295 0 0 0 .001 1.289c.116.205.27.364.465.479.194.114.403.171.625.171a1.285 1.285 0 0 0 1.103-.63c.109-.193.163-.411.163-.653 0-.37-.122-.678-.365-.926a1.208 1.208 0 0 0-.898-.372Z" fill="#000000"/>
            <path d="M161.53 133.582V138h-.405v-.548a1.758 1.758 0 0 1-.579.472 1.565 1.565 0 0 1-.701.158 1.56 1.56 0 0 1-1.156-.49 1.645 1.645 0 0 1-.48-1.195c0-.459.162-.851.484-1.177.323-.326.71-.49 1.163-.49.262 0 .499.056.71.167.213.112.399.279.559.501v-1.816h.404Zm-1.641 1.544a1.238 1.238 0 0 0-1.095.642 1.295 1.295 0 0 0 .002 1.289c.115.205.27.364.464.479.195.114.403.171.626.171.224 0 .437-.057.638-.17.202-.113.356-.267.465-.46.108-.193.162-.411.162-.653 0-.37-.121-.678-.364-.926a1.208 1.208 0 0 0-.898-.372Z" fill="#000000"/>
            <path d="M141.768 140.582v.401a1.015 1.015 0 0 0-.387-.096.376.376 0 0 0-.199.048.214.214 0 0 0-.1.111c-.013.042-.02.154-.02.336v.43h.665v.352h-.668V145h-.41v-2.836h-.42v-.352h.42v-.498c0-.228.02-.391.063-.489a.502.502 0 0 1 .214-.236c.1-.06.222-.089.364-.089.133 0 .292.027.478.082Z" fill="#000000"/>
            <path d="M145.515 141.812V145h-.404v-.548a1.758 1.758 0 0 1-.579.472 1.565 1.565 0 0 1-.701.158c-.452 0-.837-.164-1.156-.49a1.645 1.645 0 0 1-.48-1.195c0-.459.162-.851.484-1.177.322-.326.71-.49 1.163-.49.262 0 .499.056.71.167.213.112.399.279.559.501v-.586h.404Zm-1.64.314a1.238 1.238 0 0 0-1.095.642 1.295 1.295 0 0 0 .002 1.289c.115.205.27.364.464.479.194.114.403.171.626.171.224 0 .437-.057.638-.17.201-.113.356-.267.465-.46.108-.193.162-.411.162-.653 0-.37-.121-.678-.365-.926a1.208 1.208 0 0 0-.898-.372Z" fill="#000000"/>
            <path d="M146.438 140.582h.41v1.802a1.74 1.74 0 0 1 .548-.491c.2-.108.415-.163.647-.163.239 0 .45.061.635.182.184.121.32.284.408.488.088.204.132.524.132.96V145h-.41v-1.52c0-.368-.015-.613-.044-.736a.83.83 0 0 0-.277-.476.823.823 0 0 0-.526-.16c-.248 0-.47.082-.666.246a1.153 1.153 0 0 0-.388.61c-.04.156-.059.445-.059.867V145h-.41v-4.418Z" fill="#000000"/>
            <path d="M149.942 141.812h.419v.466a1.47 1.47 0 0 1 .395-.411.78.78 0 0 1 .434-.137c.113 0 .234.037.363.109l-.214.346a.57.57 0 0 0-.216-.056.593.593 0 0 0-.396.168c-.127.113-.224.287-.29.523-.05.182-.076.55-.076 1.102V145h-.421v-3.188Z" fill="#000000"/>
            <path d="m154.585 143.942.346.182a1.885 1.885 0 0 1-.392.54c-.149.136-.316.24-.501.311a1.746 1.746 0 0 1-.63.107c-.52 0-.926-.17-1.22-.511a1.726 1.726 0 0 1-.439-1.156 1.7 1.7 0 0 1 .373-1.081c.314-.402.735-.604 1.262-.604.543 0 .977.206 1.301.619.23.29.348.654.352 1.09h-2.867c.008.37.126.675.355.912.228.237.51.356.847.356a1.355 1.355 0 0 0 .864-.31c.107-.094.223-.246.348-.455Zm0-.858a1.361 1.361 0 0 0-.238-.524 1.13 1.13 0 0 0-.415-.317 1.268 1.268 0 0 0-.542-.12c-.312 0-.581.1-.806.302-.164.146-.288.366-.372.659h2.373Z" fill="#000000"/>
            <path d="M155.801 141.812h.41v.572a1.71 1.71 0 0 1 .545-.491c.2-.108.416-.163.65-.163.239 0 .45.061.635.182s.32.284.409.49c.088.204.132.524.132.957V145h-.408v-1.52c0-.368-.015-.613-.047-.736-.048-.21-.14-.37-.275-.476a.828.828 0 0 0-.527-.16c-.248 0-.47.082-.667.246a1.153 1.153 0 0 0-.388.61c-.04.158-.059.447-.059.867V145h-.41v-3.188Z" fill="#000000"/>
        </g>
        <g fill-rule="nonzero">
            <path d="M178.57 133.69h.498l1.102 1.775 1.084-1.775h.498l-1.366 2.25V138h-.424v-2.06l-1.392-2.25z" fill="#000000"/>
            <path d="M183.902 134.73c.49 0 .897.178 1.219.533.293.324.44.708.44 1.152 0 .445-.156.834-.465 1.167-.31.333-.708.5-1.194.5-.488 0-.887-.167-1.197-.5a1.66 1.66 0 0 1-.464-1.167c0-.442.146-.825.44-1.149a1.574 1.574 0 0 1 1.221-.536Zm0 .401c-.34 0-.632.126-.876.378a1.266 1.266 0 0 0-.366.914c0 .23.056.446.167.645.111.2.262.353.451.461.19.109.397.163.624.163.227 0 .435-.054.624-.163.19-.108.34-.262.451-.461a1.3 1.3 0 0 0 .167-.645c0-.357-.122-.662-.367-.914a1.179 1.179 0 0 0-.875-.378Z" fill="#000000"/>
            <path d="M189.067 134.812h.413v2.54c0 .447-.039.775-.117.982a1.276 1.276 0 0 1-.56.676c-.265.159-.585.238-.958.238-.273 0-.519-.039-.736-.116a1.475 1.475 0 0 1-.532-.31 1.848 1.848 0 0 1-.378-.57h.445c.121.21.278.367.469.468.191.102.429.153.712.153.28 0 .515-.053.707-.157a.959.959 0 0 0 .412-.394c.082-.158.123-.413.123-.765v-.164a1.552 1.552 0 0 1-.565.45 1.648 1.648 0 0 1-.71.157c-.292 0-.568-.073-.826-.219a1.55 1.55 0 0 1-.597-.587 1.607 1.607 0 0 1-.211-.812c0-.295.073-.57.22-.824.146-.255.349-.457.608-.605.258-.149.531-.223.818-.223.239 0 .46.05.667.148.206.099.405.261.596.488v-.554Zm-1.21.314c-.232 0-.448.056-.647.168a1.274 1.274 0 0 0-.64 1.109c0 .35.117.639.352.867.234.229.538.343.91.343.378 0 .68-.113.91-.34.23-.227.345-.524.345-.894 0-.24-.053-.454-.159-.643a1.153 1.153 0 0 0-.448-.446 1.247 1.247 0 0 0-.624-.164Z" fill="#000000"/>
            <path d="M193.535 134.812V138h-.404v-.548a1.758 1.758 0 0 1-.58.471 1.565 1.565 0 0 1-.7.159c-.452 0-.837-.164-1.156-.491a1.645 1.645 0 0 1-.48-1.194c0-.459.162-.852.484-1.178.322-.326.71-.489 1.163-.489.262 0 .499.056.71.167.212.111.398.278.559.501v-.586h.404Zm-1.64.314a1.238 1.238 0 0 0-1.095.641 1.295 1.295 0 0 0 .001 1.29c.116.204.27.364.465.478.194.114.403.172.625.172a1.285 1.285 0 0 0 1.103-.63c.109-.194.163-.411.163-.654a1.27 1.27 0 0 0-.365-.925 1.208 1.208 0 0 0-.898-.372Z" fill="#000000"/>
        </g>
        <path stroke-linecap="round" stroke="#EFEFEF" d="M207.5 127.5h-189" fill="none"/>
        <g fill-rule="nonzero">
            <path d="m103.789 134.414-.334.316a2.55 2.55 0 0 0-.79-.537 2.124 2.124 0 0 0-.835-.183c-.338 0-.66.083-.965.249a1.808 1.808 0 0 0-.965 1.576 1.863 1.863 0 0 0 .982 1.613c.306.167.642.25 1.007.25.444 0 .819-.125 1.125-.375a1.48 1.48 0 0 0 .545-.972h-1.373v-.416h1.858c-.004.665-.202 1.194-.594 1.585-.391.392-.915.587-1.571.587-.797 0-1.428-.271-1.893-.814a2.165 2.165 0 0 1-.536-1.449c0-.408.103-.788.308-1.14.205-.351.486-.626.842-.824a2.458 2.458 0 0 1 1.214-.298c.365 0 .71.066 1.032.198.322.132.636.343.943.634Z" fill="#000000"/>
            <path d="m107.48 136.942.346.182a1.885 1.885 0 0 1-.393.54 1.56 1.56 0 0 1-.5.311 1.746 1.746 0 0 1-.63.107c-.52 0-.926-.17-1.22-.511a1.726 1.726 0 0 1-.439-1.156c0-.404.124-.765.372-1.081.315-.402.736-.604 1.263-.604.543 0 .977.207 1.3.619.231.29.349.654.352 1.09h-2.865c.008.37.126.675.355.912.228.237.51.356.846.356a1.355 1.355 0 0 0 .865-.31c.107-.094.223-.246.348-.455Zm0-.858a1.361 1.361 0 0 0-.238-.524 1.13 1.13 0 0 0-.415-.317 1.268 1.268 0 0 0-.542-.12c-.313 0-.581.1-.806.302-.164.146-.288.366-.372.659h2.373Z" fill="#000000"/>
            <path d="M108.265 134.813h.422l.976 2.314 1.022-2.314h.074l1.02 2.314.992-2.314h.428L111.816 138h-.079l-1.014-2.282-1.022 2.282h-.076l-1.36-3.188z" fill="#000000"/>
            <path d="M113.826 133.5c.094 0 .174.033.24.1.067.066.1.146.1.24 0 .092-.033.17-.1.237a.327.327 0 0 1-.24.1.324.324 0 0 1-.237-.1.324.324 0 0 1-.1-.237c0-.094.033-.174.1-.24a.324.324 0 0 1 .237-.1Zm-.205 1.313h.413V138h-.413v-3.188Z" fill="#000000"/>
            <path d="m117.977 135.475-.325.202c-.281-.373-.665-.56-1.151-.56-.389 0-.712.125-.968.375-.257.25-.386.554-.386.911a1.3 1.3 0 0 0 .664 1.134c.206.113.437.17.693.17a1.4 1.4 0 0 0 1.148-.56l.325.214a1.534 1.534 0 0 1-.613.532 1.97 1.97 0 0 1-.878.189c-.504 0-.922-.16-1.254-.48a1.563 1.563 0 0 1-.498-1.17c0-.308.078-.595.233-.86a1.64 1.64 0 0 1 .64-.619c.272-.148.575-.223.911-.223.211 0 .415.033.611.097.196.065.363.149.5.252.136.104.253.235.348.396Z" fill="#000000"/>
            <path d="M118.765 133.582h.41v1.802c.167-.219.35-.383.548-.49.2-.11.415-.164.648-.164.238 0 .45.061.634.182.185.121.321.284.409.488.088.204.132.524.132.96V138h-.41v-1.52c0-.368-.015-.613-.044-.736-.051-.21-.143-.37-.277-.476a.825.825 0 0 0-.526-.16c-.248 0-.47.082-.667.246a1.153 1.153 0 0 0-.388.61c-.039.156-.058.445-.058.867V138h-.41v-4.418Z" fill="#000000"/>
            <path d="M122.782 133.629h.413v1.183h.65v.352h-.65V138h-.413v-2.836h-.56v-.351h.56v-1.184z" fill="#000000"/>
            <path d="M102.353 140.582h.41v1.802c.166-.219.349-.383.548-.49.2-.11.415-.164.647-.164.239 0 .45.061.635.182.184.121.32.284.408.488.088.204.132.524.132.96V145h-.41v-1.52c0-.368-.015-.613-.044-.736a.83.83 0 0 0-.277-.476.823.823 0 0 0-.526-.16c-.248 0-.47.082-.666.246a1.153 1.153 0 0 0-.388.61c-.04.156-.059.445-.059.867V145h-.41v-4.418Z" fill="#000000"/>
            <path d="m108.696 143.942.345.182a1.885 1.885 0 0 1-.392.54c-.149.136-.316.24-.501.311a1.746 1.746 0 0 1-.63.107c-.52 0-.926-.17-1.219-.511a1.726 1.726 0 0 1-.44-1.156c0-.404.125-.765.373-1.081.314-.402.735-.604 1.262-.604.543 0 .977.207 1.301.619.23.29.348.654.352 1.09h-2.865c.007.37.126.675.354.912.229.237.51.356.847.356a1.355 1.355 0 0 0 .864-.31c.107-.094.224-.246.349-.455Zm0-.858a1.361 1.361 0 0 0-.24-.524 1.13 1.13 0 0 0-.414-.317 1.268 1.268 0 0 0-.542-.12c-.312 0-.58.1-.805.302-.164.146-.288.366-.372.659h2.373Z" fill="#000000"/>
            <path d="M109.938 145v-4.418h.407v1.778c.172-.21.364-.368.577-.473.213-.104.446-.157.7-.157.452 0 .837.164 1.156.491.32.327.48.724.48 1.191 0 .461-.162.855-.484 1.18-.323.327-.71.49-1.163.49a1.49 1.49 0 0 1-.706-.167 1.647 1.647 0 0 1-.56-.5V145h-.407Zm1.64-.313a1.238 1.238 0 0 0 1.095-.642 1.295 1.295 0 0 0-.002-1.292 1.259 1.259 0 0 0-.464-.48 1.208 1.208 0 0 0-.623-.17c-.224 0-.438.057-.64.17a1.196 1.196 0 0 0-.466.462 1.313 1.313 0 0 0-.162.654c0 .369.121.677.364.925.244.248.543.373.898.373Z" fill="#000000"/>
            <path d="m116.688 143.942.345.182a1.885 1.885 0 0 1-.392.54c-.149.136-.316.24-.501.311a1.746 1.746 0 0 1-.63.107c-.52 0-.926-.17-1.219-.511a1.726 1.726 0 0 1-.44-1.156c0-.404.125-.765.373-1.081.314-.402.735-.604 1.263-.604.543 0 .976.207 1.3.619.23.29.348.654.352 1.09h-2.865c.008.37.126.675.354.912.229.237.511.356.847.356a1.355 1.355 0 0 0 .864-.31 1.92 1.92 0 0 0 .349-.455Zm0-.858a1.361 1.361 0 0 0-.239-.524 1.13 1.13 0 0 0-.415-.317 1.268 1.268 0 0 0-.542-.12c-.312 0-.58.1-.805.302-.164.146-.288.366-.372.659h2.373Z" fill="#000000"/>
            <path d="M117.904 141.813h.41v.57c.164-.218.345-.382.545-.49.199-.108.416-.163.65-.163.238 0 .45.061.634.182.185.121.321.284.41.49.087.204.13.524.13.957V145h-.406v-1.52c0-.368-.016-.613-.047-.736-.049-.21-.14-.37-.276-.476a.826.826 0 0 0-.527-.16c-.248 0-.47.082-.666.246a1.153 1.153 0 0 0-.389.61c-.039.158-.058.447-.058.867V145h-.41v-3.188Z" fill="#000000"/>
        </g>
        <g fill-rule="nonzero">
            <path d="M3.719 81.041h-.413c.011-.426.153-.775.426-1.049.271-.273.609-.41 1.01-.41.396 0 .716.128.961.384.246.256.368.557.368.905a1.4 1.4 0 0 1-.176.687c-.117.214-.344.503-.682.869l-1.072 1.157H6.13V84H3.203l1.646-1.778c.334-.358.552-.623.652-.796.1-.173.151-.355.151-.546a.84.84 0 0 0-.27-.626.918.918 0 0 0-.664-.262.93.93 0 0 0-.687.276c-.183.183-.287.441-.312.773Z" fill="#000000"/>
            <path d="M6.54 81.847c0-.569.06-1.008.183-1.319.122-.31.294-.546.517-.706.223-.16.473-.24.747-.24.28 0 .532.08.759.242.227.16.406.403.538.725.131.322.197.755.197 1.298 0 .54-.065.971-.195 1.292-.13.32-.309.562-.537.725a1.281 1.281 0 0 1-.762.244c-.275 0-.523-.079-.744-.237-.22-.158-.393-.394-.517-.707-.124-.314-.186-.753-.186-1.317Zm.407.008c0 .487.044.854.13 1.103.087.25.216.438.386.567.17.13.35.194.539.194a.87.87 0 0 0 .536-.19c.166-.125.292-.314.378-.566.107-.307.161-.676.161-1.108 0-.433-.048-.788-.144-1.065-.095-.276-.228-.478-.397-.606a.872.872 0 0 0-.533-.192.874.874 0 0 0-.54.192 1.18 1.18 0 0 0-.383.565c-.088.25-.132.618-.132 1.106Z" fill="#000000"/>
            <path d="M9.865 81.847c0-.569.061-1.008.183-1.319.122-.31.295-.546.517-.706.223-.16.472-.24.747-.24.28 0 .533.08.76.242.226.16.405.403.537.725.132.322.198.755.198 1.298 0 .54-.065.971-.195 1.292-.13.32-.31.562-.538.725a1.281 1.281 0 0 1-.762.244c-.275 0-.523-.079-.744-.237-.22-.158-.393-.394-.517-.707-.124-.314-.186-.753-.186-1.317Zm.407.008c0 .487.044.854.13 1.103.088.25.216.438.386.567.17.13.35.194.539.194a.87.87 0 0 0 .536-.19c.166-.125.292-.314.378-.566.108-.307.161-.676.161-1.108 0-.433-.048-.788-.143-1.065-.096-.276-.228-.478-.397-.606a.872.872 0 0 0-.535-.192.874.874 0 0 0-.539.192 1.18 1.18 0 0 0-.384.565c-.088.25-.132.618-.132 1.106Z" fill="#000000"/>
        </g>
        <path fill="#9E9E9E" d="M16 19a8 8 0 1 1-16 0 8 8 0 0 1 16 0z"/>
        <g fill-rule="nonzero">
            <path d="M3.719 60.041h-.413c.011-.426.153-.775.426-1.049.271-.273.609-.41 1.01-.41.396 0 .716.128.961.384.246.256.368.557.368.905a1.4 1.4 0 0 1-.176.687c-.117.214-.344.503-.682.869l-1.072 1.157H6.13V63H3.203l1.646-1.778c.334-.358.552-.623.652-.796.1-.173.151-.355.151-.546a.84.84 0 0 0-.27-.626.918.918 0 0 0-.664-.262.93.93 0 0 0-.687.276c-.183.183-.287.441-.312.773Z" fill="#000000"/>
            <path d="M9.3 58.69v.41H7.765l-.214 1.175a1.83 1.83 0 0 1 .506-.082 1.3 1.3 0 0 1 .972.394c.255.263.382.6.382 1.01 0 .283-.065.543-.196.779a1.37 1.37 0 0 1-.532.543 1.552 1.552 0 0 1-.775.19c-.35 0-.644-.108-.885-.321a1.313 1.313 0 0 1-.43-.831h.442c.033.166.09.3.168.404a.944.944 0 0 0 .731.346.969.969 0 0 0 .73-.322 1.13 1.13 0 0 0 .305-.806c0-.29-.092-.527-.276-.709-.183-.182-.428-.272-.735-.272-.254 0-.562.077-.923.231l.398-2.139H9.3Z" fill="#000000"/>
            <path d="M9.865 60.847c0-.569.061-1.008.183-1.319.122-.31.295-.546.517-.706.223-.16.472-.24.747-.24.28 0 .533.08.76.242.226.16.405.403.537.725.132.322.198.755.198 1.298 0 .54-.065.971-.195 1.292-.13.32-.31.562-.538.725a1.281 1.281 0 0 1-.762.244c-.275 0-.523-.079-.744-.237-.22-.158-.393-.394-.517-.707-.124-.314-.186-.753-.186-1.317Zm.407.008c0 .487.044.854.13 1.103.088.25.216.438.386.567.17.13.35.194.539.194a.87.87 0 0 0 .536-.19c.166-.125.292-.314.378-.566.108-.307.161-.676.161-1.108 0-.433-.048-.788-.143-1.065-.096-.276-.228-.478-.397-.606a.872.872 0 0 0-.535-.192.874.874 0 0 0-.539.192 1.18 1.18 0 0 0-.384.565c-.088.25-.132.618-.132 1.106Z" fill="#000000"/>
        </g>
        <g fill-rule="nonzero">
            <path d="M3.818 38.689h-.44c.081-.355.235-.627.461-.82.226-.191.495-.287.803-.287.225 0 .434.051.629.154.194.102.344.24.45.414.107.174.16.356.16.545 0 .371-.184.665-.553.882.207.084.377.207.51.37.187.228.28.484.28.767 0 .244-.064.477-.193.699a1.341 1.341 0 0 1-.527.514 1.538 1.538 0 0 1-.747.181c-.371 0-.68-.107-.929-.32-.248-.214-.41-.528-.486-.942h.422c.074.279.18.481.32.606.177.158.404.237.679.237.312 0 .563-.093.753-.28a.898.898 0 0 0 .284-.66.895.895 0 0 0-.523-.803c-.16-.074-.406-.12-.74-.137v-.397c.198 0 .377-.035.54-.104a.786.786 0 0 0 .352-.265.611.611 0 0 0 .11-.352.638.638 0 0 0-.224-.486.807.807 0 0 0-.567-.205.761.761 0 0 0-.48.157c-.137.105-.251.282-.344.532Z" fill="#000000"/>
            <path d="M6.54 39.847c0-.569.06-1.008.183-1.319.122-.31.294-.546.517-.706.223-.16.472-.24.747-.24.28 0 .532.08.759.242.226.16.406.403.537.725.132.322.198.755.198 1.298 0 .54-.065.971-.195 1.292-.13.32-.309.562-.537.725a1.281 1.281 0 0 1-.762.244c-.275 0-.523-.079-.744-.237-.22-.158-.393-.394-.517-.707-.124-.314-.186-.753-.186-1.317Zm.407.008c0 .487.043.854.13 1.103.087.25.216.438.386.567.17.13.35.194.539.194a.87.87 0 0 0 .536-.19c.166-.125.292-.314.378-.566.107-.307.16-.676.16-1.108 0-.433-.047-.788-.143-1.065-.095-.276-.228-.478-.397-.606a.872.872 0 0 0-.534-.192.874.874 0 0 0-.54.192 1.18 1.18 0 0 0-.383.565c-.088.25-.132.618-.132 1.106Z" fill="#000000"/>
            <path d="M9.865 39.847c0-.569.06-1.008.183-1.319.122-.31.294-.546.517-.706.223-.16.472-.24.747-.24.28 0 .532.08.759.242.226.16.406.403.538.725.131.322.197.755.197 1.298 0 .54-.065.971-.195 1.292-.13.32-.309.562-.537.725a1.281 1.281 0 0 1-.762.244c-.275 0-.523-.079-.744-.237-.22-.158-.393-.394-.517-.707-.124-.314-.186-.753-.186-1.317Zm.407.008c0 .487.044.854.13 1.103.087.25.216.438.386.567.17.13.35.194.539.194a.87.87 0 0 0 .536-.19c.166-.125.292-.314.378-.566.107-.307.161-.676.161-1.108 0-.433-.048-.788-.144-1.065-.095-.276-.228-.478-.397-.606a.872.872 0 0 0-.534-.192.874.874 0 0 0-.54.192 1.18 1.18 0 0 0-.383.565c-.088.25-.132.618-.132 1.106Z" fill="#000000"/>
        </g>
        <g fill-rule="nonzero">
            <path d="m7.369 4.475-.325.202c-.281-.373-.665-.56-1.151-.56-.39 0-.712.125-.969.375-.256.25-.385.554-.385.911 0 .233.06.451.177.657.118.205.28.364.487.477.206.113.437.17.693.17.468 0 .851-.187 1.148-.56l.325.214a1.534 1.534 0 0 1-.614.532 1.963 1.963 0 0 1-.877.189c-.504 0-.922-.16-1.254-.48a1.563 1.563 0 0 1-.498-1.17c0-.308.078-.595.233-.86a1.64 1.64 0 0 1 .64-.619c.272-.148.575-.223.911-.223.211 0 .415.033.611.097.196.065.363.149.5.252.136.104.252.235.348.396Z" fill="#000000"/>
            <path d="M11.333 3.812V7h-.404v-.548a1.758 1.758 0 0 1-.579.472 1.565 1.565 0 0 1-.702.158 1.56 1.56 0 0 1-1.155-.49 1.645 1.645 0 0 1-.48-1.195c0-.459.162-.851.484-1.177.322-.326.71-.49 1.163-.49.262 0 .499.056.71.167.213.112.399.279.559.501v-.586h.404Zm-1.64.314a1.238 1.238 0 0 0-1.095.642A1.295 1.295 0 0 0 8.6 6.057c.115.205.27.364.464.479.194.114.403.171.625.171.225 0 .438-.057.64-.17a1.2 1.2 0 0 0 .464-.46c.108-.193.162-.411.162-.653 0-.37-.121-.678-.365-.926a1.208 1.208 0 0 0-.898-.372Z" fill="#000000"/>
            <path d="M12.194 2.582h.41V7h-.41V2.582z" fill="#000000"/>
        </g>
        <g fill-rule="nonzero">
            <path d="M36.058 20.754h-.786c.039-.318.154-.574.342-.768.261-.27.59-.404.987-.404.353 0 .65.112.89.337.238.225.358.491.358.8a.931.931 0 0 1-.157.524 1.12 1.12 0 0 1-.455.384c.261.078.466.214.613.409a1.1 1.1 0 0 1 .222.687c0 .386-.143.714-.428.983-.285.268-.649.402-1.09.402-.418 0-.759-.126-1.022-.379-.264-.253-.409-.597-.434-1.033h.812c.035.223.112.388.232.497.12.108.272.162.456.162.191 0 .35-.061.476-.184a.607.607 0 0 0 .189-.451.611.611 0 0 0-.255-.495c-.17-.135-.415-.205-.735-.208v-.705c.197-.015.344-.046.44-.092a.546.546 0 0 0 .226-.189.45.45 0 0 0 .08-.255.383.383 0 0 0-.121-.29.451.451 0 0 0-.322-.116.522.522 0 0 0-.32.107.535.535 0 0 0-.196.277Z" fill="#FFFFFF"/>
            <path d="M39.419 20.754h-.788c.041-.318.155-.574.343-.768.262-.27.59-.404.987-.404.354 0 .65.112.89.337.239.225.358.491.358.8a.931.931 0 0 1-.156.524 1.12 1.12 0 0 1-.456.384c.262.078.466.214.614.409.147.194.221.423.221.687 0 .386-.143.714-.428.983-.285.268-.648.402-1.09.402-.418 0-.758-.126-1.022-.379s-.408-.597-.434-1.033h.812c.035.223.113.388.233.497.12.108.272.162.455.162.192 0 .35-.061.476-.184a.607.607 0 0 0 .19-.451.611.611 0 0 0-.255-.495c-.17-.135-.416-.205-.736-.208v-.705c.197-.015.344-.046.441-.092a.546.546 0 0 0 .226-.189.45.45 0 0 0 .08-.255.383.383 0 0 0-.123-.291.451.451 0 0 0-.322-.116.522.522 0 0 0-.32.107.535.535 0 0 0-.196.277Z" fill="#FFFFFF"/>
            <path d="m43.26 24.108-.697-.345.753-1.465c-.365 0-.676-.131-.932-.393A1.34 1.34 0 0 1 42 20.93a1.3 1.3 0 0 1 .394-.957 1.3 1.3 0 0 1 .951-.391c.389 0 .712.135.971.406.26.27.388.581.388.933 0 .133-.02.266-.06.4-.04.134-.132.34-.276.62l-1.108 2.166Zm.103-2.587c.152 0 .28-.055.383-.167a.584.584 0 0 0 .156-.413.586.586 0 0 0-.163-.421.51.51 0 0 0-.38-.17.529.529 0 0 0-.392.168.579.579 0 0 0-.164.42c0 .166.053.305.16.416a.53.53 0 0 0 .4.167Z" fill="#FFFFFF"/>
            <path d="m38.405 28.457-.665.366a1.128 1.128 0 0 0-.371-.272 1.112 1.112 0 0 0-.43-.076c-.298 0-.54.089-.724.268a.915.915 0 0 0-.277.687c0 .271.089.493.266.665.178.172.412.258.7.258.358 0 .636-.123.836-.367l.63.431c-.342.443-.825.665-1.448.665-.56 0-1-.166-1.317-.498a1.634 1.634 0 0 1-.476-1.166 1.639 1.639 0 0 1 .879-1.466 1.93 1.93 0 0 1 .927-.223c.316 0 .6.063.852.19.252.125.458.305.619.537Z" fill="#FFFFFF"/>
            <path d="M41.481 27.812h.797V31h-.797v-.337a1.57 1.57 0 0 1-.47.32 1.317 1.317 0 0 1-.512.099c-.412 0-.768-.16-1.069-.479-.3-.32-.451-.716-.451-1.19 0-.493.145-.896.436-1.21a1.391 1.391 0 0 1 1.06-.473c.192 0 .372.037.54.109.168.072.323.18.466.325v-.352Zm-.841.657a.812.812 0 0 0-.618.262.943.943 0 0 0-.246.672c0 .276.083.502.25.68a.813.813 0 0 0 .617.267.83.83 0 0 0 .627-.263c.166-.174.249-.403.249-.687 0-.277-.083-.502-.25-.673a.839.839 0 0 0-.629-.258Z" fill="#FFFFFF"/>
            <path d="M43.001 26.582h.8V31h-.8v-4.418z" fill="#FFFFFF"/>
        </g>
        <g fill-rule="nonzero">
            <path d="M72.719 73.041h-.413c.011-.426.153-.775.426-1.049.271-.273.609-.41 1.01-.41.396 0 .716.128.961.384.246.256.368.557.368.905a1.4 1.4 0 0 1-.176.687c-.117.214-.344.503-.682.869l-1.072 1.157h1.989V76h-2.927l1.646-1.778c.334-.358.552-.623.652-.796.1-.173.151-.355.151-.546a.84.84 0 0 0-.27-.626.918.918 0 0 0-.664-.262.93.93 0 0 0-.687.276c-.183.183-.287.441-.312.773Z" fill="#3B3B3B"/>
            <path d="M77.904 71.582h.088v3.003h.522v.413h-.522V76h-.43v-1.002h-2.06l2.401-3.416Zm-.343 3.003v-1.796l-1.268 1.796h1.268Z" fill="#3B3B3B"/>
            <path d="M81.229 71.582h.088v3.003h.522v.413h-.522V76h-.43v-1.002h-2.06l2.402-3.416Zm-.342 3.003v-1.796l-1.269 1.796h1.269Z" fill="#3B3B3B"/>
            <path d="m75.96 80.475-.325.202c-.282-.373-.665-.56-1.152-.56-.388 0-.711.125-.968.375s-.385.554-.385.911a1.298 1.298 0 0 0 .663 1.134c.206.113.437.17.693.17.469 0 .852-.187 1.149-.56l.325.214a1.534 1.534 0 0 1-.614.532c-.257.126-.55.189-.877.189-.504 0-.922-.16-1.254-.48a1.563 1.563 0 0 1-.498-1.17c0-.308.077-.595.233-.86a1.64 1.64 0 0 1 .64-.619 1.87 1.87 0 0 1 .91-.223c.212 0 .415.033.612.097.196.065.362.149.5.252.136.104.252.235.348.396Z" fill="#3B3B3B"/>
            <path d="M79.923 79.812V83h-.404v-.548a1.758 1.758 0 0 1-.578.472 1.565 1.565 0 0 1-.702.158c-.451 0-.836-.164-1.156-.49a1.645 1.645 0 0 1-.479-1.195c0-.459.162-.851.484-1.177.322-.326.71-.49 1.163-.49.262 0 .498.056.71.167.212.112.398.279.558.501v-.586h.405Zm-1.64.314a1.238 1.238 0 0 0-1.094.642 1.295 1.295 0 0 0 .001 1.289c.116.205.27.364.465.479.194.114.402.171.625.171a1.285 1.285 0 0 0 1.103-.63c.109-.193.163-.411.163-.653 0-.37-.122-.678-.365-.926a1.208 1.208 0 0 0-.898-.372Z" fill="#3B3B3B"/>
            <path d="M80.785 78.582h.41V83h-.41v-4.418z" fill="#3B3B3B"/>
        </g>
        <g fill-rule="nonzero">
            <path d="M108.719 58.041h-.413c.011-.426.153-.775.426-1.049.271-.273.609-.41 1.01-.41.396 0 .716.128.961.384.246.256.368.557.368.905a1.4 1.4 0 0 1-.176.687c-.117.214-.344.503-.682.869l-1.072 1.157h1.989V61h-2.927l1.646-1.778c.334-.358.552-.623.652-.796.1-.173.151-.355.151-.546a.84.84 0 0 0-.27-.626.918.918 0 0 0-.664-.262.93.93 0 0 0-.687.276c-.183.183-.287.441-.312.773Z" fill="#3B3B3B"/>
            <path d="m113.55 56.582.353.231-1.162 1.764c.156-.053.303-.079.44-.079.341 0 .631.124.87.37.238.248.357.552.357.913 0 .248-.058.472-.173.673-.115.2-.279.359-.49.477a1.382 1.382 0 0 1-1.342.006 1.228 1.228 0 0 1-.476-.482 1.346 1.346 0 0 1-.173-.665c0-.176.035-.36.107-.555.071-.195.198-.428.382-.702l1.307-1.951Zm-.472 2.294a.872.872 0 0 0-.64.265.876.876 0 0 0-.265.643c0 .25.088.464.265.64.177.177.39.265.64.265s.463-.088.64-.265a.872.872 0 0 0 .265-.64.876.876 0 0 0-.265-.643.872.872 0 0 0-.64-.265Z" fill="#3B3B3B"/>
            <path d="m116.875 56.582.354.231-1.163 1.764c.157-.053.303-.079.44-.079.342 0 .632.124.87.37.238.248.357.552.357.913 0 .248-.057.472-.173.673-.115.2-.278.359-.49.477a1.382 1.382 0 0 1-1.342.006 1.228 1.228 0 0 1-.476-.482 1.346 1.346 0 0 1-.173-.665c0-.176.036-.36.107-.555.071-.195.199-.428.382-.702l1.307-1.951Zm-.472 2.294a.872.872 0 0 0-.64.265.876.876 0 0 0-.265.643c0 .25.088.464.265.64.177.177.39.265.64.265s.464-.088.64-.265a.872.872 0 0 0 .265-.64.876.876 0 0 0-.265-.643.872.872 0 0 0-.64-.265Z" fill="#3B3B3B"/>
            <path d="m111.96 65.475-.325.202c-.282-.373-.665-.56-1.152-.56-.388 0-.711.125-.968.375s-.385.554-.385.911a1.298 1.298 0 0 0 .663 1.134c.206.113.437.17.693.17.469 0 .852-.187 1.149-.56l.325.214a1.534 1.534 0 0 1-.614.532c-.257.126-.55.189-.877.189-.504 0-.922-.16-1.254-.48a1.563 1.563 0 0 1-.498-1.17c0-.308.077-.595.233-.86a1.64 1.64 0 0 1 .64-.619 1.87 1.87 0 0 1 .91-.223c.212 0 .415.033.612.097.196.065.362.149.5.252.136.104.252.235.348.396Z" fill="#3B3B3B"/>
            <path d="M115.923 64.812V68h-.404v-.548a1.758 1.758 0 0 1-.578.472 1.565 1.565 0 0 1-.702.158c-.451 0-.836-.164-1.156-.49a1.645 1.645 0 0 1-.479-1.195c0-.459.162-.851.484-1.177.322-.326.71-.49 1.163-.49.262 0 .498.056.71.167.212.112.398.279.558.501v-.586h.405Zm-1.64.314a1.238 1.238 0 0 0-1.094.642 1.295 1.295 0 0 0 .001 1.289c.116.205.27.364.465.479.194.114.402.171.625.171a1.285 1.285 0 0 0 1.103-.63c.109-.193.163-.411.163-.653 0-.37-.122-.678-.365-.926a1.208 1.208 0 0 0-.898-.372Z" fill="#3B3B3B"/>
            <path d="M116.785 63.582h.41V68h-.41v-4.418z" fill="#3B3B3B"/>
        </g>
        <g fill-rule="nonzero">
            <path d="M145.818 35.689h-.44c.081-.355.235-.627.461-.82.226-.191.495-.287.803-.287.225 0 .434.051.629.154.194.102.344.24.45.414.107.174.16.356.16.545 0 .371-.184.665-.553.882.207.084.377.207.51.37.187.228.28.484.28.767 0 .244-.064.477-.193.699a1.341 1.341 0 0 1-.527.514 1.538 1.538 0 0 1-.747.181c-.371 0-.68-.107-.929-.32-.248-.214-.41-.528-.486-.942h.422c.074.279.18.481.32.606.177.158.404.237.679.237.312 0 .563-.093.753-.28a.898.898 0 0 0 .284-.66.895.895 0 0 0-.523-.803c-.16-.074-.406-.12-.74-.137v-.397c.198 0 .377-.035.54-.104a.786.786 0 0 0 .352-.265.611.611 0 0 0 .11-.352.638.638 0 0 0-.224-.486.807.807 0 0 0-.567-.205.761.761 0 0 0-.48.157c-.137.105-.251.282-.344.532Z" fill="#3B3B3B"/>
            <path d="M149.46 34.69h.846V39h-.427v-3.888h-.677l.258-.422z" fill="#3B3B3B"/>
            <path d="M152.785 34.69h.846V39h-.426v-3.888h-.677l.257-.422z" fill="#3B3B3B"/>
            <path d="m148.96 43.475-.326.202c-.28-.373-.665-.56-1.151-.56-.389 0-.711.125-.968.375s-.385.554-.385.911a1.298 1.298 0 0 0 .663 1.134c.206.113.437.17.693.17a1.4 1.4 0 0 0 1.148-.56l.326.214a1.534 1.534 0 0 1-.614.532 1.97 1.97 0 0 1-.878.189c-.504 0-.921-.16-1.254-.48a1.563 1.563 0 0 1-.498-1.17c0-.308.078-.595.233-.86a1.64 1.64 0 0 1 .64-.619c.272-.148.576-.223.912-.223.21 0 .414.033.61.097.197.065.363.149.5.252.137.104.253.235.349.396Z" fill="#3B3B3B"/>
            <path d="M152.923 42.812V46h-.404v-.548a1.758 1.758 0 0 1-.578.472 1.565 1.565 0 0 1-.702.158 1.56 1.56 0 0 1-1.156-.49 1.645 1.645 0 0 1-.479-1.195c0-.459.161-.851.484-1.177.322-.326.71-.49 1.163-.49.261 0 .498.056.71.167.212.112.398.279.558.501v-.586h.404Zm-1.64.314a1.238 1.238 0 0 0-1.094.642 1.295 1.295 0 0 0 .001 1.289c.115.205.27.364.464.479.195.114.403.171.626.171.225 0 .437-.057.639-.17.2-.113.356-.267.464-.46.108-.193.163-.411.163-.653 0-.37-.122-.678-.365-.926a1.208 1.208 0 0 0-.898-.372Z" fill="#3B3B3B"/>
            <path d="M153.785 41.582h.41V46h-.41v-4.418z" fill="#3B3B3B"/>
        </g>
        <g fill-rule="nonzero">
            <path d="M182.135 88.69h.847V93h-.428v-3.888h-.677l.258-.422z" fill="#3B3B3B"/>
            <path d="M184.78 88.69h2.734l-2.307 4.418-.354-.181 1.993-3.83h-2.066v-.406z" fill="#3B3B3B"/>
            <path d="M189.981 90.636c.29.144.5.31.625.495a1.1 1.1 0 0 1 .19.633c0 .332-.11.625-.326.879-.266.31-.646.465-1.14.465-.476 0-.838-.136-1.084-.408-.246-.273-.369-.573-.369-.901 0-.24.065-.457.194-.65.128-.192.343-.363.644-.513a1.22 1.22 0 0 1-.475-.408.939.939 0 0 1-.158-.521c0-.188.056-.37.169-.55.112-.177.266-.318.466-.42a1.38 1.38 0 0 1 1.267.001c.191.104.34.244.45.422.108.178.162.364.162.56a.907.907 0 0 1-.154.521 1.271 1.271 0 0 1-.461.396Zm-.642-1.635a.845.845 0 0 0-.587.21.65.65 0 0 0-.233.499c0 .191.083.365.25.52a.831.831 0 0 0 .585.233.822.822 0 0 0 .701-.394.723.723 0 0 0 .107-.368.682.682 0 0 0-.21-.48c-.141-.147-.345-.22-.613-.22Zm.02 1.852a1.04 1.04 0 0 0-.746.288.903.903 0 0 0-.302.672.86.86 0 0 0 .489.774c.154.076.333.114.536.114.315 0 .565-.093.75-.278a.891.891 0 0 0 .278-.65.86.86 0 0 0-.294-.64.994.994 0 0 0-.71-.28Z" fill="#3B3B3B"/>
            <path d="m184.96 97.475-.325.202c-.281-.373-.665-.56-1.151-.56-.39 0-.712.125-.969.375-.256.25-.385.554-.385.911 0 .233.06.451.177.657.118.205.28.364.487.477.206.113.437.17.693.17.468 0 .851-.187 1.148-.56l.325.214a1.534 1.534 0 0 1-.614.532 1.963 1.963 0 0 1-.877.189c-.504 0-.922-.16-1.254-.48a1.563 1.563 0 0 1-.498-1.17c0-.308.078-.595.233-.86a1.64 1.64 0 0 1 .64-.619c.272-.148.575-.223.911-.223.211 0 .415.033.611.097.196.065.363.149.5.252.136.104.252.235.348.396Z" fill="#3B3B3B"/>
            <path d="M188.924 96.812V100h-.404v-.548a1.758 1.758 0 0 1-.579.472 1.565 1.565 0 0 1-.702.158 1.56 1.56 0 0 1-1.155-.49 1.645 1.645 0 0 1-.48-1.195c0-.459.162-.851.484-1.177.322-.326.71-.49 1.163-.49.262 0 .499.056.71.167.213.112.399.279.559.501v-.586h.404Zm-1.64.314a1.238 1.238 0 0 0-1.095.642 1.295 1.295 0 0 0 .002 1.289c.115.205.27.364.464.479.194.114.403.171.625.171.225 0 .438-.057.64-.17a1.2 1.2 0 0 0 .464-.46c.108-.193.162-.411.162-.653 0-.37-.121-.678-.365-.926a1.208 1.208 0 0 0-.898-.372Z" fill="#3B3B3B"/>
            <path d="M189.785 95.582h.41V100h-.41v-4.418z" fill="#3B3B3B"/>
        </g>
        <g fill-rule="nonzero">
            <path d="M3.818 17.689h-.44c.081-.355.235-.627.461-.82.226-.191.495-.287.803-.287.225 0 .434.051.629.154.194.102.344.24.45.414.107.174.16.356.16.545 0 .371-.184.665-.553.882.207.084.377.207.51.37.187.228.28.484.28.767 0 .244-.064.477-.193.699a1.341 1.341 0 0 1-.527.514 1.538 1.538 0 0 1-.747.181c-.371 0-.68-.107-.929-.32-.248-.214-.41-.528-.486-.942h.422c.074.279.18.481.32.606.177.158.404.237.679.237.312 0 .563-.093.753-.28a.898.898 0 0 0 .284-.66.895.895 0 0 0-.523-.803c-.16-.074-.406-.12-.74-.137v-.397c.198 0 .377-.035.54-.104a.786.786 0 0 0 .352-.265.611.611 0 0 0 .11-.352.638.638 0 0 0-.224-.486.807.807 0 0 0-.567-.205.761.761 0 0 0-.48.157c-.137.105-.251.282-.344.532Z" fill="#FFFFFF"/>
            <path d="M9.299 16.69v.41H7.765l-.214 1.175a1.83 1.83 0 0 1 .507-.082c.393 0 .717.132.971.394.255.263.383.6.383 1.01 0 .283-.066.543-.197.779a1.37 1.37 0 0 1-.531.543 1.552 1.552 0 0 1-.775.19c-.35 0-.645-.108-.885-.321a1.313 1.313 0 0 1-.43-.831h.441c.033.166.09.3.168.404a.944.944 0 0 0 .731.346.969.969 0 0 0 .73-.322c.203-.215.304-.484.304-.806 0-.29-.091-.527-.275-.709-.184-.182-.429-.272-.735-.272-.254 0-.562.077-.923.231l.398-2.139h1.866Z" fill="#FFFFFF"/>
            <path d="M9.865 18.847c0-.569.06-1.008.183-1.319.122-.31.294-.546.517-.706.223-.16.472-.24.747-.24.28 0 .532.08.759.242.226.16.406.403.538.725.131.322.197.755.197 1.298 0 .54-.065.971-.195 1.292-.13.32-.309.562-.537.725a1.281 1.281 0 0 1-.762.244c-.275 0-.523-.079-.744-.237-.22-.158-.393-.394-.517-.707-.124-.314-.186-.753-.186-1.317Zm.407.008c0 .487.044.854.13 1.103.087.25.216.438.386.567.17.13.35.194.539.194a.87.87 0 0 0 .536-.19c.166-.125.292-.314.378-.566.107-.307.161-.676.161-1.108 0-.433-.048-.788-.144-1.065-.095-.276-.228-.478-.397-.606a.872.872 0 0 0-.534-.192.874.874 0 0 0-.54.192 1.18 1.18 0 0 0-.383.565c-.088.25-.132.618-.132 1.106Z" fill="#FFFFFF"/>
        </g>
    </g>
</svg>
