<?xml version="1.0" encoding="UTF-8"?>
<svg data-bbox="0.001 57.379 511.999 397.242" viewBox="0 0 512 512" xmlns="http://www.w3.org/2000/svg" data-type="ugc">
    <g>
        <path fill="#e1945f" d="M105.931 136.828v61.793H61.793v-61.793h44.138z"/>
        <path d="M52.966 92.69c-19.501 0-35.31 15.809-35.31 35.31v61.793c0 9.75-7.905 17.655-17.655 17.655 0 14.626 26.483 44.138 61.793 26.483l8.828-17.655V92.69H52.966z" fill="#643c3e"/>
        <path d="M110.345 180.966c-26.815 0-48.552-21.737-48.552-48.552v-26.483c0-26.815 21.737-48.552 48.552-48.552 26.814 0 48.552 21.737 48.552 48.552v26.483c0 26.815-21.737 48.552-48.552 48.552z" fill="#f5af73"/>
        <path d="M356.966 273.655c-22.211-21.468-49.705-9.649-73.567 9.998l-94.847 77.726 36.99 70.338c1.199-.947 2.401-1.897 3.608-2.845 48.854-38.353 97.485-107.093 97.485-107.093l105.917 97.53 44.138-8.828c0 .002-88.306-106.46-119.724-136.826z" fill="#f5c882"/>
        <path d="m210.816 404.107 14.726 27.61c1.199-.947 2.401-1.897 3.608-2.845 20.6-16.172 41.16-37.747 58.051-57.292 4.881-5.647-2.407-13.487-8.483-9.153-23.927 17.069-48.768 31.444-67.902 41.68z" fill="#f5af73"/>
        <path d="M176.537 371.126c-36.21-23.786-44.124-62.161-44.124-62.161-2.586-10.865 18.391-17.655 13.977-41.931-1.804-9.918-31.633-24.276-49.288-59.586l-51.724-.276c-19.126 100.414 20.083 151.439 57.609 193.379 4.945 5.526 9.845 11.991 15.038 18.468l58.512-47.893z" fill="#7df5a5"/>
        <path d="m207.645 345.662-89.619 73.357c11.062 13.795 23.584 27.652 41.606 32.658 31.596 8.777 49.839-7.357 69.517-22.805 10.428-8.186 20.815-17.782 30.752-27.774l-52.256-55.436z" fill="#afb9d2"/>
        <path d="m118.027 419.02 24.86-20.35c-72.045-58.559-77.53-150.507-68.999-183.427l-28.509-8.07c-19.126 100.414 20.083 151.439 57.609 193.379 4.945 5.526 9.846 11.991 15.039 18.468z" fill="#64dca0"/>
        <path d="m259.902 401.1-15.328-16.262c-18.582 11.306-35.758 20.495-48.115 26.754-12.764 6.465-27.999 5.316-39.857-2.689-4.84-3.267-9.37-6.703-13.715-10.233l-24.861 20.35c11.062 13.795 23.584 27.652 41.606 32.658 31.596 8.777 49.839-7.357 69.517-22.805 10.428-8.186 20.815-17.782 30.753-27.773z" fill="#959cb5"/>
        <path d="m453.721 415.076-96.899-100.534c-5.762-5.978-15.23-6.301-21.385-.729l-8.802 7.967 105.917 97.53 21.169-4.234z" fill="#f5af73"/>
        <path d="M476.69 410.483h-35.31a8.829 8.829 0 0 0-8.828 8.828v35.31H512v-8.828c0-19.501-15.809-35.31-35.31-35.31z" fill="#d5dced"/>
        <path d="M110.345 57.379c-26.815 0-48.552 21.737-48.552 48.552v26.483c0 7.288 1.652 14.176 4.529 20.38 39.956-15.225 45.507-46.394 92.575-43.297v-3.565c0-26.816-21.737-48.553-48.552-48.553z" fill="#785353"/>
        <path d="M68.009 234.216c-6.944 0-16.836-3.319-21.526-13.802-4.484-10.025-1.688-25.655 13.76-30.621l116.306-36.871L70.001 99.656c-8.719-4.362-12.254-14.966-7.896-23.69 4.366-8.724 14.983-12.258 23.69-7.896l106.548 53.276c12.538 6.276 20.009 18.871 19.496 32.879-.513 14.001-8.884 26.017-21.845 31.353l-114.2 47.026c-2.203.904-5.548 1.612-7.785 1.612z" fill="#f5c882"/>
    </g>
</svg>
