<?xml version="1.0" encoding="UTF-8"?>
<svg id="Ebene_2" data-name="Ebene 2" xmlns="http://www.w3.org/2000/svg" xmlns:xlink="http://www.w3.org/1999/xlink" viewBox="0 0 821.07 821.07">
  <defs>
    <style>
      .cls-1 {
        fill: #fff;
      }

      .cls-2 {
        fill: #f04bad;
      }

      .cls-3 {
        clip-path: url(#clippath);
      }

      .cls-4 {
        fill: #f2f2f2;
      }

      .cls-5 {
        fill: #fefefe;
      }

      .cls-6 {
        fill: #ededed;
      }
    </style>
    <clipPath id="clippath">
      <rect class="cls-1" width="821.07" height="821.07"/>
    </clipPath>
  </defs>
  <g id="Zumba_Stream" data-name="Zumba Stream">
    <g>
      <rect class="cls-1" width="821.07" height="821.07"/>
      <g class="cls-3">
        <g>
          <path class="cls-2" d="M228.57,626.59c.73,.23,.73-.54,.77-.78,1.29-7.7,4.54-14.76,7.19-22.01,2.36-6.47,4.17-13.12,6.37-19.65,1.64-4.88,3.34-9.74,5.21-14.53,1-2.56,1.03-5.32,2.14-7.86,.57-1.31,1.2-2.62,1.76-3.93,1.89-4.38,3.13-9.02,5.85-13.05,1.65-2.45,3.57-4.59,5.94-6.24,3.93-2.74,7.35-6.04,10.83-9.27,5.21-4.85,9.89-10.2,14.56-15.55,4.42-5.06,9.04-9.95,13.45-15.02,3.33-3.84,6.61-7.73,9.63-11.85,1.02-1.39,2.72-2.28,4.08-3.45,7.71-6.67,15.68-13.04,23.23-19.9,4.91-4.47,10.06-8.68,14.69-13.45,.84-.87,1.13-1.77,.86-2.81-1.51-5.95-1.76-12.07-2.47-18.13-.83-7.08-1.18-14.23-2.7-21.23-1.5-6.91-2.81-13.87-4.44-20.75-2.63-11.1-5.12-22.24-8.41-33.17-1.46-4.86-2.89-9.78-5.17-14.37-.67-1.35,.2-2.72,.35-4.06,.51-4.42,.55-8.82-.02-13.23-.12-.94-.1-1.91-.16-2.95-.31,.1-.57,.1-.66,.22-.41,.61-1.09,1.22-1.59,.64-.64-.75,.09-1.37,.86-1.68,.95-.38,.9-.91,.84-1.92-.25-4.27-1.01-8.47-1.5-12.7-.44-3.81-.43-7.69-1.46-11.43-.23-.84-.13-1.65-.15-2.48,0-.32,.05-.92,.45-.69,.76,.44,.8,.24,.79-.48-.03-5.62,.21-11.26-.48-16.85-.26-2.15-1.06-4.23-1.61-6.35-.05-.2-.05-.53-.16-.58-3.58-1.47-2.01-4.84-2.21-7.16-.92-10.74-.62-21.53-.53-32.31,.04-4.14,.69-8.24,1.43-12.35,.68-3.76,1.36-7.51,2.32-11.19,.67-2.56,.98-5.36,3.39-7.18,.13-.1,1.19-1.37,.03-2.08,.57-.92,.65-1.82,.63-2.96-.02-.86,.66-1.1,.12-2.01-.09-.15,0-.41,0-.62,.13-.23,.35-.33,.57-.45,.72-1.15,.41-2.5,.72-3.72,.15-.99,.64-1.98-.02-2.97-.35-.42-.34-.85,0-1.27,1.29-.46,1.69-1.68,.88-2.71q-.62-.79,.32-1.43c.42-1.2,.39-2.48,.65-3.7,.06-.27,.02,.08-.03-.19-.03-.21-.15-.19-.2,.04-1.38,.33-1.36-.62-1.2-1.46,.45-2.33,.79-4.45-.67-6.78-.96-1.54-.23-3.8,1.33-5.03,.98-.77,.76-1.41,.5-2.18-.54-1.57-.84-3.16-.8-4.83,.02-1.01,.06-1.93,.98-2.57,.81-.56,.68-1.42,.73-2.25,.12-2.33-.41-4.7,.44-6.98,.26-.28,.59-.34,.94-.26,1.01,.63,.92-.32,1.13-.81,1.43-3.33,1.58-6.9,1.82-10.43,.33-4.87-.24-9.72-.6-14.57-.5-6.72-1.42-13.42-.95-20.17,.26-3.8,.71-7.58,.56-10.88,.36,2.3-.36,5.09-.24,7.9,.02,.56,0,1.12-.45,1.55-.35,.2-.68,.23-.97-.09-.18-4.32-.7-8.62-.38-13.34-2.36,3.04-3.49,6.13-4.12,9.41-.44,2.25,1.49,1.76,2.82,2.07-.88,1.45-2.27,1.3-3.31,.95-1.13-.38-.91-1.71-.84-2.74,.29-4.4,2.41-8.07,4.68-11.68,.15-.23,.36-.43,.02-.86-2.76,.81-3.76,3.34-4.99,5.53-.94,1.66-1.51,3.5-2.56,5.15-.89,1.39-1.82,2.69-3.51,2.1-1.62-.57-2.24-2.14-2.47-3.89-.75-5.68,2.07-9.81,5.73-13.6,2.64-2.73,2.51-4.85-.7-6.84-6.83-4.25-11.3-10.52-15.22-17.3-3.26-5.64-5.64-11.65-7.76-17.79-.35-1.02-1.08-1.98-1.19-3.01-.28-2.56-.07-5.13,.36-7.68h2.92c.81,.42,1.5,.98,1.96,1.8,1.27,2.23,2.54,4.45,3.44,6.64-.05-1.13-.22-2.46-.71-3.75-.27-.72-.31-1.56,.31-2.16,.68-.65,1.44-.27,2.13,.06,2.79,1.32,4.92,3.4,6.34,6.1,1.71,3.26,2.96,6.73,4.44,10.1,1.67,3.82,3.4,7.61,6.75,10.36,1.85,1.51,3.34,1.82,5.02,.79,.32-.12,.63-.11,.95,.01,2.65,1.81,5.44,1.86,8.22,.43,2.45-1.26,5.04-1.05,7.13,.82,1.4,1.25,4.63,1.32,6.16,.11,2.13-1.68,4.02-3.68,6.45-4.95,1.09-.57,2.32-1.61,3.47-.9,1.28,.79,.67,2.4,.69,3.68,0,.28-.05,.56-.16,.82-.33,.82-.55,2.04-1.62,1.88-1.17-.17-.83-1.38-.81-2.25,0-.2,.05-.41-.21-.81-2.49,1.2-4.57,2.97-6.49,4.94-.64,.66-.44,1.39-.04,2.12,1.27,2.24,2.64,4.43,3.8,6.73,.3,.58,.76,.98,1.39,1.2,.4,.13,.8,.25,1.17,.45,1.12,.63,2.03,1.49,1.41,2.85-.69,1.54-1.73,.38-2.77,.04-.36,1.01-.12,2,.26,2.8,.67,1.42,.27,2.36-.86,3.24-2.68,2.06-3.25,4.91-2.83,8.05,1.08,8.21,1.9,16.45,3.19,24.63,.68,4.33,1.45,8.65,2.25,12.96,.99,5.35,.62,10.69,.67,16.04,.01,1.18,.15,1.63,1.46,1.84,4.36,.69,8.09,2.98,11.71,5.31,3.59,2.31,7.51,3.24,11.62,3.68,7.79,.83,15.53,.12,23.3-.63,5.11-.49,10.28-.61,15.39-1.12,9.32-.94,18.64-.94,27.95-.61,7.75,.28,15.6,.76,22.87,4.07,2.72,1.24,4.64,3.05,5.57,6.06,2.61,8.39,3.11,16.95,2.27,25.61-.48,4.92-.63,9.86-1.22,14.77-.79,6.5-1.79,12.96-2.73,19.43-1.08,7.37-2.74,14.64-3.8,22.02-.33,2.3-1.28,4.52-2.35,6.67-3.18,6.43-6.05,13-8.9,19.58-.9,2.07-1.33,4.26-1.91,6.4-1.55,5.74-4.3,11.02-6.15,16.65-2.2,6.73-3.4,13.59-4.02,20.64-.53,6.04,.38,11.93,1.07,17.86,.29,2.51,.15,5.01,.25,7.7,.55-.4,1.02-1.08,1.73-.68,.64,.36,.68,1.02,.65,1.65-.06,1.11,.04,2.25-.38,3.31-2.01,4.99-2.28,10.31-2.89,15.56-.39,3.41-.97,6.75-2.33,9.93-.06,.13-.1,.26-.16,.39-.58,1.31-.4,2.56,.74,3.37,1.15,.81,2.28,.1,3.26-.57,.93-.64,1.19-1.67,1.34-2.73,.08-.55,.11-1.21,.85-1.23,.63-.02,.96,.48,1.23,.99,.78,1.52,.16,3.7-1.64,4.67-2.16,1.16-4.23,2.74-6.99,2.23-1.25-.23-1.78,.53-1.62,1.76,.12,.91,.39,1.77,.87,2.56,3.44,5.63,5.48,11.86,7.65,18.03,2.43,6.89,4.65,13.87,8.15,20.34,.87,1.61,1.88,2.07,3.53,1.57,.66-.2,1.35-.36,2.04-.46,.69-.1,1.48-.28,1.85,.51,.35,.76-.26,1.3-.73,1.81-.63,.67-1.4,1.16-2.24,1.51-1.17,.5-1.5,1.23-1.11,2.48,.41,1.33,.89,2.64,1.18,4.01,0,.28,.35-.07,.09,.03-.06,.02-.06-.04-.08-.19-.09-.73-.13-1.45,.76-1.69,.72-.19,1.16,.32,1.56,.81,.22,.27,.45,.54,.61,.85,.68,1.36,1.52,2.13,3.08,1.09,.39-.26,.95-.18,1.44-.15,.92,.05,1.97,.09,2.19,1.19,.22,1.1-.65,1.65-1.56,1.9-1.29,.34-1.38,.84-.55,1.83,5.48,6.49,9.23,14.07,13.37,21.39,.24,.42,.51,.83,.71,1.28,.52,1.14,1.27,1.4,2.33,.7,.29-.19,.59-.38,.91-.52,.72-.31,1.55-1.2,2.23-.33,.78,1.01-.09,2-.89,2.42-1.97,1.02-1.35,1.99-.38,3.35,1.43,2,2.26,4.29,2.69,6.74,.53,3.02,1.12,6.02,1.52,9.06,.46,3.5,1.58,6.76,3.52,9.74,1.4,2.15,.95,4.66,.67,6.94-.77,6.3-.06,12.53,.65,18.73,.66,5.8,1.43,11.61,3.21,17.22,.3,.93,.49,1.94,1.26,2.6,1.86,1.59,2.22,3.8,1.94,5.92-.77,5.86,.67,11.27,2.5,16.76,2.41,7.25,6.25,13.81,9.28,20.76,1.03,2.36,1.97,4.76,2.58,7.27,.42,1.71,.68,1.84,2.24,.89,2.26-1.37,4.45-2.87,6.93-3.83,.81-.32,1.79-.92,2.46,.07,.59,.87,.05,1.81-.54,2.48-1.03,1.17-1.95,2.59-3.98,1.87-.87-.31-4.98,2.19-5.3,2.99-.26,.66,.08,1.23,.34,1.79,6.08,13.18,10.6,26.95,15.52,40.57,3.81,10.54,7.89,20.99,11.61,31.57,1.59,4.53,3.13,9.09,4.55,13.68,1.43,4.64,3.51,8.94,6.25,12.93,3.8,5.52,6.11,11.68,8.09,18.03,3.95,12.65,7.11,25.48,9.68,38.47,.18,.89,.28,1.7,1.55,1.09,3.2-1.54,6.48-2.92,9.2-5.29,1.97-1.71,2.02-2.52,.21-4.31-.48-.48-.94-.97-.28-1.56,.59-.53,1.15-1.27,2.16-.75,.93,.48,1.38,1.34,1.86,2.19v3.34c-2.44,2.28-4.68,4.79-7.75,6.31-2.06,1.02-3.88,2.53-6.22,3-.56,.11-1,.46-1.1,1.28-.58,4.83-.81,9.64,.47,14.38,.53,1.97,1.34,3.86,2.1,5.76,.18,.45,.63,.89,.16,1.28-.55,.46-1.09,.04-1.39-.43-.48-.74-.99-1.52-1.25-2.36-.44-1.41-.92-2.89-1.16-4.28-.39-2.29-1.53-2.52-3.38-2.39-1.65,.11-3.32,.02-5,.02,.32,1.97,.38,3.72-1.26,4.98-.72,.55-.07,.95,.14,1.33,2.75,5.07,2.55,10.23,.02,15.19-1.84,3.61-4.9,5.79-9.22,5.69-1.33-.03-2.52-.51-2.13,2.06,.47,3.11-1.11,6.04-3.87,7.91-3.63,2.45-7.65,3.57-12.08,3.43-3.79-.12-7.6,.15-11.23-1.29-4.27-1.7-6.81-4.27-6.9-9.65-.07-4.68,1.11-9.08,2.39-13.5,1.09-3.77,.45-7.66,.55-11.49,.03-1.13-.87-.88-1.5-.87-2.7,.05-5.33-.42-7.99-.8-2.72-.39-4.53-2.1-6.31-3.9-.25-.25-.27-.68-.79-.75-3.45-.51-4.67-3.27-5.93-5.97-.35-.74-.55-1.54-.82-2.32-.94-2.77-2.99-4.25-5.81-4.25-.73,0-.65,.25-.57,.85,.1,.7,.38,1.53-.34,2.15-.15,.14-.3,.15-.45,0-1.02-2.95-.69-3.87,2.02-5.29-4.61-5.26-7.14-11.52-8.88-18.16-2.18-8.3-4.26-16.63-6.55-24.9-.96-3.48-2.21-6.9-2.84-10.46-.81-4.59-1.33-9.22-2.15-13.81-.42-2.33-1.16-4.6-1.86-6.87-1.13-3.66-1.34-7.52-2.45-11.17-1.54-5.07-3.65-9.94-5.52-14.89-2.13-5.65-4.28-11.26-7.18-16.61-1.95-3.59-3.2-7.56-4.66-11.41-1.92-5.06-3.75-10.16-5.6-15.25-1.6-4.4-3.09-8.84-4.78-13.21-2.89-7.44-5.63-14.94-8.69-22.33-2.9-7-6.09-13.85-9.48-20.6-2.86-5.69-6.22-11.14-10.08-16.25-1.06-1.41-1.76-3.83-3.26-3.99-2.26-.24-4.69,.65-7,1.25-7.67,2-14.57,5.64-20.8,10.47-2.27,1.76-4.34,3.88-6.07,6.26-1.44,1.99-3.65,3.15-5.53,4.63-2.55,2.01-5.19,3.94-7.33,6.35-3.46,3.89-7.62,6.71-12.15,9.09-.9,.47-1.71,1.08-2.18,1.88-1.9,3.25-4.93,5.27-7.87,7.35-2.29,1.62-4.55,3.26-6.59,5.19-2.93,2.78-6.7,4.28-9.9,6.64-6.56,4.84-13.51,9.07-19.51,14.75-3.35,3.18-6.11,7.04-10.09,9.57-.43,.28-.85,.79-1,1.28-1.5,5.03-4.12,10.04-3.62,15.25,.64,6.66-1.57,12.5-3.35,18.53-1.85,6.29-3.83,12.54-5.92,18.76-2.38,7.08-4.93,14.07-7.99,20.87-.65,1.44-.33,2.6,.57,3.99,1.79,2.75,2.55,5.94,2.25,9.23-.6,6.61-3.35,12.23-8.26,16.71-1.36,1.25-2.91,2.29-4.55,3.57,1.53,1.22,3.08,2.48,4.66,3.71,3,2.32,5.87,4.75,7.97,7.99,2.6,4.01,2.82,7.74-.42,11.08-2.95,3.04-5.22,6.76-8.84,9.14-.23,.15-.39,.53-.61,.55-3.72,.35-5.62,3.48-8.3,5.42-1.64,1.19-3.51,1.11-5.37,1.04-.09,2.01,.75,3.79,1.02,5.65,.21,1.43,1.24,2.23,1.74,3.38,1.31,3.03,.19,6.29-3.16,9.33-4.37,3.98-9.32,7.06-15.14,8.14-7.23,1.34-15.05-.82-20.2-7.06-3.14-3.8-2.63-7.7-1.33-11.82,.34-1.09,1.18-1.96,2.14-2.47,1.51-.79,2.14-2.31,3.25-3.42,.4-.4,.34-.87,.05-1.33-.88-1.4-.33-3.38-2.1-4.54-.55-.36-.19-1.91-.68-3-.71-1.59-1.54-.95-2.3-.58-.69,.34-1.19,.97-1.99,.23-.72-.67-.72-1.35-.39-2.25,.27-.73,.6-1.34,1.15-1.9,2.33-2.4,2.21-4.26-.12-6.55-1.11-1.1-2.63-2-2.56-3.96,.03-.86,.26-1.57,1-1.9,.71-.32,1.31,.26,1.78,.72,1.19,1.17,2.35,2.37,3.47,3.6,.25,.28,.31,.87,.82,.68,.54-.21,.61-.78,.37-1.25-1.46-2.83-1.18-5.89-1.1-8.89,.06-2.23,1.7-3.93,4.1-4.18,1.18-.13,1.34-.64,1.39-1.53,.18-3.26,.82-6.47,.83-9.77,0-2.2-.88-3.56-2.51-4.62-5.34-3.44-10.38-7.29-14.77-11.86-2.16-2.25-3.76-5.09-3.69-8.48,.05-2.6-.23-5.19,1.21-7.64,.63-1.07,1.78-1.38,2.37-2.48,1.1-2.04,.95-4.27,1.4-6.39,.98-4.64,1.84-9.31,2.63-13.98,.74-4.35,1.47-8.7,1.95-13.08,.25-2.3,1.56-4.36,1.32-6.73,.56-.23-.34-1.39,.8-1.25Z"/>
          <path class="cls-4" d="M228.57,626.59c-.66,.16-.19,1.05-.8,1.25,.42-3.57,.8-7.14,1.29-10.69,.49-3.62,1.09-7.24,1.66-10.85,.06-.39,.28-.75,.63-1.08-1.06,7.12-2.17,14.22-2.77,21.38Z"/>
          <path class="cls-6" d="M505.57,742.42c.15,0,.3,0,.45,0,.4,2.31,.8,4.61,3.5,5.54-2.71-.42-3.82-2.06-3.94-5.54Z"/>
          <path class="cls-5" d="M358.52,206.91c.19-3.99,1.41-7.76,2.82-11.43,1.99-5.18,3.93-10.35,4.23-15.94,.08-1.37,.51-2.05,1.8-2.26,1.15-.18,2.3-.36,3.38-.84,.82-.37,1.36,.07,1.08,.83-.86,2.34,.1,4.83-.72,7.18-.25,.72-.44,1.14-1.07,1.67-1.39,1.19-1.3,3.16-1.44,4.8-.45,5.34,.17,10.55,2.82,15.37,.92,1.66,1.96,3.15,3.8,3.87,.61,.24,.9,.63,.78,1.28-.7,3.87,.33,7.62,.75,11.41,.42,3.75,1.54,7.38,1.44,11.23-.13,5.27-2.12,6.66-6.58,7.01-.53,.04-1.37-.35-1.38,.72,0,.39,.48,.95-.45,.94-.82,0-.86-.5-.84-1.1,.04-2.15-.37-4.23-.76-6.33-.9-4.89-3.2-9.24-5.13-13.73-2.03-4.74-4.23-9.43-4.56-14.7Z"/>
          <path class="cls-5" d="M459.18,176.11c-4.72,13.43-5.28,28.18-12.68,40.82-.2-15.3-3.95-30.04-6.18-45.28,6.23,1.21,12.3,3.43,18.86,4.46Z"/>
          <path class="cls-5" d="M437.35,171.04c1.19,.2,1.76,.55,1.82,1.64,.41,6.84,2.16,13.47,3.19,20.21,.86,5.6,2.04,11.18,2.11,16.9-2.73-12.82-5.07-25.71-7.13-38.75Z"/>
          <path class="cls-5" d="M335.83,344.88c-1.48-3.2-1.73-6.62-2.03-10.04,1.39,3.2,1.11,6.76,2.03,10.04Z"/>
          <path class="cls-5" d="M336.24,168.95c-.31-1.16-.55-2.31,.45-3.46-.01,1.27-.56,2.32-.45,3.46Z"/>
        </g>
      </g>
    </g>
  </g>
</svg>