<?xml version="1.0" encoding="UTF-8"?>
<svg id="Ebene_2" data-name="Ebene 2" xmlns="http://www.w3.org/2000/svg" viewBox="0 0 515 336.55">
  <defs>
    <style>
      .cls-1 {
        fill: #22bdcb;
      }

      .cls-2 {
        fill: #00baca;
      }

      .cls-3 {
        fill: #35c1cd;
      }

      .cls-4 {
        fill: #4ec9d4;
      }

      .cls-5 {
        fill: #a7e4e9;
      }

      .cls-6 {
        fill: #cceef1;
      }

      .cls-7 {
        fill: #caeef2;
      }

      .cls-8 {
        fill: #c8eef1;
      }

      .cls-9 {
        fill: #d1f0f3;
      }

      .cls-10 {
        fill: #29bdcb;
      }

      .cls-11 {
        fill: #c7edf1;
      }

      .cls-12 {
        fill: #6dd2db;
      }

      .cls-13 {
        fill: #35c4d1;
      }

      .cls-14 {
        fill: #1cbac8;
      }

      .cls-15 {
        fill: #c6edf1;
      }

      .cls-16 {
        fill: #b0e6eb;
      }

      .cls-17 {
        fill: #7bd5de;
      }

      .cls-18 {
        fill: #8cdce3;
      }

      .cls-19 {
        fill: #08bbcb;
      }

      .cls-20 {
        fill: #61cfd9;
      }

      .cls-21 {
        fill: #c3ecf0;
      }

      .cls-22 {
        fill: #55cbd6;
      }

      .cls-23 {
        fill: #cff0f3;
      }

      .cls-24 {
        fill: #94dde4;
      }

      .cls-25 {
        fill: #23bdcb;
      }

      .cls-26 {
        fill: #252222;
      }

      .cls-27 {
        fill: #282425;
      }

      .cls-28 {
        fill: #81d8df;
      }

      .cls-29 {
        fill: #76d5dd;
      }

      .cls-30 {
        fill: #13bac9;
      }

      .cls-31 {
        fill: #9adfe6;
      }

      .cls-32 {
        fill: #88dae1;
      }

      .cls-33 {
        fill: #10b7c6;
      }

      .cls-34 {
        fill: #14b8c7;
      }

      .cls-35 {
        fill: #6bd1da;
      }

      .cls-36 {
        fill: #2e2a2b;
      }

      .cls-37 {
        fill: #e7f6f8;
      }

      .cls-38 {
        fill: #18bac8;
      }

      .cls-39 {
        fill: #31c0cd;
      }

      .cls-40 {
        fill: #f6fbfd;
      }

      .cls-41 {
        fill: #7bd6de;
      }

      .cls-42 {
        fill: #31c3d1;
      }

      .cls-43 {
        fill: #e5f6f8;
      }

      .cls-44 {
        fill: #9de1e6;
      }

      .cls-45 {
        fill: #07b6c6;
      }

      .cls-46 {
        fill: #8bdbe2;
      }

      .cls-47 {
        fill: #b9e9ed;
      }

      .cls-48 {
        fill: #27bdca;
      }

      .cls-49 {
        fill: #1ebecc;
      }

      .cls-50 {
        fill: #27bfcd;
      }

      .cls-51 {
        fill: #52cad5;
      }

      .cls-52 {
        fill: #b3e7ec;
      }

      .cls-53 {
        fill: #8ddbe3;
      }

      .cls-54 {
        fill: #aae4ea;
      }

      .cls-55 {
        fill: #55cbd5;
      }

      .cls-56 {
        fill: #1eb9c7;
      }

      .cls-57 {
        fill: #b5e8ec;
      }

      .cls-58 {
        fill: #f9fdfd;
      }

      .cls-59 {
        fill: #00b1c1;
      }

      .cls-60 {
        fill: #14b7c6;
      }

      .cls-61 {
        fill: #b1e7eb;
      }

      .cls-62 {
        fill: #eef9fa;
      }

      .cls-63 {
        fill: #38c2ce;
      }

      .cls-64 {
        fill: #ddf4f6;
      }

      .cls-65 {
        fill: #c2ecf0;
      }

      .cls-66 {
        fill: #cff0f2;
      }

      .cls-67 {
        fill: #2ec0cd;
      }

      .cls-68 {
        fill: #29bfcc;
      }

      .cls-69 {
        fill: #15b8c7;
      }

      .cls-70 {
        fill: #def4f6;
      }

      .cls-71 {
        fill: #e0f5f7;
      }

      .cls-72 {
        fill: #d7f2f5;
      }

      .cls-73 {
        fill: #caeef1;
      }

      .cls-74 {
        fill: #aee4ea;
      }

      .cls-75 {
        fill: #12b6c6;
      }

      .cls-76 {
        fill: #e8f7f8;
      }

      .cls-77 {
        fill: #5bccd6;
      }

      .cls-78 {
        fill: #33c3d0;
      }

      .cls-79 {
        fill: #8ddbe2;
      }

      .cls-80 {
        fill: #d9f3f5;
      }

      .cls-81 {
        fill: #262223;
      }

      .cls-82 {
        fill: #312d2e;
      }

      .cls-83 {
        fill: #b3e7eb;
      }

      .cls-84 {
        fill: #cceef2;
      }

      .cls-85 {
        fill: #30c1ce;
      }

      .cls-86 {
        fill: #51c9d4;
      }

      .cls-87 {
        fill: #ace5ea;
      }

      .cls-88 {
        fill: #3dc7d4;
      }

      .cls-89 {
        fill: #9be0e6;
      }

      .cls-90 {
        fill: #93dde4;
      }

      .cls-91 {
        fill: #b4e8ec;
      }

      .cls-92 {
        fill: #9ee0e6;
      }

      .cls-93 {
        fill: #53cad5;
      }

      .cls-94 {
        fill: #c0ebef;
      }

      .cls-95 {
        fill: #a6e3e9;
      }

      .cls-96 {
        fill: #e2f5f7;
      }

      .cls-97 {
        fill: #bae9ed;
      }

      .cls-98 {
        fill: #c3edf0;
      }

      .cls-99 {
        fill: #31bfcd;
      }

      .cls-100 {
        fill: #292526;
      }

      .cls-101 {
        fill: #5ecdd7;
      }

      .cls-102 {
        fill: #09b7c6;
      }

      .cls-103 {
        fill: #a1e1e7;
      }

      .cls-104 {
        fill: #b5e7ec;
      }

      .cls-105 {
        fill: #252122;
      }

      .cls-106 {
        fill: #19b9c7;
      }

      .cls-107 {
        fill: #292425;
      }

      .cls-108 {
        fill: #d7f2f4;
      }

      .cls-109 {
        fill: #3bc4d0;
      }

      .cls-110 {
        fill: #d0f0f3;
      }

      .cls-111 {
        fill: #0db7c6;
      }

      .cls-112 {
        fill: #c9eef1;
      }

      .cls-113 {
        fill: #72d3dc;
      }

      .cls-114 {
        fill: #c2ecef;
      }

      .cls-115 {
        fill: #272324;
      }

      .cls-116 {
        fill: #e6f7f8;
      }

      .cls-117 {
        fill: #28becc;
      }

      .cls-118 {
        fill: #9ee0e7;
      }

      .cls-119 {
        fill: #9c9a9b;
      }

      .cls-120 {
        fill: #262122;
      }

      .cls-121 {
        fill: #89dae2;
      }

      .cls-122 {
        fill: #4ac7d2;
      }

      .cls-123 {
        fill: #51cad4;
      }

      .cls-124 {
        fill: #b4e7eb;
      }

      .cls-125 {
        fill: #91dce3;
      }

      .cls-126 {
        fill: #cbeef1;
      }

      .cls-127 {
        fill: #fcfdfe;
      }

      .cls-128 {
        fill: #fefefe;
      }

      .cls-129 {
        fill: #2bbecb;
      }

      .cls-130 {
        fill: #fcfcfc;
      }
    </style>
  </defs>
  <g id="Ebene_2-2" data-name="Ebene 2">
    <g id="Ebene_1-2" data-name="Ebene 1-2">
      <g>
        <path class="cls-59" d="M3.9,269.58c.18,.24,.25,.51,.22,.8,1.02,1.57-.25,3.56,.92,5.11,3.31,4.19,4.66,9.38,7.14,14-.25,5.27,4.44,3.66,7,5.01,.86,.3,1.63,.78,2.35,1.32,.26,.18,.5,.42,.79,.56,.86,.42,.6-.18,.42-.53-.53-1.02-1.23-1.9-2.2-2.55-.71-.56-1.17-1.28-1.44-2.13-.29-1.27-.94-2.32-1.95-3.15-.49-.49-.85-1.06-1.13-1.69-.91-2.18-.98-4.2,1.07-5.83,1.62-.99,2.52-3.76,5.2-2.09,.86,1.02,1.74,1.12,2.63,.04,.36-.64,1.23-1.2,1.57-.72,3.12,4.42,6.78,2.48,10.65,1.33,6.99-2.09,14.12-3.54,20.78-6.81,10.3-5.06,20.25-10.37,29.14-17.91,9.49-8.05,20.22-14.6,30.04-22.28,7.71-6.03,15.41-12.37,19.32-21.78,3.22-7.74,3.61-13.56-2.53-18.4-1.92-1.52-4-2.2-6.34-2.63-15.13-2.77-30.16-1.02-45.23,.73-8.37,.97-16.72,2.81-25.23,1.62-1.63-.23-4.89,.51-2.55-3.08,.99-1.52,0-2.15-1.1-2.63-1.95-.86-2.94-2.64-4.23-4.13-1.84-2.12-1.39-3.58,.82-5.32,5.64-4.46,11.8-7.01,19.09-6.85,1.94,.04,3.89-.73,5.84-1.12,.92-1.15,2.18-1.68,3.58-1.93,1.5-.18,2.95-.58,4.34-1.2,1.46-.08,2.93-.11,4.38-.31,1.57-.02,2-1.42,2.83-2.34,12.6-2.26,25.21-3.78,38.09-3.32,15.19,.54,28.13,6.24,37.61,17.62,5.93,7.12,9.26,16.19,11,25.77,1.36,7.51,1.46,15.25,.07,22.14-1.19,5.91-.22,13.12-6,18.34-2.53,2.28-5.17,6.54-4.1,11.14,.27,1.16-.4,1.8-1.27,2.44-7.23,5.34-11.78,13.21-18.21,19.32-.71,.68-1.79,1.25-.27,2.72,1.13,1.09-5.61,8.82-6.06,7.94-1.4-2.7-2.78-1.87-4.48-.79-4.32,2.75-8.62,5.52-12.95,8.26-.41,.26-.93,.33-1.4,.49-.46,.94-1.3,1.36-2.23,1.68,.2,2.43-1.23,3.45-3.33,4.13-14.14,4.59-27.27,11.95-42.11,14.73-4.31,.81-8.58,2.57-12.58,5.23-5.19,3.45-11.23,.06-16.67-.81-8.75-1.41-17.69-2.87-25.64-7.32-8.2-4.59-14.39-11.17-17.93-19.88-2.54-6.26-1.9-12.71,.45-18.99,1.33-.96-.75-3.51,1.81-3.91v-.04Z"/>
        <path class="cls-59" d="M51,119.57c-3.67,5.89-10.55,8.25-14.73,13.72-10.25,13.39-13.42,26.27-.13,40.14,.07,1.82-.83,1.79-2.08,1.1-3.85,1.03-5.92-3.4-9.53-3.11-1.4-3.05-4.46-4.82-6.01-7.76-.77-2.86,2.44-5.79-.13-8.63,.37-1.56-.27-2.86-1.09-4.11-.43-.98-.74-1.97-.61-3.05,.13-.33,.34-.6,.59-.8,.29-.05,.43-.3,.2-.5-.5-.44,.32,.04-.38,.04-1.18,.21-1.51,1.11-1.82,2.04-.16,.6-.37,1.19-.67,1.74-1.36,.62,0,1.41-.11,2.11-.12,1.24,0,2.47,.06,3.71-.05,.44-.17,.86-.34,1.26-2.8,2.74-1,5.72-.44,8.62-.33,2.03,.46,3.72,1.63,5.3,.16,.42,.21,.86,.18,1.31-.2,.68-.63,1.13-1.32,1.33-1.76,.16-2.49-1.39-3.68-2.18-.81-.37-1.74,.19-2.53-.3-5.53-12.43-5.96-25.37-3.9-38.58,2.04-13.06,7.46-24.57,14.51-35.71,9.94-15.7,21.94-29.73,34.68-42.97,12.54-13.03,28.41-21.95,44.71-29.64,11.86-5.59,23.9-11.07,36.34-15.12,15.85-5.15,31.69-11.36,49.04-9.03,19.27,2.59,25.91,11.91,25.85,30.62-.04,13.43-3.76,25.91-10.7,37.42-1.46,2.43-1.5,5.49-3.5,7.67-1.88,2.05-1.68,7.5-7.08,3.92-.84-.56-3.69,1.73-5.51,2.86-2.36,1.47-3.53,.82-5.15-1.47-5.19-7.33-2.76-14.05,.91-20.85,.02-3.46,2.6-6.12,2.98-9.47,1.74-4.9,0-9.79-.06-14.68,.25-7.38-5.99-7.92-12.6-4.79-9.44,4.47-18.56,9.73-26.78,16.58-3.31,2.76-5.82,7.2-11.12,7.95-1.97,.28-5.08,1.9-5.3,5.23-.06,.95-.73,1.47-1.64,1.57-6.33,.7-10.25,5.56-15.1,8.78-1.18,.78-3.37,1.34-1.87,3.62-2.3,1-1.95,4.95-6.74,3.96-4.01-.83-8.18,3.6-11.94,6.32-1.22,1.5-1.65,3.57-3.39,4.69-12.24,6.58-23.17,14.86-32.34,25.35-.64,.74-2.01,.5-2.19,1.76,.32,.67,.49,1.4,.85,2.05l-.02-.02Z"/>
        <path class="cls-59" d="M406.93,146.58c-6.9,5.94-13.84,11.85-20.68,17.86-1.18,1.04-3.55,1.71-3.05,3.53,.51,1.84,2.87,1.96,4.61,2.46,5.74,1.65,11.47,3.26,16.65,6.41,10.51,6.4,13.97,16.62,9.82,28.28-4.01,11.27-12.61,18.83-20.64,27-7.15,7.27-16.61,10.12-25.19,14.69-8.47,4.51-17.6,6.89-26.99,8.18-4.52,.62-9.26,1.2-13.51-1.53-2.35-.71-2.21,1.41-2.92,2.57-1.18,1.1-2.36,1.5-3.55,.02-.27-.59-.36-1.21-.24-1.82,.05-.3,.4-.87-.45-.45-.47,.75-.34,1.5-.11,2.24,.33,1,1.23,1.67,1.55,2.68,0,1.54-1.71,.98-2.27,1.83h0c-.95,.44-2.43-.43-2.93,1.16-1.21,1.4-2.78,.7-4.22,.71-2.51,.2-3.89-3.45-6.77-2l-.08,.05c-1.49-.54,.53-3.36-2.07-3.18-2.5-1.63-3.35-4.42-4.41-6.87-6.72-15.54-6.49-31.08-3.06-47.76,5.2-25.22,15.83-48.08,26.07-71.26,1.87-4.24,3.69-8.51,5.54-12.77,.94-.39,1.99-.52,2.78-1.24,2.1-1.75,2.18-4.34,2.83-6.69,.17-1.33,.65-2.62,.33-3.98-.08-.78-.62-1.53-.2-2.36,3.72-9.05,7.41-18.11,11.16-27.14,1.49-3.6,6.69-5.9,9.91-4.51,2.4,1.48,2.2-1.21,3.18-1.99,.55-.4,1.11-.79,1.66-1.19,.62-1.28,.74-2.55-.13-3.78-.97-1.67-.61-2.7,1.31-1.73,1.16,.58,2.51,1.75,1.96,3.6-1.23,2.16,.42,4.73-1,6.86-4.9,13.92-6.97,28.79-14.01,42.01-.71,1.38-.25,2.81-.21,4.23-2.39,4.83-4.56,10.17-5.49,15.07-1.42,7.45-4.85,14.43-5.09,22.1-.03,.99,.19,2.1-.18,2.94-5.42,12.18-6.57,25.57-11.1,38.07-4.33,11.96-6.2,24.71-7.47,37.45-.27,2.72-2.5,5.17-1.19,8.14,1.38,1.18,1.24-.67,1.89-.95,1.78-7.27,7.12-11.65,12.8-15.74,.4-.29,.83-.91,1.17-.86,5.63,.88,5.34-3.6,6.26-7.63,3.68,5.06,8.24,5.19,13.02,3.38,8.01-3.04,16.4-5.04,23.78-9.76,4.46-2.85,7.85-6.54,10.92-10.66,2.01-2.7,.25-4.11-1.96-5.42-4.35-2.58-9.47-2.54-14.06-4.27-.64-.73-1.45-1.26-2.16-1.9-5.6-1.19-10.56-3.4-14.44-7.89-4.47-5.16-5.3-14.17-1.63-19.99,3.51-5.57,7.97-9.69,13.78-13.18,5.92-3.55,11.93-7.19,18.06-10.07,6.73-3.17,13.63-6.55,21.1-8.07,4.94-.03,.85,2.73,1.27,4.1-.1,.33-.21,.66-.31,1-.39,.73-.98,1.28-1.59,1.81-.84,1.2,.24,1.88,.73,2.72-.31,1.99,2.32,3.35,1.19,5.52l.03-.03Z"/>
        <path class="cls-59" d="M489.76,198.41c3.82-2.45,5.61-6.9,9.41-9.44,2.05-1.37,3.81-2.06,5.69-.18,2.28,2.27,5.71,2.03,8.19,4.72,2.3,2.48,2.08,4.12,1.14,6.34-2.87,6.83-6.53,13.39-8.66,20.43-2.02,6.69-2.08,14.98,2.8,19.64,5.05,4.82,2.85,9.63,3.44,14.36,.65,5.19-3.31,7.68-8.33,6.45-1.8-.44-3.81,0-5.37-1.42-.94-.26-1.65-.7-1.46-1.86,0-.3,0-.6,.01-.91-2.69-.28-5.9,1.13-7.61-2.33-4.28-3.26-10.63-4.91-9.5-12.36,.26-1.7-1.37-1.25-2.05-1.24-6.1,.04-8.03,1.02-12.57,6.02-1.28,.79-2.8,1.03-4.08,1.81-4.55,1.06-7.9,5.09-12.84,5.2-.95,.76-2.11,1.07-3.19,.68-1.76-.63-.31,1.03-.92,1.14-1.31,.75-2.61,.35-3.91-.02-1.65-1.27-3.36,.31-5.02-.11-4.59-2.14-7.84-6.14-11.44-9.37-2.45-2.19-4.21-6.48-4.52-10.52-.84-1.31-.87-2.63-.05-3.96-.18-7.5,.59-14.87,3.21-21.96-.51-2.1-.34-4.11,.74-6.02-.41-2.77-.1-5.74,2.1-7.31,5.77-4.11,8.78-10.71,11.59-16.24,3.19-6.28,6.41-12.29,11.19-17.21,12.22-12.59,25.58-23.87,43.01-28.48,14.71-3.89,25.78,6.36,24.06,21.55-.22,1.92-.11,3.91-3.05,2.21-.68-.4-2.04-.26-2.77,.17-1.9,1.12-2.48,6.76-6.05,1.58-4.02,2.13-5.06-1.61-6.67-3.64-2.56-3.25-4.69-.59-6.37,.51-9.75,6.45-18.37,14.14-25.81,23.26-9.8,12.03-14.05,26.39-18.06,40.89-.33,1.21-.04,2.59-.04,3.92,2,.61,1.39-2.09,2.81-2.11,1.26,.85,2.47,1.86,4.17,1.41,.74,.05,1.17,.49,1.41,1.15,.17,.91-.2,1.69-.62,2.46-.4,.77-.66,1.56-.41,2.43,.44,.85,1.21,1.07,2.07,1.14,1.69,.05,2.89-.87,4.02-1.95,1.15-.91,2.55-1.46,3.58-2.54,.3-.3,.64-.55,1-.76,1.51-.63,3.23-.84,4.42-2.14,1.34-1.35,3.16-2.14,4.29-3.72,.61-1.26-.44-2.35-.37-3.55,.11-1.41,1.36-1.81,2.21-2.48-.48-.29-.46,.42-.8,.38-1.03,.51-2.03,1.03-3.09,.13-.22-.46-.18-.89,.13-1.29-.67-1.99-1.54-3.72,1.28-5.21,4.51-2.39,9.09-4.87,11.79-9.58,.96-1.67,2.65-.7,4.02-.89,.59,.35,.63,1.98,1.88,.81h-.03Z"/>
        <path class="cls-59" d="M240.04,213.67c-.91-3.37,.61-4.94,3.6-6.58,3.87-2.14,7.88-4.49,10.23-8.61,1.84-1.31,2.96-.13,4.05,1.17,4.39-2.69,6.7-7.5,10.8-10.54,2.21-1.64,3.89-2,6.05-.19,2.39,2.02,5.65,2.23,8.16,4.63,2.37,2.27,2.06,4.17,1.03,5.97-3.56,6.18-5.35,13.09-8.15,19.57-2.48,5.74-2.83,12.57,1.64,18.31,1.14,1.47-.46,3.72,1.47,4.93,1.68,.42,1.2,2.22,2.04,3.17,2.41,8.69,1.01,13.57-4.87,16.9-.56-1.42-1.62-2.01-3.12-1.88-1.82,.42-3.51,.21-5-1.02-.21-.92-2.61,.12-1.65-1.85-1.96-2.85-5.71-1.96-8.21-4.04-2.59-2.16-5.93-3.41-8.19-6.09-.73-.55-.4-1.51-.83-2.17-.02-.95-.05-1.9-.07-2.85-.14-1.21-1.28-1.37-2.04-1.92-1.87,.1-3.72,2.46-5.67,.04-.08-.1-1.61,.58-2,1.2-4.21,6.67-12.21,7.15-18.17,10.96-3.23,2.06-7.92,1.82-11.95,2.63-2.41-.56-5.27,.59-7.16-1.91-3.58-1.7-6.98-4.84-8.6-7.5-2.59-4.26-5.71-8.78-4.93-15.17,.78-6.38,1.07-12.83,2.62-19.13,1.06-1.57-.34-3.62,1.01-5.12,1.28-1.22,.84-2.81,.54-4.11-.97-4.15,2.32-5.86,4.33-8.39,.98-1.23,3.04-1.52,3.08-3.53,.45-2.55,1.5-4.74,3.74-6.22,3.65-7.7,7.25-15.41,13.45-21.52,12.62-12.44,25.93-23.95,43.57-28.61,10.44-2.76,18.36,1.2,22.13,10.23,1.44,3.44,1.53,7.12,1.51,10.77-.01,2.3-.61,4.22-3.69,3-.55-.22-1.49-.31-1.84,0-1.95,1.73-2.4,4.71-6.91,2.2-2.32-1.29-4.48-2.57-6.23-4.49-2.19-2.4-4.16-.56-5.7,.46-10.87,7.22-20.42,15.79-28.24,26.41-8.56,11.62-12.64,24.92-16.03,38.58-.58,2.68-.54,2.81,1.05,3.05,1.53-3.2,3.33-1.78,5.14-.31,.81-.06,1.21,.42,1.49,1.08,.09,.43,.07,.87-.03,1.3,0,1.44-2.5,1.4-1.88,3.2,.52,.82,.97,1.69,1.91,2.13,.96,.41,1.91,.38,2.85,0,1.08-.53,2.11-1.14,3.06-1.87,.8-.65,1.38-1.48,1.94-2.34,.51-.74,1.1-1.38,1.93-1.77,.76-.34,1.59-.45,2.35-.75,5.4-2.12,6.49-4.3,4.92-9.8-.39-.46-.82-.91-.5-1.59l-.03-.02Z"/>
        <path class="cls-115" d="M231.76,286.73v12.26c0,10.98,.02,21.97,0,32.95,0,1.57,.52,3.61-2.19,3.49-2.43-.1-1.76-2.02-1.77-3.35-.04-17.47-.04-34.95,0-52.42,0-1.36-.69-3.19,1.47-3.69,2.18-.51,2.84,1.11,3.51,2.69,6.02,14.22,12.06,28.43,18.09,42.64,.57,1.34,1.17,2.68,2.21,5.04,.87-5.09,.07-9.07,.07-13.04,0-10.98-.04-21.97,.04-32.95,.01-1.6-1.05-4.17,1.8-4.34,3.12-.18,1.95,2.54,1.96,4.06,.08,17.14,.07,34.28,0,51.42,0,1.41,1,3.56-1.68,3.93-2.33,.33-2.62-1.64-3.25-3.07-5.68-12.92-11.62-25.73-16.52-38.99-.86-2.32-1.96-4.55-2.94-6.82-.27,.06-.54,.11-.81,.17v.02Z"/>
        <path class="cls-105" d="M513.89,303.09c-.24,9.04-.28,16.37-2.83,23.37-2.51,6.89-7.03,10.11-13.82,9.96-6.7-.15-10.89-3.16-12.75-10.38-3.37-13.07-3.37-26.3-.15-39.43,1.33-5.45,4.42-9.68,10.25-11.09,8.54-2.05,14.71,1.57,17.19,10.04,.47,1.59,.86,3.23,1.03,4.87,.49,4.79,.84,9.59,1.1,12.67h-.02Z"/>
        <path class="cls-27" d="M437.89,305.46v-25.95c0-1.68-.24-3.57,2.25-3.57,4.48,0,9.04-.66,13.4,.67,4.78,1.45,8.04,4.8,9.32,9.6,3.59,13.5,3.42,27.02-1.35,40.19-2.52,6.97-8.21,9.41-15.51,9.15-8.1-.28-8.11-.05-8.11-8.13v-21.96Z"/>
        <path class="cls-107" d="M429.47,304.99c0,8.33-.15,16.65,.08,24.97,.09,3.15-1.14,4.63-3.99,5.18-1.96,.38-3.91,.85-5.89,1.08-13.47,1.56-19.43-3.42-19.69-16.97-.26-13.15-.1-26.31-.06-39.46,0-1.47-.84-3.76,1.83-3.81,3.1-.06,2,2.52,2.02,4.08,.13,13.32-.03,26.64,.25,39.96,.23,11.19,10.17,16.58,20.18,11.32,2.27-1.19,1.56-3.09,1.56-4.78,.05-14.82,.03-29.64,.03-44.46v-3c.01-1.49-.23-3.27,2.07-3.12,1.99,.12,1.6,1.78,1.6,3.05,.02,8.66,.01,17.32,.01,25.97h0Z"/>
        <path class="cls-120" d="M158.72,305.87c0-8.66,.11-17.32-.06-25.97-.06-2.99,.74-4.39,3.9-4.04,1.64,.18,3.33,.02,4.99,.03,9.78,.05,14.37,3.39,16.67,13.04,2.79,11.71,2.29,23.49-1.22,34.97-2.99,9.79-12.94,14.56-22.76,11.56-2.25-.69-1.48-2.33-1.49-3.63-.08-8.66-.04-17.31-.04-25.97h0Z"/>
        <path class="cls-81" d="M187.79,332.5c.99-3.54,2.08-7.37,3.15-11.2,3.9-14.07,7.77-28.15,11.7-42.21,.37-1.32,.07-3.39,2.11-3.5,2.49-.13,1.99,2.16,2.41,3.63,4.9,17.24,9.84,34.48,14.57,51.77,.34,1.23,2.66,3.53-.42,4.38-2.9,.8-2.96-1.81-3.51-3.67-1.27-4.26-.72-10.07-4.03-12.44-3.48-2.49-9.02-.36-13.62-.83-3.48-.35-5.1,.75-5.68,4.32-.61,3.75-1.93,7.38-2.93,11.06-.37,1.37-1.29,1.82-2.63,1.66-1.97-.24-1.07-1.6-1.13-2.96h0Z"/>
        <path class="cls-100" d="M294.19,305.59c0-8.66,.1-17.32-.06-25.98-.05-2.83,.83-3.86,3.67-3.77,4.99,.16,9.99,.01,14.99,.07,1.21,.01,2.94-.5,3.05,1.54,.11,2.18-1.56,2.19-3.12,2.19-3.66,0-7.33,.09-10.99-.03-2.36-.08-3.73,.35-3.62,3.22,.2,4.99,.17,9.99,0,14.98-.08,2.46,.89,3.24,3.2,3.12,2.49-.12,5.02-.22,7.49,.04,1.71,.18,4.69-1.37,4.82,1.71,.15,3.28-2.92,1.7-4.56,1.88-2.47,.27-5,.21-7.48,.03-2.56-.18-3.54,.65-3.47,3.35,.17,6.82,.17,13.66,0,20.48-.07,2.73,.95,3.43,3.47,3.33,3.82-.16,7.66-.06,11.49-.03,1.29,.01,2.87-.26,2.77,1.84-.09,1.88-1.47,1.92-2.86,1.92-5.33,0-10.66-.11-15.99,.04-2.74,.08-2.84-1.42-2.83-3.46,.05-8.83,.02-17.65,.02-26.48h0Z"/>
        <path class="cls-26" d="M351.03,275c2.38,.34,4.93,.12,7.23,1.33,1.32,.7,3.06,1.34,2.2,3.23-.78,1.71-2.22,.68-3.45,.26-3.52-1.2-7.08-1.77-10.77-.71-5.65,1.62-7.72,5.82-5.17,11.1,2.91,6,8.36,9.86,12.98,14.33,6.32,6.13,8.68,13.18,6.95,21.69-.98,4.83-3.91,8.01-8.65,9.35-5.33,1.51-10.54,1.28-15.36-1.73-1.35-.85-1.48-2.25-.69-3.5,.8-1.28,1.7-.14,2.54,.19,7.79,3.1,13.7,2.39,16.87-2.03,3.59-5.01,2.5-13.19-2.68-18.81-4.05-4.4-8.37-8.56-12.38-13-3.87-4.28-6.42-9.22-3.65-14.98,2.76-5.75,8.23-6.69,14.04-6.74v.02Z"/>
        <path class="cls-81" d="M287.8,328.59c1.26,3.12-.59,4.39-2.43,5.58-7.68,4.95-17.25,1.97-19.45-7.1-3.5-14.4-3.59-29.08,1.42-43.27,2.45-6.93,8.69-9.83,15.65-8.37,1.66,.35,3.17,.99,4.29,2.33,.7,.84,1,1.81,.37,2.73-.65,.95-1.47,.17-2.21-.06-8.84-2.82-12.74-1-15.43,7.72-3.15,10.22-2.96,20.78-1.66,31.19,1.6,12.88,7.58,15.56,19.44,9.25h0Z"/>
        <path class="cls-36" d="M377.89,307.39c0-7.65-.27-15.32,.11-22.95,.21-4.2-1.33-5.26-5.08-4.81-1.8,.22-3.66,.05-5.49,.03-1.16-.01-2.41,.11-2.46-1.65-.05-1.52,.79-2.11,2.13-2.11,8.65-.02,17.31-.01,25.96-.01,1.11,0,1.92,.39,2.01,1.65,.11,1.5-.65,2.12-2.07,2.11-.83,0-1.66,0-2.5,.01-5.81,.05-8.71,3.07-8.71,9.05,0,14.14,.03,28.28-.05,42.43,0,1.56,1.1,4.14-1.86,4.26-3.18,.14-1.92-2.56-1.94-4.06-.13-7.98-.06-15.97-.06-23.96h0Z"/>
        <path class="cls-82" d="M475.13,305.2c0,8.82,.04,17.64-.04,26.46-.01,1.44,.88,3.68-1.84,3.79-3.14,.12-2.15-2.39-2.15-3.96-.06-17.14-.05-34.28-.02-51.43,0-1.69-.66-4.17,2.19-4.08,3.02,.09,1.78,2.73,1.8,4.26,.12,8.32,.06,16.64,.06,24.96h0Z"/>
        <path class="cls-116" d="M240.92,214.49c.7,.55,4.63-1.72,1.73,1.98-.23,.29-1.7,.32-.34,.99,4.95,2.45,.57,3.78-.76,4.98-2.37,2.13-4.58,5-8.5,3.92-3.13,.04-5.71,2.9-9.07,1.75-.68-.28-1.23-.64-.93-1.52,.05-.27,.07-.54,.06-.82,.42-1.52,1.86-2.17,2.81-3.24,.35,0,.7-.02,1.05-.03,1.66-1.29,3.7-1.98,5.35-3.3,.97-.77,2.05-1.43,2.56-2.64,.38-.03,.77-.05,1.15-.08,1.46-1.09,3.28-1.3,4.89-2.01v.02Z"/>
        <path class="cls-96" d="M17,286.48c.34,.33,.68,.67,1.02,1,1.14,.67-.77,3.44,2.04,2.95,.3,.72,.6,1.44,.9,2.16,.38,.24,.49,.56,.33,.98-.53,.89-1.51,1.24-2.25,1.89-2.73,.32-5.13-.83-7.39-2.03-2.91-1.53-2.5-3.01,.52-3.96,.27-.27,.53-.54,.8-.81,.85-.97,1.59-2.06,2.87-2.54,.45-.1,.84,0,1.16,.34v.02Z"/>
        <path class="cls-49" d="M330.99,118.39c-.85,1.75-1.93,.57-2.94,.22,1.81-4.8,2.67-9.98,5.75-14.27,.39,.7,.78,1.4,1.17,2.1-.47,1.59-.94,3.18-.75,4.87-1.59,2.13-1.1,5.2-3.23,7.09h0Z"/>
        <path class="cls-23" d="M17,286.48h-.86c-1.11,.44-2.21,.79-3.33,.03-1.76-6.06-1.59-6.29,4.28-6.02-.94,1.99-.35,3.99-.08,5.99h-.01Z"/>
        <path class="cls-109" d="M71.04,167.54c-1.27,.07-2.62,.6-4.18-1.08,4.3-2.58,8.84-1.72,13.2-1.8,.26,.45,.26,.91,.01,1.36-.5,.58-1.12,.93-1.9,.99-2.32,.92-4.84-.86-7.13,.52h0Z"/>
        <path class="cls-38" d="M406.93,146.58c-.15-1.89-2.31-2.97-2.03-5.03-.68-1.37-1-2.75,.02-4.11,.55-.3,1.11-.61,1.66-.91,.42,.38,.83,.77,1.25,1.15,.49,.12,.84,.42,1.05,.88-.65,2.67-1.31,5.35-1.96,8.02h.01Z"/>
        <path class="cls-63" d="M321.91,255.44c1.04,1.7,1.91,.25,2.83-.15,.52-.38,1-.33,1.42,.16,.65,.48,2.4,1.06,1.01,1.78-1.87,.97-1.71,3.1-3.24,4.04-.72-.9-1.2-2-2.27-2.59-1.22-.19-1.73-.96-1.73-2.14,.34-.93,.9-1.48,1.97-1.1h0Z"/>
        <path class="cls-64" d="M11.06,170.37c1.27,.83,1.09,2.85,2.76,3.36,1.51,.79,2.67,1.79,2.37,3.73-2.19,1.27-3.72,.17-5.11-1.43-.12-1.88-3.49-3.76-.02-5.66Z"/>
        <path class="cls-127" d="M19.18,163.48c2.91,1.88,3.73,5.18,5.35,7.93-1.04-.29-2.09-.57-3.14-.86-.46-.06-.85-.27-1.16-.62-1-1.73-1.97-3.48-3.35-4.95-.08-.22-.14-.43-.22-.65,.03-.23,.07-.45,.1-.68,.3-.37,.69-.58,1.16-.67,.47,.04,.89,.2,1.25,.51h.01Z"/>
        <path class="cls-71" d="M181.92,51.65c-.08,3.46-1.45,6.4-3.67,8.99-.41-.01-.82-.02-1.23-.04-1.48-2.07,.62-3.37,1.07-5.02,.59-.97,.99-2.05,1.55-3.04,.36-.64,.91-1,1.63-1.12,.22,.08,.43,.15,.65,.23h0Z"/>
        <path class="cls-121" d="M181.17,36.5c.28,5.05,3.64,9.95,.75,15.16l.07,.02c-1.77-1.38,.04-3.36-.82-4.89v-10.29Z"/>
        <path class="cls-72" d="M201.99,253.49c2.24,1.2,5.01,.39,7.16,1.91-3.53,3.63-5.62,1.88-7.16-1.91Z"/>
        <path class="cls-10" d="M306.06,260.41c3.37-3.11,4.65,.86,6.77,2-3.23,2.64-4.61-1-6.77-2Z"/>
        <path class="cls-85" d="M233.04,219.6c-1.53,2-3.61,2.86-6.08,2.92,.5-2.7,2.73-3.35,4.86-4.11,1.14-.34,1.41,.18,1.22,1.19h0Z"/>
        <path class="cls-80" d="M489.02,254.22c2.54,.78,5.07,1.56,7.61,2.33-2.83,.19-6.65,3.6-7.61-2.33Z"/>
        <path class="cls-78" d="M16.19,177.45c-.79-1.24-1.58-2.49-2.37-3.73,.4-.41,.81-.82,1.21-1.23,.31-.31,.67-.4,1.09-.28,.73,.36,1.08,1.2,1.86,1.5,1.68,2.34,.69,3.39-1.79,3.73h0Z"/>
        <path class="cls-41" d="M203.79,184.31c-1.25,2.07-2.49,4.15-3.74,6.22-.65-3.21-.11-5.71,3.74-6.22Z"/>
        <path class="cls-49" d="M457,221.54c.99-2.76,3.87-2.22,5.81-3.33,.4,.34,.62,.77,.66,1.29-.61,2.68-2.5,3.58-5.02,3.59-.79-.23-1.28-.75-1.44-1.56h-.01Z"/>
        <path class="cls-34" d="M406.91,135.53c-2.08-.85,1.72-3.52-1.27-4.1,.42-.33,.83-.66,1.25-.99,1.14-.08,2.78-1.5,2.94,1.08,.47,2.39-1.32,3.13-2.92,4.01h0Z"/>
        <path class="cls-98" d="M422.86,203.51c.22,2.06,.27,4.11-.74,6.02-3.87-2.51-.81-4.17,.74-6.02Z"/>
        <path class="cls-126" d="M84.68,90.41c.48-2.03,.77-4.2,3.39-4.69,1.54,3.49-.59,4.33-3.39,4.69Z"/>
        <path class="cls-60" d="M181.17,46.79c1.44,1.43,.73,3.23,.82,4.89-.54,.35-1.08,.7-1.63,1.05-.56,.37-1.07,.31-1.53-.17,.78-1.92,1.56-3.84,2.33-5.76h0Z"/>
        <path class="cls-35" d="M90.1,162.64c.11,2.17-1.05,3.05-3.09,3.04-1.51,.71-2.41-.05-3.11-1.29,1.87-1.27,4.43-.11,6.2-1.75Z"/>
        <path class="cls-88" d="M178.76,55.49c-.58,1.71-1.16,3.41-1.74,5.12-1.2,.13-2.68,.31-1.92-1.59,.66-1.65,1.77-3.12,2.69-4.67,.74,.03,.8,.63,.98,1.14h0Z"/>
        <path class="cls-39" d="M11.06,170.37c-2.17,1.89,.93,3.76,.02,5.65-1.27-1.32-3.01-2.32-3.03-4.48,1.09-.17,1.12-3.03,3-1.17h.01Z"/>
        <path class="cls-30" d="M470.79,213.28c.04,.42,.08,.85,.11,1.27-.41,2.94-2.34,3.58-4.91,3.27-.63-.64-.67-1.29-.06-1.97,1.62-.86,3.24-1.71,4.86-2.57h0Z"/>
        <path class="cls-52" d="M443.86,255.46c-.16-.66-2.6-1.59,.18-1.88,1.3-.14,2.62,.03,3.94,.06-.47,2.65-2.56,1.64-4.11,1.82h-.01Z"/>
        <path class="cls-37" d="M21.09,170.05c.08,.18,.18,.35,.31,.5-.33,1.32-1.03,1.79-2.27,.97-.87,.42-1.43-.07-1.94-.68-.69-1.13-1.1-2.27-.21-3.49,2.8-1.3,2.36,2.38,4.12,2.69h-.01Z"/>
        <path class="cls-110" d="M71.04,167.54c2.49-1.68,5.31-.83,7.99-1.05,.25,.23,.32,.45,.24,.68-.09,.22-.17,.33-.26,.33-1.35,.31-2.69,.61-4.04,.92-1.07-1.39-2.61-.67-3.94-.88h.01Z"/>
        <path class="cls-53" d="M358.05,70.7c.29,1.64,.36,3.54-1.29,4.21-1.28,.52-.96-1.68-1.89-2.22,1.06-.66,2.12-1.33,3.18-1.99h0Z"/>
        <path class="cls-50" d="M457,221.54c.3,.23,.6,.45,.9,.68-.46,2.15-1.51,3.59-3.99,3.32-.43-.42-.86-.84-1.29-1.25-.21-.35-.13-.63,.22-.83l4.16-1.92Z"/>
        <path class="cls-2" d="M225.91,222.54c.02,1.91-1.1,2.82-2.81,3.24-.37-.56-.73-1.13-1.1-1.69,.95-1.4,2.34-1.68,3.9-1.55h.01Z"/>
        <path class="cls-79" d="M434.92,255.34c1.71-1.57,3.38-1.34,5.02,.11-1.04,.14-2.05-.02-2.96,.98-1.6,1.76-1.91,.33-2.06-1.09Z"/>
        <path class="cls-129" d="M280.94,245.5c-.68-1.06-1.36-2.12-2.04-3.17,.09-.63-.05-1.51,.32-1.85,.72-.67,1.08,.25,1.4,.72,.92,1.36,.5,2.85,.33,4.3h0Z"/>
        <path class="cls-76" d="M460.81,248.45c.59-2.35,2.22-2.33,4.08-1.81-.85,1.76-1.66,3.61-4.08,1.81Z"/>
        <path class="cls-91" d="M347.64,120.69c-.58,.22-1.65,1.12-1.32-.43,.28-1.29,.28-2.84,1.52-3.8-.27,1.4,1.91,2.92-.21,4.23h.01Z"/>
        <path class="cls-24" d="M408.9,138.56c-.35-.29-.7-.59-1.05-.88,1.49-.92,2.99-1.92,4.54,.11-1.05,1.31-2.4,.46-3.49,.77h0Z"/>
        <path class="cls-69" d="M83.9,164.39c1.04,.43,2.08,.86,3.11,1.29-1.39,1.61-2.69,.43-4-.14-1,.7-1.99,.88-2.96-.07v-.81c1.28-.09,2.56-.19,3.84-.28h.01Z"/>
        <path class="cls-93" d="M34.06,174.52c.81-.14,1.67-.2,2.08-1.1,1.21,.37,2.59,.43,3.43,1.85-2.09,.86-3.88,.68-5.52-.76h.01Z"/>
        <path class="cls-19" d="M240.92,214.49c-1.35,1.35-2.84,2.36-4.89,2.01,.63-1.95,2.74-1.8,4.02-2.83,.29,.27,.58,.55,.88,.82h-.01Z"/>
        <path class="cls-42" d="M359.59,65.73c2.14,1.19,1.87,2.46,.13,3.78-.16-1.26-2.07-2.45-.13-3.78Z"/>
        <path class="cls-42" d="M361.86,74.45c.34-2.28-.79-4.78,1-6.86-.15,2.31,.85,4.79-1,6.86Z"/>
        <path class="cls-108" d="M119.9,296.4c.43-.97,1.23-1.45,2.23-1.68,.27,.69,1.79,.8,1.18,1.77-1.05,1.67-2.27,.37-3.41-.09h0Z"/>
        <path class="cls-61" d="M51,119.57c-1.81-.05-1.55-.96-.85-2.05,.85,.12,2.04-.24,2.33,.86,.28,1.06-.76,1.06-1.48,1.18h0Z"/>
        <path class="cls-104" d="M409.83,131.52c-.59-1.41-1.85-1.01-2.94-1.08,1.02-.93,2.13-2.18,3.54-1.19,.86,.61,.32,1.69-.61,2.27h0Z"/>
        <path class="cls-103" d="M489.76,198.41c-.37,1.24-1.12,2.07-2.74,2.4,.33-1.21,.6-2.21,.86-3.21,1.39-1.49,.99,1.15,1.88,.81h0Z"/>
        <path class="cls-48" d="M465.94,215.85l-.04,1.62c.2,2.3-1.31,2.33-2.93,2.21-.05-.49-.1-.98-.15-1.47,.96-.9,1.52-2.33,3.13-2.36h-.01Z"/>
        <path class="cls-101" d="M418.91,231.49c.02,1.32,.04,2.64,.05,3.96-2.16-1.29-4.38-2.58-.05-3.96Z"/>
        <path class="cls-20" d="M18.01,170.52c.37,.34,.74,.67,1.11,1.01-.38,.73-.76,1.46-1.15,2.19-1.66,1.27-1.79,.04-1.93-1.18,.22-1.1,.25-2.38,1.96-2.02h0Z"/>
        <path class="cls-56" d="M257.92,199.64c-1.52,.19-2.43-1.73-4.05-1.17,1.82-1.25,3.67-2.59,4.05,1.17Z"/>
        <path class="cls-43" d="M249.06,245.35c.28,.72,.55,1.45,.83,2.17-.94,.28-2.04,1.67-2.76-.13-.73-1.82,1.66-.99,1.93-2.04h0Z"/>
        <path class="cls-83" d="M266.3,257.66c.55,.62,1.1,1.23,1.65,1.85-1.43-.7-1.32,2.67-2.68,1.17-.67-.74-.78-2.5,1.03-3.02h0Z"/>
        <path class="cls-68" d="M321.66,258.67c2.11-.32,2.3,1.04,2.27,2.59-1.37,.02-2.49-1.29-3.96-.73,.56-.62,1.13-1.24,1.69-1.86Z"/>
        <path class="cls-70" d="M319,243.5c-.08,1.27-.16,2.54-.25,3.84-2.2-.26-1.92-1.57-1.64-2.89,.63-.32,1.26-.63,1.89-.95h0Z"/>
        <path class="cls-13" d="M3.9,269.58c-1.26,1-.18,3.08-1.81,3.91,.12-1.39,.03-2.85,.44-4.14,.34-1.07,1.07-.84,1.38,.24h-.01Z"/>
        <path class="cls-83" d="M496.62,257.46c.49,.62,.97,1.24,1.46,1.86-1.12,.01-1.09,2.47-2.31,1.4-.54-.47-.32-2.38,.86-3.26h0Z"/>
        <path class="cls-117" d="M317.05,261.69c-.08-.94-.09-1.97,.85-2.43,1.18-.59,1.24,1.06,2.08,1.27-.71,1.06-1.88,.95-2.93,1.16Z"/>
        <path class="cls-68" d="M326.17,255.44c-.47-.05-.95-.1-1.42-.16,.37-1.82,.48-4.13,3.2-1.83-1.03,.27-1.48,1.06-1.78,1.98h0Z"/>
        <path class="cls-92" d="M12.8,286.51c1.1-.63,2.21-.7,3.33-.03-.65,1.31-1.72,2.02-3.16,2.2-.06-.72-.12-1.45-.17-2.17Z"/>
        <path class="cls-31" d="M452.85,223.46c-.04,.29-.11,.56-.22,.83-2.19,1.55-2.81-.51-3.83-1.66,1.54-.64,2.63,.86,4.04,.83h0Z"/>
        <path class="cls-55" d="M303.91,257.28c3.79-.96,1.43,2.08,2.07,3.18-2.04-.18-.77-2.52-2.07-3.18Z"/>
        <path class="cls-45" d="M178.76,55.49c-.33-.38-.65-.76-.98-1.14,.35-.6,.7-1.2,1.05-1.8,.51,.06,1.02,.12,1.53,.17-.53,.92-1.07,1.85-1.6,2.77Z"/>
        <path class="cls-4" d="M233.04,219.6c-.41-.4-.81-.8-1.22-1.19,1.02-.61,2.03-1.22,3.05-1.83,.57,1.72-.71,2.33-1.83,3.02Z"/>
        <path class="cls-114" d="M24.91,278.43c.13,.68,.04,1.44-.64,1.59-1.21,.28-1.6-.74-1.99-1.63,.88,.01,1.75,.03,2.63,.04Z"/>
        <path class="cls-66" d="M192.1,206.56c-.06,1.76,.55,3.66-1.01,5.12,.2-1.74-.91-3.73,1.01-5.12h0Z"/>
        <path class="cls-54" d="M216.86,224.4c-.1,.77-.69,1.2-1.19,.69-1.18-1.2-.61-2.52,.14-3.74,.35,1.02,.7,2.04,1.05,3.05Z"/>
        <path class="cls-124" d="M246.95,240.58c.67,.65,4.07-1.59,2.04,1.92l-2.04-1.92Z"/>
        <path class="cls-5" d="M413.61,126.95c.75-.44,1.5-.89,2.4-1.42,.19,2.37-1.17,1.77-2.4,1.42Z"/>
        <path class="cls-125" d="M272.95,260.52c1.48-.1,3.49-1.09,3.12,1.88-1.36-.09-2.36-.78-3.12-1.88Z"/>
        <path class="cls-13" d="M5.04,275.49c-1.67-1.46-.9-3.35-.92-5.11,1.34,1.52,.77,3.38,.92,5.11Z"/>
        <path class="cls-86" d="M368.77,190.64c1.46-.2,2.09,.53,2.16,1.9-1.35,.08-2.88,.36-2.16-1.9Z"/>
        <path class="cls-32" d="M21.05,293.33c-.1-.24-.13-.48-.08-.73,2.85-.09,2.18,3.2,3.95,4.22,.25,.14,.48,1.83-.61,1.93-1.57,.15-2.86-.59-3.33-2.29-.21-1.05-1.04-2.11,.07-3.13h0Z"/>
        <path class="cls-111" d="M20.06,290.44c-1.87-1.14-2.33,2.25-4.37,1.26-.01-1.85,3.14-2.05,2.33-4.21,1.33,.54,2.03,1.5,2.04,2.95h0Z"/>
        <path class="cls-21" d="M19.93,280.55c1.04,1.05,1.3,2.05,.59,3.36-1.42-.91-1.71-1.9-.59-3.36Z"/>
        <path class="cls-18" d="M80.05,165.48c.99,.02,1.97,.04,2.96,.07-.64,2.06-2.29,2.08-4,1.96,0-.34,.01-.67,.02-1.01,.34-.34,.68-.68,1.02-1.02h0Z"/>
        <path class="cls-5" d="M24.12,287.97c-.7-.31-1.61-.49-1.58-1.48,.03-.78,.63-1.1,1.31-.75,.63,.33,1.69,.37,1.64,1.38-.04,.7-.62,1.04-1.37,.85Z"/>
        <path class="cls-14" d="M21.05,293.33c-.45,1.03,1.2,2.12-.07,3.13-.64-.33-1.29-.66-1.93-.99-.3-1.62,.48-2.22,2-2.14Z"/>
        <path class="cls-116" d="M19.18,163.48c-.37,.03-.74,.05-1.11,.08-.32-.37-.65-.36-.99-.02l-.1,.04c-4.08-.66-4.54-1.81-2.82-7l-.02,.07c.39-.67,1.04-1.22,.98-2.1-.52-1.4-1.04-2.8-.12-4.25,.46-.15,.92-.14,1.38,0,.88,1.5,3.96,1.63,2.75,4.42,4.16,2.89,.32,5.83,.05,8.75h0Z"/>
        <path class="cls-102" d="M14.17,156.58c.43,2.54-.98,5.82,2.82,7,0,.3,.04,.58,.14,.86,.76,1.03,.39,2.08,.04,3.12,.28,.98,.56,1.97,.84,2.95-.65,.67-1.31,1.34-1.96,2.02-.34,0-.68-.03-1.02-.04,0-.35-.01-.71-.02-1.06-1.36-1.43-1.84-3.2-1.97-5.1-1.79-3.5-3.67-7.02,1.13-9.75Z"/>
        <path class="cls-118" d="M10.16,149.38c1.45,2.59,1.07,5.2,.19,8.75-1.8-2.54-.92-4.7-1.28-6.6-.06-.93,.21-1.7,1.09-2.15Z"/>
        <path class="cls-15" d="M10.16,149.38c-.12,.84-.23,1.69-1.09,2.15-1.03-.4-2.46-.72-1.78-2.2,.41-.89,1.5-1.47,2.29-2.18,.19,.75,.38,1.49,.58,2.24h0Z"/>
        <path class="cls-51" d="M16.06,150.76l-.49-.1-.49,.11c-.44,.22-.8,.13-1.07-.28,.04-.68,.09-1.36,.13-2.04,.78-1.16,1.63-2.05,3.02-.76,.47,.9,1.17,1.73,.87,2.86-.6,.63-1.28,.52-1.98,.21h0Z"/>
        <path class="cls-102" d="M17.03,154.61c0,2.05-1.74,1.62-2.88,2.04-.61-1.34-1.88-2.63-.26-4.11,.74,1.15,2.02,1.5,3.14,2.07Z"/>
        <path class="cls-95" d="M13.04,166.34c1.35,1.43,1.52,3.32,1.97,5.1-2.57-.96-3.37-2.6-1.97-5.1Z"/>
        <path class="cls-9" d="M18.05,142.56c-.82,1.78-2.01,1.34-3.07,.37-.75-.69-.45-1.53,.33-2.04,2.01-1.3,1.7,1.3,2.73,1.66h.01Z"/>
        <path class="cls-90" d="M17.17,147.69c-1.01,.25-2.02,.51-3.02,.76-.04-2.74,1.71-3.12,3.88-2.94,.6,.57,.62,1.17,.1,1.81-.32,.12-.63,.25-.95,.37h-.01Z"/>
        <path class="cls-9" d="M16.06,150.76c.66-.07,1.32-.14,1.98-.21,.72,1.3,3.11,2.16,1.09,4.17,.08-2.18-2.38-2.38-3.07-3.96h0Z"/>
        <path class="cls-9" d="M17.03,154.61c-1.43-.1-3.28,.42-3.14-2.07,.57-.65-1.16-1.44,.13-2.04,.36,.09,.71,.19,1.07,.28-.51,1.87,1.13,2.64,1.94,3.83Z"/>
        <path class="cls-17" d="M18.05,142.55c.22-1.1,.74-1.92,1.94-1.23,.41,.23,.81,1.38,.63,1.58-.9,1-1.72-.07-2.57-.34h0Z"/>
        <path class="cls-11" d="M18.13,147.32c-.03-.6-.06-1.2-.1-1.81,.85,.07,2.19-.45,2.26,.8,.07,1.27-1.21,1.13-2.16,1.01Z"/>
        <path class="cls-94" d="M323.91,164.53c1.7-1.71,1.02-4.58,2.97-6.17,1.1,.48,1.65,1.23,1.23,2.46-.76,2.19-.29,4.91-2.77,6.35-.43,.03-.79-.12-1.08-.43-.45-.68-.96-1.36-.35-2.21h0Z"/>
        <path class="cls-16" d="M330.99,118.39c.5-2.84,1.13-5.63,3.15-7.86,.19,0,.38,.02,.57,.03-1.12,2.67,.45,6.62-3.72,7.83Z"/>
        <path class="cls-89" d="M325.02,166.68c.09,.18,.2,.35,.33,.5,2.29,2.35,.94,3.5-1.42,4.33-.39-.2-.67-.51-.83-.91-.03-1.02-.07-2.04-.1-3.06,.43-.87,.89-1.65,2.03-.86h0Z"/>
        <path class="cls-33" d="M387.05,147.55c1.45-1.3,2.53-2.53,4.08-1.02,.27,.26,.41,1.15,.23,1.3-1.27,1.07-2.61,1.07-4.32-.28h.01Z"/>
        <path class="cls-97" d="M330.62,146.7c.16,.47,.25,.97,.49,1.4,.48,.86,1.24,1.71,.07,2.55-.33,.24-.97,.37-1.31,.21-1.14-.51-1-1.63-.83-2.58,.11-.59,.59-1.11,.91-1.66,.28-.48,.51-.45,.68,.08h-.01Z"/>
        <path class="cls-65" d="M321.91,255.44c-.66,.37-1.32,.73-1.97,1.1-1.02-1.55-1.82-3.06,.8-3.85,.53,.12,1.1,.17,1.32,.8-.05,.65-.09,1.3-.14,1.96h0Z"/>
        <path class="cls-47" d="M323.09,170.6c.28,.3,.56,.61,.83,.91-.17,1.71,1.09,4.05-1.98,4.49l.1-.23c-.95-1.99,.95-3.4,1.05-5.17h0Z"/>
        <path class="cls-44" d="M322.05,175.77l-.1,.23v3.88c-2.06-1.19-2.03-2.56,.1-4.11Z"/>
        <path class="cls-87" d="M336.2,131.62c-.12,.3-.21,.61-.28,.92-.63,.63-1.33,.71-2.08,.24-1.96-1.45-.9-2.8,.13-4.15,2.2-.09,1.97,1.63,2.23,2.98h0Z"/>
        <path class="cls-25" d="M336.2,131.62c-.67-1.05-.92-2.41-2.23-2.98,.31-1.33,.53-2.96,1.96-.58,.31,.52,.66,1,1,1.5,.62,.72,.52,1.39-.12,2.04-.2,.02-.41,.02-.61,.02Z"/>
        <path class="cls-25" d="M333.84,132.78c.69-.08,1.39-.16,2.08-.24,.31,.73,.63,1.46,.94,2.19-.65,1.06-1.44,1.75-2.76,1.07-.56-.97-1.03-1.94-.26-3.02h0Z"/>
        <path class="cls-63" d="M325.02,166.68c-.68,.29-1.35,.58-2.03,.86-.62-.09-1.44-.11-1.35-.96,.13-1.27,.92-2.02,2.27-2.05,.37,.72,.74,1.43,1.1,2.15h.01Z"/>
        <path class="cls-74" d="M328.12,160.82c-.41-.82-.82-1.64-1.23-2.46,.73-.86,2.25-1.87,2.65-1.25,.91,1.4-.27,2.7-1.42,3.71h0Z"/>
        <path class="cls-84" d="M336.81,131.59c.04-.68,.08-1.36,.12-2.04,.87-.13,1.96-.74,2.2,.75,.09,.56,0,1.36-.36,1.73-.74,.79-1.37,0-1.97-.45h0Z"/>
        <path class="cls-99" d="M369.83,157.5c1.44-.38,2.52-1.01,3.02,.5,.16,.49-.22,1.17-.35,1.76-.8-.68-1.59-1.35-2.67-2.26h0Z"/>
        <path class="cls-123" d="M404.93,137.43c0,1.37-.02,2.74-.02,4.11-.3-1.37-5.06-2.77,.02-4.11Z"/>
        <path class="cls-57" d="M334.72,110.57c-.19,0-.38-.02-.57-.03-.57-1.54-.66-2.97,.83-4.09,1.17,1.45-.4,2.74-.25,4.12h0Z"/>
        <path class="cls-128" d="M334.1,135.8c.92-.36,1.84-.71,2.76-1.07-.1,.91,.37,2.15-.98,2.44-.91,.19-1.46-.55-1.79-1.36h.01Z"/>
        <path class="cls-3" d="M328.75,124c.4,1.27,.47,2.49-.92,3.36-.56-1.43,.31-2.36,.92-3.36Z"/>
        <path class="cls-122" d="M384.12,150.25c-.7,.02-.73-.45-.59-.91,.15-.49-.49-1.37,.59-1.4,.2,0,.52,.4,.59,.67,.16,.64,.17,1.3-.59,1.64Z"/>
        <path class="cls-106" d="M330.62,146.7l-.35,.04-.33-.12c.59-1.25,1.32-2.27,3.54-1.68-1.17,.72-2.01,1.24-2.86,1.75h0Z"/>
        <path class="cls-75" d="M353.82,87.85c-.45,.41-.77,.7-1.09,.99-.23-.3-.68-.64-.63-.9,.06-.35,.49-.63,.76-.94,.29,.25,.58,.51,.96,.85h0Z"/>
        <path class="cls-58" d="M380.43,143.74c.99,0,1.67,.25,1.36,1.05-.17,.45-.87,.88-1.39,.97-.51,.09-1.47,0-1.11-.96,.18-.49,.84-.8,1.13-1.06h.01Z"/>
        <path class="cls-68" d="M322.05,253.48c-.44-.27-.88-.53-1.31-.8,.88-.26,1.86-1.53,2.6-.51,.7,.97-.47,1.21-1.29,1.31Z"/>
        <path class="cls-62" d="M462.96,219.68c.98-.74,1.96-1.48,2.93-2.21,2.36,.22,3.16-2.25,5.01-2.92,.96-.41,1.92-.83,2.89-1.24,.76-.31,1.51-.38,2.19,.2-.16,2.08-2.45,1.79-3.37,3.02-.91,1.74,2.02,2.25,1.26,3.95-1.6,1.38-3.21,2.75-4.81,4.13-1.08,.69-2.19,.44-3.3,.09-2.48-.55-3.92,1.43-5.72,2.43-1.84,1.03-3.78,1.03-5.75,1.16-.72,.02-1.39-.13-1.93-.65,.52-.7,1.04-1.39,1.55-2.09,1.84-.49,2.71-2.16,3.99-3.32,2.21,.19,3.82-.79,5.06-2.54h0Z"/>
        <path class="cls-111" d="M454.87,227.46c3.17-.22,5.77-1.72,8.2-3.61,.94-.74,1.79-2.3,3.03-.34,.47,1.9-1.36,2.15-2.23,3.1,.04,.26,.07,.51,.08,.77-1.38,1.12-3.54,.63-4.65,2.3-1.05,1.58-2.82,2.06-4.39,2.83-1.42,.03-2.42-.62-3.04-1.89,.91-1.14,1.98-2.13,3-3.15h0Z"/>
        <path class="cls-6" d="M499.88,237.44c1.07,1.58,2.06,3.16,1.32,4.84-.34,.76-1.56,.28-2.18-.27-1.97-1.78,.39-2.99,.86-4.56h0Z"/>
        <path class="cls-112" d="M463.87,226.61c.74-1.03,1.49-2.07,2.23-3.1,.99,.36,1.98,.73,2.97,1.09-1.29,1.83-3.11,2.26-5.2,2.01Z"/>
        <path class="cls-12" d="M454.87,227.46c-.08,1.92-.93,3.12-3,3.15,.21-.99-.51-2.13,.5-2.98,.83-.06,1.67-.11,2.5-.17h0Z"/>
        <path class="cls-28" d="M454.91,232.51c1.3-1,2.61-2.01,3.91-3.01,.55-.47,.98-.38,1.3,.26-.86,2.57-2.97,2.78-5.22,2.75h.01Z"/>
        <path class="cls-23" d="M473.88,220.48c-.3-1.35-4.76-1.38-1.26-3.95-.13,1.49,3.87,1.66,1.26,3.95Z"/>
        <path class="cls-73" d="M460.12,229.76c-.43-.09-.87-.17-1.3-.26,.86-2.76,3.27-1.78,5.13-2.12-.79,1.58-2.26,2.06-3.83,2.38h0Z"/>
        <path class="cls-113" d="M475.99,213.51c-.73-.07-1.46-.13-2.19-.2,.98-.8,2.1-1.99,3.29-1.36,.67,.35-.4,1.21-1.1,1.56Z"/>
        <path class="cls-67" d="M476.25,154.66c-.3,.51-.35,1.37-1.2,1.16-.27-.07-.62-.78-.52-1.06,.12-.38,.6-.79,1-.91,.56-.17,.91,.16,.72,.82h0Z"/>
        <path class="cls-1" d="M223.96,227.49c2.64-.17,5.02-.88,7.19-2.56,.67-.52,3.31-1.75,1.9,1.43-.39,.77-.78,1.53-1.17,2.3-.96,.18-1.8,.61-2.48,1.32-.97,.66-1.78,1.48-2.41,2.48-1.44,1.53-2.81,1.54-4.07-.22-.73-.76-.78-1.61-.39-2.54,1.2-.26,1.68-1,1.43-2.21h0Z"/>
        <path class="cls-40" d="M270.02,237.43c1.89,.62,.82,2.14,1.01,3.28,.13,.76,.64,1.71-.78,1.74-1.07,.03-1.64-.82-1.33-1.58,.52-1.24-1.24-2.35-.01-3.48,.38-.41,.75-.38,1.11,.03h0Z"/>
        <path class="cls-104" d="M223.96,227.49c.16,.87,.82,1.93-.82,2.11-.78,.54-1.55,.53-2.33,0-.95-2.26,1.21-2.21,2.23-3,.3,.3,.61,.59,.91,.89h.01Z"/>
        <path class="cls-22" d="M270.02,237.43l-1.11-.03c.49-1.11-.63-2.64,.9-3.45,.18-.09,.7,.11,.81,.31,.66,1.2-.26,2.14-.6,3.18h0Z"/>
        <path class="cls-90" d="M220.81,229.6h2.33c-.07,.88-.15,1.76-.22,2.64-2.1,.24-1.98-1.3-2.1-2.63h0Z"/>
        <path class="cls-7" d="M228.75,229.34c.78-1.4,1.85-1.53,3.12-.68-.18,1.05-1.12,1.37-1.84,1.9-1.08,.29-1.39-.24-1.28-1.21h0Z"/>
        <path class="cls-29" d="M241.2,227.87c-.45,.89-1.18,1.41-2.12,1.43-.5,0-.74-.52-.32-.95,.67-.69,1.41-1.32,2.45-.48h0Z"/>
        <path class="cls-46" d="M228.75,229.34c.43,.4,.85,.81,1.28,1.21-1.01,.63-2.03,1.27-3.04,1.9-.12-1.44,.77-2.3,1.76-3.11Z"/>
        <path class="cls-128" d="M509.8,305.18c-.21,6.09-.39,12.08-1.92,17.89-1.66,6.31-4.94,9.22-10.05,9.27-5.2,.05-8.53-2.72-9.98-9.21-2.57-11.49-2.39-23.06,.24-34.54,.7-3.06,1.92-6.09,4.74-7.94,5.64-3.7,12.59-1.19,14.74,5.45,2.01,6.22,2,12.73,2.23,19.08Z"/>
        <path class="cls-128" d="M441.59,305.85c0-7.3,.19-14.62-.08-21.91-.14-3.62,1.15-4.43,4.53-4.37,8.25,.15,11.58,1.87,13.24,9.13,2.71,11.82,2.49,23.74-1.32,35.34-2.15,6.55-8.15,9.31-14.72,7.7-2.35-.58-1.6-2.19-1.62-3.48-.07-7.47-.03-14.94-.03-22.41Z"/>
        <path class="cls-128" d="M162.09,305.09c0-6.99,.16-13.99-.07-20.97-.11-3.32,.59-4.65,4.29-4.58,9.17,.16,12.77,2.27,14.1,11.26,1.65,11.21,2,22.56-1.9,33.54-2.2,6.18-8.81,9.29-14.97,7.39-2.27-.7-1.39-2.38-1.41-3.66-.09-7.66-.04-15.32-.04-22.97h0Z"/>
        <path class="cls-130" d="M205.82,285.59c2.17,8.52,4.19,17.08,6.59,25.53,.85,2.99,.31,3.67-2.74,3.76-13.37,.4-13.34,.5-9.87-12.47,1.5-5.6,2.87-11.24,4.29-16.87,.59-.66,1.17-.66,1.73,.04h0Z"/>
        <path class="cls-119" d="M205.82,285.59c-.58-.01-1.15-.03-1.73-.04-.23-1.2,.03-2.5,1.34-2.38,.79,.07,.63,1.52,.39,2.42Z"/>
        <path class="cls-77" d="M17.17,167.57c-1.54-1.02,.33-2.09-.04-3.12,2.77,.85,3.17,3.36,3.96,5.61-2.43,.94-1.66-3.17-3.92-2.48h0Z"/>
        <path class="cls-8" d="M17.09,163.54c.34-.76,.67-.65,.99,.02-.33,0-.66,0-.99-.02Z"/>
      </g>
    </g>
  </g>
</svg>