<?xml version="1.0" encoding="UTF-8"?>
<svg id="Ebene_2" data-name="Ebene 2" xmlns="http://www.w3.org/2000/svg" viewBox="0 0 4.56 3.34">
  <defs>
    <style>
      .cls-1 {
        fill: #fff;
      }
    </style>
  </defs>
  <g id="Ebene_2-2" data-name="Ebene 2">
    <g id="Ebene_1-2" data-name="Ebene 1-2">
      <path class="cls-1" d="M0,3.08c0-.1,.03-.2,.1-.32,.07-.12,.17-.27,.29-.46,.18-.26,.32-.48,.41-.66,.09-.18,.13-.36,.13-.54,0-.07,0-.16-.04-.27-.03-.11-.04-.19-.04-.23,0-.18,.04-.33,.11-.44,.08-.11,.25-.16,.52-.16s.47,.07,.58,.2c.11,.14,.16,.29,.16,.46,0,.64-.43,1.43-1.28,2.38-.18,.2-.4,.3-.64,.3-.21,0-.31-.08-.31-.25H0Zm2.33,0c0-.1,.03-.2,.1-.32s.17-.27,.29-.46c.18-.26,.32-.48,.41-.66,.09-.18,.13-.36,.13-.54,0-.07,0-.16-.04-.27s-.04-.19-.04-.23c0-.18,.04-.33,.11-.44,.08-.11,.25-.16,.52-.16s.47,.07,.58,.2c.11,.14,.16,.29,.16,.46,0,.64-.43,1.43-1.28,2.38-.18,.2-.4,.3-.64,.3-.21,0-.31-.08-.31-.25h.01Z"/>
    </g>
  </g>
</svg>