<?xml version="1.0" encoding="UTF-8"?>
<svg data-bbox="0 66.041 512 379.919" xmlns="http://www.w3.org/2000/svg" width="512" viewBox="0 0 512 512" height="512" data-type="ugc">
    <g>
        <path d="m132.758 389.903-47.474 52.221a11.718 11.718 0 0 1-8.67 3.836h-32.34c-5.086 0-7.757-6.036-4.335-9.8l42.051-46.257z" fill="#8f8b81"/>
        <path d="m379.242 389.903 47.474 52.221a11.718 11.718 0 0 0 8.67 3.836h32.34c5.086 0 7.757-6.036 4.335-9.8l-42.051-46.257z" fill="#8f8b81"/>
        <path d="m99.959 425.982 32.799-36.079H81.99l-32.799 36.079z" fill="#706c64"/>
        <path d="m462.809 425.982-32.799-36.079h-50.768l32.799 36.079z" fill="#706c64"/>
        <path fill="#706c64" d="M497 408.969H15c-8.284 0-15-6.716-15-15V81.044c0-8.284 6.716-15 15-15h482c8.284 0 15 6.716 15 15v312.925c0 8.284-6.716 15-15 15z"/>
        <path fill="#b5b1a4" d="M497 408.969H15c-8.284 0-15-6.716-15-15V81.044c0-8.284 6.716-15 15-15h482c8.284 0 15 6.716 15 15v312.925c0 8.284-6.716 15-15 15z"/>
        <path fill="#8f8b81" d="M512 81.042v312.93c0 8.28-6.72 15-15 15H258.64c123.6-31.71 214.96-143.86 214.96-277.35 0-22.57-2.61-44.52-7.55-65.58H497c8.28 0 15 6.72 15 15z"/>
        <path fill="#595751" d="M512 81.041v280.77H0V81.041c0-8.28 6.72-15 15-15h482c8.28 0 15 6.72 15 15z"/>
        <path fill="#44433f" d="M512 81.041v280.77H357.57c70.4-52.17 116.03-135.85 116.03-230.19 0-22.57-2.61-44.52-7.55-65.58H497c8.28 0 15 6.72 15 15z"/>
        <path fill="#d8d4c9" d="M159.874 408.969H48.535c-13.022 0-23.579-10.557-23.579-23.579s10.557-23.579 23.579-23.579h111.339c13.022 0 23.579 10.557 23.579 23.579-.001 13.022-10.557 23.579-23.579 23.579z"/>
        <path fill="#e8e4d8" d="M108.491 361.812H79.3c-13.022 0-23.579 10.557-23.579 23.579S66.278 408.97 79.3 408.97h29.192c13.022 0 23.579-10.557 23.579-23.579-.001-13.023-10.558-23.579-23.58-23.579z"/>
        <path fill="#706c64" d="M0 269.699v-149.02c0-11.581 9.389-20.97 20.97-20.97s20.97 9.389 20.97 20.97v149.02c0 11.581-9.389 20.97-20.97 20.97-11.582 0-20.97-9.389-20.97-20.97z"/>
        <path fill="#8f8b81" d="M41.94 174.002V148.04c0-11.581-9.388-20.97-20.97-20.97C9.389 127.07 0 136.459 0 148.04v25.962c0 11.581 9.388 20.97 20.97 20.97 11.581 0 20.97-9.389 20.97-20.97z"/>
        <path fill="#fe255f" d="m219.099 294.374 90.325-57.259c15.486-9.817 15.486-32.413 0-42.23l-90.325-57.259c-16.645-10.552-38.385 1.407-38.385 21.115v114.518c-.001 19.708 21.74 31.667 38.385 21.115z"/>
        <path fill="#e01152" d="m309.426 237.112-90.33 57.26c-16.64 10.55-38.38-1.4-38.38-21.11v-11.31c49.3-2.09 88.82-41.91 90.45-91.32l38.26 24.25c15.48 9.82 15.48 32.42 0 42.23z"/>
        <path fill="#ffffff" d="M373.718 228.727a8.33 8.33 0 0 0-11.183 3.708l-20.076 39.996-20.075-39.996a8.332 8.332 0 0 0-7.446-4.594h-50.722a8.331 8.331 0 0 0 0 16.662h17.029v46.499a8.331 8.331 0 0 0 16.662 0v-46.499h11.89l25.215 50.236a8.332 8.332 0 0 0 14.892 0l27.522-54.83a8.33 8.33 0 0 0-3.708-11.182z"/>
    </g>
</svg>
