<?xml version="1.0" encoding="UTF-8"?>
<svg id="Ebene_2" data-name="Ebene 2" xmlns="http://www.w3.org/2000/svg" viewBox="0 0 512 379.92">
  <defs>
    <style>
      .cls-1, .cls-2, .cls-3 {
        fill: #fff;
      }

      .cls-2 {
        opacity: .3;
      }

      .cls-3 {
        isolation: isolate;
        opacity: .3;
      }

      .cls-4 {
        fill: #f24cae;
      }

      .cls-5 {
        fill: #706c64;
      }

      .cls-6 {
        fill: #05b9c8;
      }
    </style>
  </defs>
  <g id="Ebene_1-2" data-name="Ebene 1">
    <g>
      <path class="cls-4" d="M132.76,323.86l-47.47,52.22c-2.22,2.44-5.37,3.84-8.67,3.84H44.27c-5.09,0-7.76-6.04-4.33-9.8l42.05-46.26h50.77Z"/>
      <path class="cls-4" d="M379.24,323.86l47.47,52.22c2.22,2.44,5.37,3.84,8.67,3.84h32.34c5.09,0,7.76-6.04,4.33-9.8l-42.05-46.26h-50.77Z"/>
      <path class="cls-4" d="M99.96,359.94l32.8-36.08h-50.77l-32.8,36.08h50.77Z"/>
      <path class="cls-4" d="M462.81,359.94l-32.8-36.08h-50.77l32.8,36.08h50.77Z"/>
      <path class="cls-5" d="M497,342.93H15c-8.28,0-15-6.72-15-15V15C0,6.72,6.72,0,15,0H497c8.28,0,15,6.72,15,15V327.93c0,8.28-6.72,15-15,15Z"/>
      <path class="cls-4" d="M497,342.93H15c-8.28,0-15-6.72-15-15V15C0,6.72,6.72,0,15,0H497c8.28,0,15,6.72,15,15V327.93c0,8.28-6.72,15-15,15Z"/>
      <path class="cls-2" d="M512,15V327.93c0,8.28-6.72,15-15,15h-238.36c123.6-31.71,214.96-143.86,214.96-277.35,0-22.57-2.61-44.52-7.55-65.58h30.95c8.28,0,15,6.72,15,15h0Z"/>
      <path class="cls-6" d="M512,15V295.77H0V15C0,6.72,6.72,0,15,0H497c8.28,0,15,6.72,15,15Z"/>
      <path class="cls-2" d="M512,15V295.77h-154.43c70.4-52.17,116.03-135.85,116.03-230.19,0-22.57-2.61-44.52-7.55-65.58h30.95c8.28,0,15,6.72,15,15h0Z"/>
      <path class="cls-4" d="M219.1,228.33l90.33-57.26c15.49-9.82,15.49-32.41,0-42.23l-90.32-57.26c-16.65-10.55-38.38,1.41-38.38,21.12v114.52c0,19.71,21.74,31.67,38.38,21.11h0Z"/>
      <path class="cls-4" d="M309.43,171.07l-90.33,57.26c-16.64,10.55-38.38-1.4-38.38-21.11v-11.31c49.3-2.09,88.82-41.91,90.45-91.32l38.26,24.25c15.48,9.82,15.48,32.42,0,42.23h0Z"/>
      <path class="cls-1" d="M373.72,162.69c-4.11-2.06-9.12-.41-11.18,3.71,0,0,0,0,0,0l-20.08,40-20.08-40c-1.41-2.82-4.3-4.59-7.45-4.59h-50.72c-4.6,0-8.33,3.73-8.33,8.33s3.73,8.33,8.33,8.33h17.03v46.5c0,4.6,3.74,8.33,8.34,8.32,4.59,0,8.31-3.73,8.32-8.32v-46.5h11.89l25.21,50.24c2.06,4.11,7.07,5.77,11.18,3.71,1.6-.8,2.9-2.1,3.71-3.71l27.52-54.83c2.06-4.11,.4-9.12-3.71-11.18,0,0,0,0,0,0h0Z"/>
    </g>
    <path class="cls-3" d="M125.43,325.86H30.48c-4.73,0-8.56-3.83-8.56-8.56s3.83-8.56,8.56-8.56H125.43c4.73,0,8.56,3.83,8.56,8.56s-3.83,8.56-8.56,8.56Z"/>
    <path class="cls-3" d="M174.69,325.86h-17.85c-4.73,0-8.56-3.83-8.56-8.56s3.83-8.56,8.56-8.56h17.85c4.73,0,8.56,3.83,8.56,8.56s-3.83,8.56-8.56,8.56Z"/>
  </g>
</svg>