<?xml version="1.0" encoding="UTF-8"?>
<svg data-bbox="2.504 2.497 47.992 48.006" xmlns="http://www.w3.org/2000/svg" width="512" viewBox="0 0 53 53" height="512" data-type="ugc">
    <g>
        <path fill="#f9b938" d="M40.444 10.413v37.09c0 1.65-1.35 3-3 3H5.504c-1.66 0-3-1.35-3-3v-37.09c0-1.66 1.34-3 3-3h31.94c1.65 0 3 1.34 3 3z"/>
        <path fill="#ecb021" d="M40.444 10.413v37.09c0 1.65-1.35 3-3 3H5.504a2.99 2.99 0 0 1-2.72-1.75c.38.17.8.27 1.24.27h31.94c1.65 0 3-1.35 3-3V8.933c0-.45-.1-.87-.28-1.25 1.04.47 1.76 1.52 1.76 2.73z"/>
        <path fill="#ecb021" d="M30.594 7.413v2.87c0 1.2-.97 2.17-2.17 2.17h-13.9c-1.19 0-2.17-.97-2.17-2.17v-2.87z"/>
        <path fill="#d0d0f7" d="M37.459 40.03h-5.516c-1.15 0-2.083.933-2.083 2.084v5.51z"/>
        <path fill="#e4e3ff" d="M37.459 12.369V40.03h-5.516c-1.15 0-2.083.933-2.083 2.084v5.51H7.57a2.084 2.084 0 0 1-2.084-2.083V12.369c0-1.15.932-2.084 2.083-2.084h27.806c1.15 0 2.084.933 2.084 2.084z"/>
        <path fill="#e4e3ff" d="M37.454 12.373v27.66h-5.51c-1.15 0-2.08.93-2.08 2.08v5.51H7.573a2.08 2.08 0 0 1-2.09-2.08v-33.17c0-1.15.93-2.09 2.09-2.09h27.8c1.15 0 2.08.94 2.08 2.09z"/>
        <path fill="#d0d0f7" d="M30.594 10.283c0 1.2-.97 2.17-2.17 2.17h-13.9c-1.19 0-2.17-.97-2.17-2.17z"/>
        <path fill="#7979f7" d="M28.425 5.487h-3.97a2.99 2.99 0 0 0-2.98-2.99c-1.65 0-2.99 1.34-2.99 2.99h-3.96c-.65 0-1.17.52-1.17 1.17v3.63c0 .65.52 1.17 1.17 1.17h13.9c.64 0 1.17-.52 1.17-1.17v-3.63c0-.65-.53-1.17-1.17-1.17z"/>
        <path fill="#e4e3ff" d="M21.475 6.977c-.84 0-1.52-.68-1.52-1.52 0-.85.68-1.53 1.52-1.53.83 0 1.51.68 1.51 1.53 0 .84-.68 1.52-1.51 1.52z"/>
        <path fill="#d0d0f7" d="M22.734 4.613c-.24-.16-.53-.26-.84-.26-.84 0-1.52.68-1.52 1.53 0 .31.09.59.25.83-.4-.27-.67-.73-.67-1.26 0-.85.68-1.53 1.52-1.53.53 0 .99.27 1.26.69z"/>
        <path fill="#ffffff" d="M20.818 10.31H15.87a.446.446 0 1 1 0-.892h4.948a.446.446 0 1 1 0 .892z" opacity=".3"/>
        <path fill="#ffffff" d="M23.385 10.31h-.93a.446.446 0 1 1 0-.892h.93a.446.446 0 1 1 0 .892z" opacity=".3"/>
        <path fill="#ffffff" d="M4.376 27.765v9.948a.446.446 0 1 1-.893 0v-9.948a.446.446 0 1 1 .893 0z" opacity=".3"/>
        <path fill="#ffffff" d="M4.38 39.573v1.25a.446.446 0 1 1-.893 0v-1.25a.446.446 0 1 1 .893 0z" opacity=".3"/>
        <path fill="#d0d0f7" d="M34.435 21.503a.734.734 0 0 1-.733.733h-6.769a.735.735 0 0 1-.701-.52l-1.243-4.086-3.199 8.15c-.232.614-1.125.622-1.365-.016l-2.434-6.62-1.333 2.683a.724.724 0 0 1-.654.409H9.235a.73.73 0 1 1 0-1.461h6.318l1.886-3.804a.729.729 0 0 1 1.339.074l2.359 6.408 3.262-8.31a.751.751 0 0 1 .707-.462.73.73 0 0 1 .674.515l1.695 5.579h6.227a.73.73 0 0 1 .733.728z"/>
        <path fill="#ffffff" d="M4 13.1a.5.5 0 0 1-.5-.5v-2.09c0-1.159.942-2.1 2.1-2.1h1.94a.5.5 0 1 1 0 1H5.6a1.1 1.1 0 0 0-1.1 1.1v2.09a.5.5 0 0 1-.5.5z" opacity=".3"/>
        <path fill="#00d67f" d="M15.374 27.924v4.87a1 1 0 0 1-1 1h-4.87a1 1 0 0 1-1-1v-4.87a1 1 0 0 1 1-1h4.87a1 1 0 0 1 1 1z"/>
        <path fill="#00c179" d="M15.374 27.926v4.87c0 .55-.45 1-1 1h-4.87c-.41 0-.77-.25-.92-.61.12.05.25.08.39.08h4.87c.55 0 1-.45 1-1v-4.87c0-.14-.03-.27-.08-.39.36.15.61.51.61.92z"/>
        <path fill="#fc6559" d="M15.374 38.31v4.87a1 1 0 0 1-1 1h-4.87a1 1 0 0 1-1-1v-4.87a1 1 0 0 1 1-1h4.87a1 1 0 0 1 1 1z"/>
        <path fill="#f05543" d="M15.374 38.31v4.87c0 .55-.45 1-1 1h-4.87c-.41 0-.77-.25-.92-.61.12.05.25.08.39.08h4.87c.55 0 1-.45 1-1v-4.87c0-.14-.03-.27-.08-.39.36.15.61.51.61.92z"/>
        <path fill="#e4e3ff" d="m11.063 31.835-1.2-1.2a.5.5 0 1 1 .707-.707l.846.847 1.892-1.892a.5.5 0 1 1 .707.707l-2.245 2.245a.5.5 0 0 1-.707 0z"/>
        <path fill="#e4e3ff" d="m11.063 42.22-1.2-1.2a.5.5 0 1 1 .707-.707l.846.847 1.892-1.892a.5.5 0 1 1 .707.707l-2.245 2.246a.5.5 0 0 1-.707 0z"/>
        <path fill="#d0d0f7" d="M35.081 29.237H17.956a.5.5 0 1 1 0-1h17.125a.5.5 0 1 1 0 1z"/>
        <path fill="#d0d0f7" d="M31.206 32.482h-13.25a.5.5 0 1 1 0-1h13.25a.5.5 0 1 1 0 1z"/>
        <path fill="#d0d0f7" d="M35.081 39.662H17.956a.5.5 0 1 1 0-1h17.125a.5.5 0 1 1 0 1z"/>
        <path fill="#d0d0f7" d="M25.706 42.907h-7.75a.5.5 0 1 1 0-1h7.75a.5.5 0 1 1 0 1z"/>
        <path fill="#e4e3ff" d="M29.661 41.116h14.518v3.138H29.661z"/>
        <path fill="#474646" d="M42.556 36.852v11.666a1.985 1.985 0 0 0 3.97 0V36.852a1.985 1.985 0 0 0-3.97 0z"/>
        <path fill="#2d2c2c" d="M46.524 36.85v11.664a1.98 1.98 0 0 1-1.982 1.989 2 2 0 0 1-1.743-1.024 1.989 1.989 0 0 0 2.946-1.744V36.07c0-.341-.09-.668-.238-.95a1.97 1.97 0 0 1 1.017 1.73z"/>
        <path fill="#474646" d="M46.526 38.927v7.516a1.985 1.985 0 0 0 3.97 0v-7.516a1.985 1.985 0 0 0-3.97 0z"/>
        <path fill="#2d2c2c" d="M50.493 38.927v7.517a1.977 1.977 0 0 1-1.98 1.98c-.758 0-1.41-.415-1.752-1.03.29.163.616.252.965.252a1.995 1.995 0 0 0 1.988-1.989v-7.51c0-.34-.089-.667-.237-.949.608.334 1.016.98 1.016 1.729z"/>
        <path fill="#474646" d="M33.256 36.852v11.666a1.985 1.985 0 0 1-3.97 0V36.852a1.985 1.985 0 0 1 3.97 0z"/>
        <path fill="#474646" d="M29.285 38.927v7.516a1.985 1.985 0 1 1-3.97 0v-7.516a1.985 1.985 0 0 1 3.97 0z"/>
        <path d="M33.256 36.85v11.664a2.01 2.01 0 0 1-.579 1.41 1.98 1.98 0 0 1-1.402.579 2 2 0 0 1-1.744-1.024 1.985 1.985 0 0 0 2.946-1.744V36.07c0-.341-.09-.668-.238-.95a1.97 1.97 0 0 1 1.017 1.73z" fill="#2d2c2c"/>
        <path d="M29.286 38.927v7.517a1.98 1.98 0 0 1-1.982 1.981c-.757 0-1.41-.415-1.75-1.031.289.163.615.252.964.252.549 0 1.046-.223 1.402-.586.364-.356.586-.854.586-1.403v-7.509c0-.341-.089-.668-.237-.95.608.334 1.017.98 1.017 1.73z" fill="#2d2c2c"/>
        <g opacity=".3">
            <path fill="#ffffff" d="M26.605 43.455a.37.37 0 0 1-.371-.371V40.88a.37.37 0 1 1 .742 0v2.203a.37.37 0 0 1-.371.37z"/>
            <path fill="#ffffff" d="M26.605 39.976a.37.37 0 0 1-.371-.37v-.458a.37.37 0 1 1 .742 0v.457a.37.37 0 0 1-.371.371z"/>
        </g>
        <g opacity=".3">
            <path fill="#ffffff" d="M30.593 48.279a.37.37 0 0 1-.371-.371V43.85a.37.37 0 1 1 .742 0v4.058a.37.37 0 0 1-.371.37z"/>
            <path fill="#ffffff" d="M30.593 42.945a.37.37 0 0 1-.371-.37v-.458a.37.37 0 1 1 .742 0v.457a.37.37 0 0 1-.371.371z"/>
        </g>
        <g opacity=".3">
            <path fill="#ffffff" d="M47.776 43.455a.37.37 0 0 0 .37-.371V40.88a.37.37 0 1 0-.741 0v2.203a.37.37 0 0 0 .37.37z"/>
            <path fill="#ffffff" d="M47.776 39.976a.37.37 0 0 0 .37-.37v-.458a.37.37 0 1 0-.741 0v.457a.37.37 0 0 0 .37.371z"/>
        </g>
        <g opacity=".3">
            <path fill="#ffffff" d="M43.787 48.279a.37.37 0 0 0 .371-.371V43.85a.37.37 0 1 0-.742 0v4.058a.37.37 0 0 0 .371.37z"/>
            <path fill="#ffffff" d="M43.787 42.945a.37.37 0 0 0 .371-.37v-.458a.37.37 0 1 0-.742 0v.457a.37.37 0 0 0 .371.371z"/>
        </g>
    </g>
</svg>
