<?xml version="1.0" encoding="UTF-8"?>
<svg id="Ebene_2" data-name="Ebene 2" xmlns="http://www.w3.org/2000/svg" viewBox="0 0 463.62 463.76">
  <defs>
    <style>
      .cls-1, .cls-2 {
        fill: #fff;
      }

      .cls-3 {
        fill: #af66ff;
      }

      .cls-2 {
        isolation: isolate;
      }

      .cls-2, .cls-4 {
        opacity: .3;
      }

      .cls-5 {
        fill: #f24cae;
      }

      .cls-6 {
        fill: #9e00f4;
      }

      .cls-7 {
        fill: #05b9c8;
      }

      .cls-8 {
        fill: #f2f2f2;
      }
    </style>
  </defs>
  <g id="Ebene_1-2" data-name="Ebene 1">
    <g>
      <path class="cls-5" d="M366.51,76.47V434.77c0,15.94-13.04,28.98-28.98,28.98H28.98c-16.04,0-28.98-13.04-28.98-28.98V76.47c0-16.04,12.94-28.98,28.98-28.98H337.53c15.94,0,28.98,12.94,28.98,28.98h0Z"/>
      <path class="cls-5" d="M366.51,76.47V434.77c0,15.94-13.04,28.98-28.98,28.98H28.98c-11.31,0-21.58-6.61-26.28-16.91,3.67,1.64,7.73,2.61,11.98,2.61H323.24c15.94,0,28.98-13.04,28.98-28.98V62.17c0-4.35-.97-8.4-2.7-12.08,10.05,4.54,17,14.68,17,26.37Z"/>
      <path class="cls-5" d="M271.36,47.49v27.73c0,11.59-9.37,20.96-20.96,20.96H116.12c-11.5,0-20.96-9.37-20.96-20.96v-27.73h176.21Z"/>
      <path class="cls-8" d="M337.68,95.37V362.58c.38,17.43,.75,34.86,1.13,52.3,.14,1.33,.87,9.35-5,16-4.69,5.31-10.67,6.44-12.4,6.71-90.82-.55-181.64-1.09-272.47-1.64-11.11,0-20.13-9.01-20.13-20.12V95.37c0-11.11,9-20.13,20.12-20.13H317.55c11.11,0,20.13,9.01,20.13,20.13Z"/>
      <path class="cls-5" d="M250.41,28.88h-38.35c0-15.91-12.87-28.83-28.79-28.88-15.94,0-28.88,12.94-28.88,28.88h-38.26c-6.28,0-11.3,5.02-11.3,11.3v35.07c0,6.28,5.02,11.3,11.3,11.3H250.41c6.18,0,11.3-5.02,11.3-11.3V40.19c0-6.28-5.12-11.3-11.3-11.3Z"/>
      <path class="cls-8" d="M183.27,43.28c-8.11,0-14.68-6.57-14.68-14.68s6.57-14.78,14.68-14.78,14.59,6.57,14.59,14.78-6.57,14.68-14.59,14.68Z"/>
      <path class="cls-2" d="M176.92,75.48h-47.8c-2.38,0-4.31-1.93-4.31-4.31s1.93-4.31,4.31-4.31h47.8c2.38,0,4.31,1.93,4.31,4.31s-1.93,4.31-4.31,4.31Z"/>
      <path class="cls-2" d="M201.72,75.48h-8.98c-2.38,0-4.31-1.93-4.31-4.31s1.93-4.31,4.31-4.31h8.98c2.38,0,4.31,1.93,4.31,4.31s-1.93,4.31-4.31,4.31Z"/>
      <path class="cls-2" d="M18.08,244.1v96.1c0,2.38-1.93,4.31-4.31,4.31s-4.31-1.93-4.31-4.31v-96.1c0-2.38,1.93-4.31,4.31-4.31s4.31,1.93,4.31,4.31h0Z"/>
      <path class="cls-2" d="M18.12,358.17v12.08c0,2.38-1.93,4.31-4.31,4.31s-4.31-1.93-4.31-4.31v-12.08c0-2.38,1.93-4.31,4.31-4.31s4.31,1.93,4.31,4.31Z"/>
      <path class="cls-7" d="M308.47,183.61c0,3.91-3.17,7.08-7.08,7.08h-65.39c-3.11,0-5.86-2.04-6.77-5.02l-12.01-39.47-30.9,78.73c-2.24,5.93-10.87,6.01-13.19-.15l-23.51-63.95-12.88,25.92c-1.17,2.42-3.63,3.96-6.32,3.95H65.02c-3.9,0-7.06-3.16-7.06-7.06s3.16-7.06,7.06-7.06h61.03l18.22-36.75c1.72-3.49,5.94-4.92,9.43-3.2,1.63,.8,2.88,2.21,3.5,3.91l22.79,61.9,31.51-80.28c1.15-2.75,3.85-4.52,6.83-4.46,3.01,.1,5.63,2.1,6.51,4.98l16.37,53.9h60.16c3.89-.02,7.07,3.13,7.08,7.02,0,0,0,0,0,0h0Z"/>
      <path class="cls-2" d="M14.45,102.43c-2.67,0-4.83-2.16-4.83-4.83v-20.19c0-11.2,9.1-20.29,20.29-20.29h18.74c2.67,0,4.83,2.16,4.83,4.83s-2.16,4.83-4.83,4.83H29.91c-5.87,0-10.63,4.76-10.63,10.63h0v20.19c0,2.67-2.16,4.83-4.83,4.83Z"/>
      <path class="cls-7" d="M124.33,245.63v47.05c0,5.34-4.33,9.66-9.66,9.66h-47.05c-5.34,0-9.66-4.33-9.66-9.66v-47.05c0-5.34,4.33-9.66,9.66-9.66h47.05c5.34,0,9.66,4.33,9.66,9.66Z"/>
      <path class="cls-7" d="M124.33,245.65v47.05c0,5.31-4.35,9.66-9.66,9.66h-47.05c-3.96,0-7.44-2.42-8.89-5.89,1.16,.48,2.42,.77,3.77,.77h47.05c5.31,0,9.66-4.35,9.66-9.66v-47.05c0-1.35-.29-2.61-.77-3.77,3.48,1.45,5.89,4.93,5.89,8.89h0Z"/>
      <path class="cls-5" d="M124.33,345.97v47.05c0,5.34-4.33,9.66-9.66,9.66h-47.05c-5.34,0-9.66-4.33-9.66-9.66v-47.05c0-5.34,4.33-9.66,9.66-9.66h47.05c5.34,0,9.66,4.33,9.66,9.66Z"/>
      <path class="cls-5" d="M124.33,345.97v47.05c0,5.31-4.35,9.66-9.66,9.66h-47.05c-3.96,0-7.44-2.42-8.89-5.89,1.16,.48,2.42,.77,3.77,.77h47.05c5.31,0,9.66-4.35,9.66-9.66v-47.05c0-1.35-.29-2.61-.77-3.77,3.48,1.45,5.89,4.93,5.89,8.89Z"/>
      <path class="cls-8" d="M82.68,283.42l-11.59-11.59c-1.92-1.85-1.97-4.91-.12-6.83,1.85-1.92,4.91-1.97,6.83-.12,.04,.04,.08,.08,.12,.12l8.17,8.18,18.28-18.28c1.85-1.92,4.91-1.97,6.83-.12,1.92,1.85,1.97,4.91,.12,6.83-.04,.04-.08,.08-.12,.12l-21.69,21.69c-1.89,1.89-4.94,1.89-6.83,0Z"/>
      <path class="cls-8" d="M82.68,383.74l-11.59-11.59c-1.92-1.85-1.97-4.91-.12-6.83,1.85-1.92,4.91-1.97,6.83-.12,.04,.04,.08,.08,.12,.12l8.17,8.18,18.28-18.28c1.85-1.92,4.91-1.97,6.83-.12,1.92,1.85,1.97,4.91,.12,6.83-.04,.04-.08,.08-.12,.12l-21.69,21.7c-1.89,1.89-4.94,1.89-6.83,0h0Z"/>
      <path class="cls-7" d="M314.71,258.32H149.27c-2.67,0-4.83-2.16-4.83-4.83s2.16-4.83,4.83-4.83h165.43c2.67,0,4.83,2.16,4.83,4.83s-2.16,4.83-4.83,4.83Z"/>
      <path class="cls-7" d="M277.27,289.67H149.27c-2.67,0-4.83-2.16-4.83-4.83s2.16-4.83,4.83-4.83h128c2.67,0,4.83,2.16,4.83,4.83s-2.16,4.83-4.83,4.83Z"/>
      <path class="cls-7" d="M314.71,359.03H149.27c-2.67,0-4.83-2.16-4.83-4.83s2.16-4.83,4.83-4.83h165.43c2.67,0,4.83,2.16,4.83,4.83s-2.16,4.83-4.83,4.83Z"/>
      <path class="cls-7" d="M224.14,390.38h-74.87c-2.67,0-4.83-2.16-4.83-4.83s2.16-4.83,4.83-4.83h74.87c2.67,0,4.83,2.16,4.83,4.83s-2.16,4.83-4.83,4.83Z"/>
      <path class="cls-3" d="M262.35,373.07h140.25v30.31h-140.25v-30.31Z"/>
      <path class="cls-3" d="M386.92,331.88v112.7c0,10.59,8.59,19.18,19.18,19.18s19.18-8.59,19.18-19.18v-112.7c0-10.59-8.59-19.18-19.18-19.18s-19.18,8.59-19.18,19.18Z"/>
      <path class="cls-6" d="M425.25,331.86v112.68c.05,10.56-8.48,19.17-19.04,19.21-.04,0-.07,0-.11,0-6.99,0-13.43-3.79-16.84-9.89,9.3,5.11,20.98,1.7,26.09-7.6,1.56-2.83,2.37-6.02,2.37-9.25v-112.69c0-3.29-.87-6.45-2.3-9.18,6.08,3.36,9.85,9.77,9.82,16.71Z"/>
      <path class="cls-3" d="M425.27,351.93v72.61c0,10.59,8.59,19.18,19.18,19.18s19.18-8.59,19.18-19.18v-72.61c0-10.59-8.59-19.18-19.18-19.18s-19.18,8.59-19.18,19.18Z"/>
      <path class="cls-6" d="M463.59,351.93v72.62c.02,10.55-8.52,19.11-19.07,19.13-.02,0-.04,0-.06,0-7.32,0-13.62-4.01-16.92-9.95,2.8,1.57,5.95,2.43,9.32,2.43,10.59-.04,19.17-8.62,19.2-19.21v-72.55c0-3.28-.86-6.44-2.29-9.17,5.87,3.23,9.81,9.47,9.81,16.7h0Z"/>
      <path class="cls-3" d="M297.08,331.88v112.7c0,10.59-8.6,19.17-19.19,19.16-10.58,0-19.16-8.58-19.16-19.16v-112.7c0-10.59,8.6-19.17,19.19-19.16,10.58,0,19.16,8.58,19.16,19.16Z"/>
      <path class="cls-3" d="M258.71,351.93v72.61c0,10.59-8.57,19.18-19.16,19.19-10.59,0-19.18-8.57-19.19-19.16v-72.63c0-10.59,8.6-19.17,19.19-19.16,10.58,0,19.16,8.58,19.16,19.16Z"/>
      <path class="cls-6" d="M297.08,331.86v112.68c0,5.1-2.01,9.99-5.59,13.62-3.59,3.59-8.47,5.6-13.54,5.59-6.99,0-13.44-3.79-16.85-9.89,9.27,5.13,20.94,1.77,26.06-7.49,1.58-2.86,2.41-6.08,2.4-9.35v-112.69c0-3.29-.87-6.45-2.3-9.18,6.08,3.36,9.85,9.77,9.82,16.71Z"/>
      <path class="cls-6" d="M258.72,351.93v72.62c0,10.56-8.55,19.13-19.12,19.14h-.03c-7.31,0-13.62-4.01-16.91-9.96,2.79,1.57,5.94,2.43,9.31,2.43,5.3,0,10.1-2.15,13.54-5.66,3.52-3.44,5.66-8.25,5.66-13.55v-72.54c0-3.29-.86-6.45-2.29-9.18,5.87,3.23,9.82,9.47,9.82,16.71h0Z"/>
      <g class="cls-4">
        <path class="cls-1" d="M232.82,395.67c-1.97,0-3.58-1.59-3.58-3.56,0,0,0-.01,0-.02v-21.29c0-1.98,1.6-3.58,3.58-3.58s3.58,1.6,3.58,3.58v21.28c0,1.97-1.6,3.57-3.57,3.57h0v.02Z"/>
        <path class="cls-1" d="M232.82,362.06c-1.97,0-3.58-1.59-3.58-3.56,0,0,0,0,0,0v-4.42c0-1.98,1.6-3.58,3.58-3.58s3.58,1.6,3.58,3.58v4.41c0,1.97-1.59,3.58-3.56,3.58h-.02Z"/>
      </g>
      <g class="cls-4">
        <path class="cls-1" d="M271.35,442.27c-1.97,0-3.58-1.59-3.58-3.56,0,0,0-.01,0-.02v-39.2c0-1.98,1.6-3.58,3.58-3.58s3.58,1.6,3.58,3.58v39.2c0,1.97-1.6,3.57-3.57,3.57h0Z"/>
        <path class="cls-1" d="M271.35,390.74c-1.97,0-3.58-1.59-3.58-3.56,0,0,0,0,0,0v-4.42c0-1.98,1.6-3.58,3.58-3.58s3.58,1.6,3.58,3.58v4.41c0,1.97-1.59,3.58-3.56,3.58h-.02Z"/>
      </g>
      <g class="cls-4">
        <path class="cls-1" d="M437.34,395.67c1.97,0,3.57-1.6,3.57-3.57h0v-21.3c0-1.98-1.6-3.58-3.58-3.58s-3.58,1.6-3.58,3.58h0v21.28c0,1.97,1.6,3.57,3.57,3.57v.02Z"/>
        <path class="cls-1" d="M437.34,362.06c1.97,0,3.57-1.6,3.57-3.57v-4.42c0-1.98-1.6-3.58-3.58-3.58s-3.58,1.6-3.58,3.58v4.41c0,1.97,1.59,3.58,3.56,3.58h.02Z"/>
      </g>
      <g class="cls-4">
        <path class="cls-1" d="M398.81,442.27c1.97,0,3.58-1.59,3.58-3.56v-39.22c0-1.98-1.6-3.58-3.58-3.58s-3.58,1.6-3.58,3.58v39.2c0,1.97,1.6,3.57,3.57,3.57h0Z"/>
        <path class="cls-1" d="M398.81,390.74c1.97,0,3.58-1.59,3.58-3.56h0v-4.43c0-1.98-1.6-3.58-3.58-3.58s-3.58,1.6-3.58,3.58v4.41c0,1.97,1.59,3.58,3.56,3.58h.02Z"/>
      </g>
    </g>
  </g>
</svg>