<svg xmlns="http://www.w3.org/2000/svg" viewBox="0 0 452.41 464.45"><defs><style>.cls-2{fill:#f0875f}.cls-4{fill:#f24cae}.cls-5{fill:#6d3424}.cls-9{fill:#b25b44}</style></defs><g style="isolation:isolate"><g id="Ebene_2" data-name="Ebene 2"><g id="Ebene_1-2" data-name="Ebene 1"><path d="m216.37 198.42 16.07-48.58 21.55 6.8.09 3.42 5.86 4.11-1.51 1.01a9.032 9.032 0 0 0-4.01 7.75l-8.55 28.02-29.51-2.54Z" class="cls-2"/><path d="M238.52 155.34c-.04-1.43.05-2.57.25-3.51l15.23 4.81.09 3.42 5.86 4.11-1.51 1.01a9.052 9.052 0 0 0-3.97 6.65c-5.66-.97-15.58-4.38-15.95-16.49Z" style="fill:#96471b;mix-blend-mode:multiply;opacity:.3"/><path d="M240.07 129.27c4.17 13.59-2.25 27.61-14.34 31.32-12.09 3.71-25.26-4.3-29.43-17.89-4.17-13.59 2.25-27.61 14.34-31.32 12.09-3.71 25.26 4.3 29.43 17.89Z" class="cls-5"/><path d="M224.48 172.61a1 1 0 0 1-.93-.65.994.994 0 0 1 .59-1.27c.07-.02 6.65-2.48 8.45-7.21.79-2.07.53-4.33-.76-6.71a.99.99 0 0 1 1.74-.94c1.58 2.92 1.87 5.73.87 8.36-2.12 5.58-9.31 8.25-9.61 8.36-.11.04-.23.06-.34.06Z" class="cls-5"/><path d="M221.1 172.05c-.48 0-.9-.35-.97-.84a.984.984 0 0 1 .83-1.12c.08-.01 8.38-1.29 10.56-5.9.95-2.01.57-4.47-1.13-7.3a.98.98 0 0 1 .34-1.35.98.98 0 0 1 1.35.34c2.06 3.43 2.47 6.51 1.22 9.16-2.63 5.56-11.67 6.95-12.05 7-.05 0-.1.01-.14.01ZM254.79 103.75c6.46 10.92-.07 26.73-14.59 35.32s-31.52 6.7-37.98-4.21c-6.46-10.92.07-26.73 14.59-35.32s31.52-6.7 37.98 4.21Z" class="cls-5"/><path d="M218.32 102.73c-13.26 7.84-19.82 21.7-15.95 32.36-.05-.08-.11-.15-.16-.23-6.46-10.92.07-26.73 14.59-35.32s31.52-6.7 37.98 4.21c.56.95.99 1.94 1.36 2.96-6.57-10.7-23.41-12.51-37.82-3.98Z" class="cls-9"/><path d="M214.47 123.6c3 9.78-2.07 20-11.31 22.84-9.25 2.84-19.17-2.79-22.17-12.57-3-9.78 2.07-20 11.31-22.84 9.25-2.84 19.17 2.79 22.17 12.57Z" class="cls-5"/><path d="M213.16 125.92c-3-9.78-12.93-15.41-22.17-12.57-3.85 1.18-6.95 3.65-9.07 6.82 2.02-4.28 5.65-7.68 10.39-9.13 9.25-2.84 19.17 2.79 22.17 12.57 1.75 5.71.74 11.56-2.24 16.02 1.92-4.07 2.39-8.94.92-13.71Z" class="cls-9"/><path d="M222.45 141.86c-.8 0-1.56-.49-1.85-1.29-.38-1.02.15-2.16 1.17-2.53 13.3-4.9 21.38-11.31 24.02-19.06 2.68-7.89-1.44-14.57-1.48-14.64-.58-.92-.31-2.13.61-2.72a1.98 1.98 0 0 1 2.72.6c.21.33 5.17 8.26 1.91 17.95-3.02 8.96-11.9 16.22-26.42 21.56-.23.08-.45.12-.68.12Z" class="cls-5"/><path d="m231.92 126.48-.33 4.77s-1.01 8.81-10.05 10.62l-4.88-4.24-4.8-3.83 1.3-4.69 8.31-3.95 9.69 1.68" class="cls-5"/><path d="M237.62 108.8s13.15-.29 19.97 14.24a8.215 8.215 0 0 0 2.6 3.13l8.55 6.23c.57.42.88 1.1.82 1.8-.06.72-.5 1.35-1.15 1.66l-1.53.73c-.2.1-.35.27-.42.48l-.21.68c-.15.49 6.25 13.98 6.25 13.98 1.63 3.47.08 7.59-3.43 9.13l-2.32 1.02a41.453 41.453 0 0 1-11.82 3.21l-2.92.34c-5 .58-9.96-1.44-13.13-5.35l-4.02-4.96c-10.68 5.08-23.42-.99-26.03-12.53-1.78-7.89-1.36-16.34 5.43-21.99 0 0 11.05-10.57 23.33-11.79Z" class="cls-2"/><path d="M246.34 101.7c5.8 9.81-.69 24.38-14.51 32.56-13.82 8.17-29.72 6.85-35.52-2.95-5.8-9.81.69-24.38 14.51-32.56 13.82-8.17 29.72-6.85 35.52 2.96Z" class="cls-5"/><path d="M245.95 103.22c-5.79-9.79-22.2-10.8-36.65-2.25-3.89 2.3-7.22 5.07-9.93 8.07 2.82-3.88 6.69-7.47 11.45-10.29 13.82-8.17 29.72-6.85 35.52 2.96 2.97 5.03 2.7 11.3-.12 17.33 2.31-5.6 2.41-11.26-.28-15.81Z" class="cls-9"/><path d="M235.25 115.17s2.57 2.46-1.55 9.29c0 0-1.57 3.78.51 5.75 0 0 6.47 4.45 3.79 8.16 0 0-1.85 3.23-4.06 1.92 0 0-5.07-4.32-8.69-.06 0 0-4.01 4.19 1.49 10.12 0 0 2.79 3.14 6.78 2.83 0 0 6.59 6.53-2.8 14.43 0 0-15.53 4.49-26.08-15.29-4.38-8.22-4.34-18.19.46-26.17 2.72-4.53 7.15-9.25 14.3-13.31 0 0 8.9-5.36 13.8-1.53 0 0 1.31.47 2.06 3.86Z" class="cls-5"/><path d="M227.47 141.89c1.75-1.73 4.55-.02 5.34.53-1.3 1.97-.24 5.41 2.58 7.97.25.23.51.42.77.61-.16.24-.29.37-.29.37-1.03 1.32-4.9-.82-4.9-.82-7.84-3.85-3.5-8.66-3.5-8.66Z" style="opacity:.5;fill:#96471b;mix-blend-mode:multiply"/><path d="M236.45 152.94c.29.62 1.03.88 1.65.58a1.239 1.239 0 1 0-1.06-2.24c-.62.29-.88 1.03-.58 1.65Z" style="fill:#96471b"/><path d="M269.84 311.92C295.77 306 343.2 303 369.8 303c13.32 0 24.52 10 26.02 23.23l9.48 101.8a26.397 26.397 0 0 0 16.84 21.69l14.94 5.69c.92.35 1.89.53 2.87.53h1.53c1.66 0 3.28.51 4.64 1.47a8.04 8.04 0 0 0 4.64 1.47h1.63v2.79c0 1.54-1.25 2.79-2.79 2.79h-21.52l-19.37-1.87c-1.51-.15-3.02.17-4.34.92a7.45 7.45 0 0 1-3.63.95h-9.51c-4.36 0-7.58-4.06-6.6-8.31l2.71-11.67-20.17-57.15c-3.21-9.1-3.79-37.29-1.66-46.7l-44.18 5.74a76.527 76.527 0 0 0-16.75 6.28 76.594 76.594 0 0 1-26.96 8.08l-51.01 5.45 43.2-54.26Z" class="cls-2"/><path d="m403.47 411.9-7.65-85.66c-1.5-13.23-12.7-23.23-26.02-23.23-26.6 0-74.03 2.99-99.96 8.92l-43.2 54.26 51.01-5.45c9.41-1 18.55-3.74 26.96-8.08a76.527 76.527 0 0 1 16.75-6.28l44.18-5.74c-2.12 9.41-1.55 37.6 1.66 46.7l8.67 24.57h27.59Z" class="cls-4"/><path d="m212.28 205.19 21.6 70.52c2.65 8.65-.19 18.03-7.18 23.77l-6.56 5.38a41.79 41.79 0 0 0-31.82 28.02l-1.63 4.96-29.9 19.39a182.93 182.93 0 0 0-23.29 17.92l-3.94 3.57h-2.04c-16.68 0-58.5 24.38-73.4 31.88l-35.41 17.85-6.81-1.78c-6.55-1.71-11.91 2.43-11.91 9.2v12.46c0 4.83 2.79 11.57 6.21 14.98l1.13 1.13h34.61a7.486 7.486 0 0 0-7.42-6.42H28l-7.9-8.21v-.97a6.27 6.27 0 0 1 4.96-6.13c27.3-5.79 80.41-29.76 108.3-30.94l1.83-.08c7.33-.31 14.55-1.89 21.34-4.67l16.47-6.74c22.99-9.4 42.61-26.73 62.98-40.93l7.15-3.58 5.75-2.84c10.34-2.36 3.9-.75 9.03-10.04l10.62-20.77c4.65-8.43 13.51-14.77 14.69-24.32l5.09-41.33a29.5 29.5 0 0 0-.31-9.14l-1.91-9.91 3.23-4.42c2.55-3.49 2.79-8.16.62-11.89a53.49 53.49 0 0 0-16.32-17.41l-32.74-22.05a10.71 10.71 0 0 0-8.7-1.48l-6.99 1.83c-10.1 2.64-15.97 13.17-12.92 23.15Z" class="cls-2"/><path d="M228.5 297.83c-.56.58-1.16 1.13-1.79 1.65l-6.56 5.38a41.79 41.79 0 0 0-31.82 28.02l-1.63 4.96-29.9 19.39a182.93 182.93 0 0 0-23.29 17.92l-3.94 3.57h-2.04c-16.68 0-58.5 24.38-73.4 31.88l-9.8 4.94 9.05 22.02c19.69-7 61.69-25.01 79.99-25.78l1.83-.08c7.33-.31 14.55-1.89 21.34-4.67l16.47-6.74c22.99-9.4 44.87-21.31 65.24-35.52a37.286 37.286 0 0 0 24.32-18.31l11.83-21.42a75.545 75.545 0 0 0 8.83-27.22h-54.74ZM288.01 247.36l-1.91-9.91 3.23-4.42c2.58-3.52 2.76-8.23.55-12a53.202 53.202 0 0 0-7.09-9.49l-5.71-2.65a48.266 48.266 0 0 1-18.81-15.5l-15.01-10.11 13.64 30.75c3.3 7.45-.02 16.16-7.44 19.52l-25.03 11.32 8.5 27.74 55.59-20.68c-.05-1.54-.22-3.07-.51-4.58Z" class="cls-4"/><path d="m288.01 247.36-.79-4.07-56.61 21.78 2.31 7.55 55.59-20.68c-.05-1.54-.22-3.07-.51-4.58Z" style="fill:#af66ff"/><path d="m253.14 109.4-15.58 94.98c-.25 1.65-1.33 2.95-2.73 3.61l-.05.03c-.25.1-.43.15-.58.2-.13.05-.2.08-.2.08-.63.2-1.33.25-2.03.13l-14.7-2.43c-2.63-.43-4.43-2.93-4.01-5.58l14.12-86.12 1.45-8.86c.45-2.65 2.95-4.46 5.61-4.01l10.07 1.65 4.61.75s.08.03.13.03c2.58.48 4.33 2.98 3.88 5.56Z" class="cls-2"/><path d="M245.42 122.3c-.48.3-1 .55-1.53.78-1.53.63-3.11.93-4.66.93-4.86 0-9.47-2.88-11.42-7.61l-.43-2.1-12.7-62.68c-.08-.2-.15-.4-.25-.6-.08-.2-.18-.43-.28-.65l9.24-3.83 1.85-.75 23.99 58.07 1.3 3.16c2.35 5.73.08 12.27-5.13 15.3Z" class="cls-2"/><path d="M224.77 49.9c-.65 1.23-1.73 2.23-3.13 2.83-2.65 1.13-5.63.35-7.19-1.73-.2-.25-.38-.55-.53-.85l-.03.03c-2.98-6.36-9.32-16.43-10.99-25.12l-.28-23.29c0-.8.53-1.43 1.2-1.68.5-.18 1.08-.13 1.58.25 5.63 4.38 11.54 25.84 13.82 31.18l5.63 13.3c.05.1.13.2.18.3.1.23.18.43.23.65.4 1.4.18 2.88-.5 4.13Z" class="cls-2"/></g></g></g></svg>