<svg xmlns="http://www.w3.org/2000/svg" id="Ebene_2" data-name="Ebene 2" viewBox="0 0 1594.14 1262.66"><defs><style>.cls-2{fill:#f24cae}.cls-4{fill:#fefefe}</style></defs><g id="Ebene_2-2" data-name="Ebene 2"><g id="Zumba_Stream" data-name="Zumba Stream"><path d="M622.15 403.12c5.61 11.28 8.42 21.18 8.42 29.7s-3.94 18.78-11.83 30.78-17.45 23.52-28.67 34.56a991.091 991.091 0 0 1-33.53 31.5c-11.13 9.96-20.63 18.66-28.51 26.1-7.89 7.44-11.83 12.48-11.83 15.12 0 3.6 1.62 5.4 4.86 5.4 10.58 0 25.38-1.5 44.39-4.5 19-3 33.15-4.5 42.44-4.5 14.47 0 21.71 4.2 21.71 12.6 0 7.44-7.45 14.88-22.36 22.32-14.9 7.44-32.03 13.26-51.35 17.46-19.33 4.2-36.56 6.3-51.68 6.3-10.59 0-19.93-6.24-28.03-18.72s-12.15-23.64-12.15-33.48 6.53-22.5 19.6-37.98 27.38-29.82 42.93-43.02c15.55-13.2 29.86-25.68 42.93-37.44s19.6-19.32 19.6-22.68c0-11.04-13.28-16.56-39.85-16.56-9.07 0-16.8.66-23.17 1.98s-10.53 1.98-12.47 1.98c-5.83 0-11.78-4.44-17.82-13.32-6.05-8.88-9.07-16.44-9.07-22.68s6.37-10.92 19.12-14.04c6.91-1.68 15.66-2.52 26.24-2.52 23.33 0 47.09 4.92 71.28 14.76 6.91 2.64 13.17 9.6 18.79 20.88ZM779.29 449.56c1.73-6 5.18-9 10.37-9s11.18 4.92 17.98 14.76 10.21 18.36 10.21 25.56c0 2.64-4.97 20.28-14.9 52.92-9.94 32.64-17.61 58.44-23 77.4-3.03 10.08-8.1 15.12-15.23 15.12-4.32 0-7.94-1.74-10.85-5.22-2.92-3.48-4.37-8.94-4.37-16.38s1.3-18 3.89-31.68c-22.25 35.52-39.96 53.28-53.14 53.28-6.92 0-15.23-4.98-24.95-14.94-9.72-9.96-14.58-19.62-14.58-28.98 0-23.04 5.88-52.44 17.66-88.2 11.77-35.76 22.84-53.64 33.21-53.64 6.26 0 11.83 3.12 16.69 9.36s7.29 13.08 7.29 20.52c0 2.88-2.7 10.92-8.1 24.12-16.42 39.6-24.62 67.56-24.62 83.88 0 1.44.54 2.16 1.62 2.16 3.24 0 9.34-5.7 18.31-17.1 8.96-11.4 19-27.72 30.13-48.96 11.12-21.24 19.93-42.9 26.41-64.98h-.03ZM1041.08 440.56c8.42 0 15.44 6.24 21.06 18.72 5.61 12.48 8.42 23.88 8.42 34.2s-1.78 25.62-5.35 45.9c-3.56 20.28-9.18 39.84-16.85 58.68-7.67 18.84-15.93 28.26-24.79 28.26-7.13 0-10.69-5.4-10.69-16.2s2.8-28.44 8.42-52.92c5.61-24.48 8.42-40.56 8.42-48.24s-1.08-11.52-3.24-11.52c-4.54 0-9.94 5.52-16.2 16.56-6.27 11.04-13.77 25.8-22.52 44.28s-14.21 30.36-16.36 35.64c-2.16 5.28-3.94 9.48-5.35 12.6s-2.97 6.36-4.7 9.72c-6.92 12.72-16.09 12.72-27.54 0-5.83-6.48-8.75-12.36-8.75-17.64 0-.96 1.78-10.14 5.35-27.54 3.56-17.4 5.35-37.26 5.35-59.58 0-9.36-.97-14.04-2.92-14.04-2.59 0-5.62 2.88-9.07 8.64-3.46 5.76-8.75 16.2-15.88 31.32s-13.28 27.6-18.47 37.44c-18.14 34.32-31.97 51.48-41.47 51.48-4.75 0-10.64-4.44-17.66-13.32-7.02-8.88-10.53-15.66-10.53-20.34s2.43-15.96 7.29-33.84 7.99-36.9 9.4-57.06c1.4-20.16 2.7-35.88 3.89-47.16 1.18-11.28 3.73-16.92 7.61-16.92 8.21 0 16.14 3.78 23.81 11.34s11.5 14.46 11.5 20.7c0 14.16-4.65 38.88-13.93 74.16 15.12-40.08 27.86-67.2 38.23-81.36 11.02-14.64 21.6-21.96 31.75-21.96 5.62 0 12.58 5.76 20.9 17.28 8.31 11.52 12.47 22.26 12.47 32.22s-.11 18.66-.32 26.1c6.69-18.72 16.85-36 30.46-51.84 13.61-15.84 26.35-23.76 38.23-23.76h.03ZM1214.09 440.92c9.93 0 19.38 6.12 28.35 18.36 8.96 12.24 13.45 23.88 13.45 34.92s-2.27 24-6.8 38.88c-4.54 14.88-10.58 29.28-18.14 43.2s-17.07 25.68-28.51 35.28c-11.45 9.6-23.38 14.4-35.8 14.4s-26.52-6.6-42.28-19.8c-4.32 13.44-7.89 20.16-10.69 20.16-4.54 0-10.26-4.2-17.17-12.6-6.92-8.4-10.37-15.24-10.37-20.52s3.56-22.56 10.69-51.84c21.38-87.84 32.08-151.44 32.08-190.8 0-7.2 3.13-10.8 9.4-10.8 4.97 0 11.66 5.22 20.09 15.66 8.42 10.44 12.64 20.22 12.64 29.34 0 21.36-5.51 54.6-16.52 99.72 24.62-29.04 44.49-43.56 59.62-43.56h-.04Zm-52.49 143.64c11.88 0 24.03-10.32 36.45-30.96 12.42-20.64 18.63-40.92 18.63-60.84 0-1.44-.27-2.34-.81-2.7-.54-.36-2-.54-4.37-.54-11.88 0-24.57 7.92-38.07 23.76-13.5 15.84-25.43 35.64-35.8 59.4 9.07 7.92 17.06 11.88 23.98 11.88ZM1409.79 524.08c3.89 3.84 5.83 7.32 5.83 10.44s-1.3 9.6-3.89 19.44-4.32 17.46-5.18 22.86c-.87 5.4-1.57 9.66-2.11 12.78-.54 3.12-.92 5.58-1.13 7.38-.22 1.8-.6 4.02-1.13 6.66-.54 2.64-.97 4.74-1.3 6.3-.32 1.56-.76 3.36-1.3 5.4-.54 2.04-1.13 3.6-1.78 4.68s-1.41 2.22-2.27 3.42c-1.3 1.92-3.46 2.88-6.48 2.88s-6.75-3.36-11.18-10.08c-4.43-6.72-7.73-14.88-9.88-24.48-20.31 23.04-37.37 34.56-51.19 34.56-9.29 0-19.33-5.7-30.13-17.1-10.8-11.4-16.2-22.8-16.2-34.2s4.64-27.66 13.93-48.78c9.28-21.12 21.98-40.68 38.07-58.68s32.02-27 47.79-27c9.07 0 19.55 5.88 31.43 17.64s17.82 22.5 17.82 32.22-3.24 20.94-9.72 33.66Zm-94.28 56.88c8.64 0 20.14-6.54 34.51-19.62 14.36-13.08 23.27-29.58 26.73-49.5.21-2.88 2.05-4.56 5.51-5.04-.65-13.68-2.7-20.52-6.16-20.52-8.64 0-18.31 6.24-29 18.72s-19.44 25.8-26.24 39.96-10.21 24.6-10.21 31.32c0 1.92.27 3.18.81 3.78.54.6 1.89.9 4.05.9ZM734.57 856.24c0 20.4-8.75 37.92-26.24 52.56-17.5 14.64-37.48 21.96-59.94 21.96s-40.56-6.18-54.27-18.54c-13.72-12.36-20.57-25.14-20.57-38.34s3.35-19.8 10.04-19.8c5.18 0 10.58 2.88 16.2 8.64 5.61 5.76 11.93 11.52 18.95 17.28s14.96 8.64 23.81 8.64 18.9-4.08 30.13-12.24 16.85-15 16.85-20.52-6.11-14.76-18.31-27.72a1715.657 1715.657 0 0 1-36.61-40.14c-12.21-13.8-18.31-24.48-18.31-32.04s1.24-15.78 3.73-24.66c2.48-8.88 5.56-15 9.23-18.36 11.66-12.72 26.73-23.7 45.2-32.94 18.47-9.24 34.72-13.86 48.76-13.86 8.21 0 15.01 3.9 20.41 11.7 5.4 7.8 8.1 15.9 8.1 24.3 0 3.36-2.43 6.06-7.29 8.1s-11.88 4.14-21.06 6.3-18.52 5.28-28.03 9.36c-22.03 9.12-33.05 16.8-33.05 23.04 0 2.88 3.78 8.1 11.34 15.66s15.82 15.48 24.79 23.76c8.96 8.28 17.22 18.72 24.79 31.32 7.56 12.6 11.34 24.78 11.34 36.54h.01ZM836.15 815.38c-3.35 11.64-7.45 26.22-12.31 43.74s-7.29 26.82-7.29 27.9 1.78 1.62 5.35 1.62 12.04-2.7 25.43-8.1c13.39-5.4 21.27-8.1 23.65-8.1 5.4 0 8.1 4.08 8.1 12.24s-7.24 17.94-21.71 29.34c-14.47 11.4-29.59 17.1-45.36 17.1-6.92 0-15.12-4.2-24.62-12.6-9.51-8.4-14.26-16.92-14.26-25.56 0-7.2 3.29-22.38 9.88-45.54s11.07-39.06 13.45-47.7c-8.42 2.64-14.8 3.96-19.12 3.96s-8.86-3.3-13.61-9.9c-4.75-6.6-7.13-12.9-7.13-18.9 0-7.68 16.74-14.16 50.22-19.44 4.1-22.32 6.16-41.64 6.16-57.96 0-7.2 3.24-10.8 9.72-10.8 5.61 0 12.8 3.78 21.55 11.34s13.12 15 13.12 22.32-1.41 17.58-4.21 30.78c10.37-.48 18.25-.72 23.65-.72 16.2 0 24.3 4.08 24.3 12.24 0 5.28-4.7 9.78-14.09 13.5-9.4 3.72-23.81 7.74-43.25 12.06-1.73 6.48-4.27 15.54-7.61 27.18ZM923.79 806.2l-1.94-40.68c0-13.44 3.78-20.16 11.34-20.16 4.32 0 8.59 1.8 12.8 5.4 4.21 3.6 7.4 9.24 9.56 16.92 7.34-7.2 15.39-13.02 24.14-17.46s16.47-6.66 23.17-6.66c15.76 0 23.65 4.2 23.65 12.6 0 4.32-.7 7.5-2.11 9.54-1.41 2.04-2.49 3.54-3.24 4.5-.76.96-2.06 2.22-3.89 3.78-1.84 1.56-3.19 2.7-4.05 3.42-4.97 3.6-8.54 6.12-10.69 7.56-9.72 6.72-18.04 14.82-24.95 24.3-6.92 9.48-12.1 22.62-15.55 39.42-5.83 27.6-11.5 48.18-17.01 61.74s-11.66 20.34-18.47 20.34-11.88-3.6-15.23-10.8-5.02-13.98-5.02-20.34 2.11-15.9 6.32-28.62 7.13-23.7 8.75-32.94 2.43-19.86 2.43-31.86h-.01ZM1146.86 844.36c-14.37 9.36-29.11 14.04-44.23 14.04s-27.54-1.2-37.26-3.6c-1.94 6.48-2.92 12.96-2.92 19.44s.97 11.1 2.92 13.86c1.94 2.76 6.8 4.14 14.58 4.14 16.2 0 30.08-1.68 41.63-5.04s17.55-5.04 17.98-5.04c8.85 0 13.28 3.24 13.28 9.72 0 9.36-6.97 18.24-20.9 26.64s-30.03 12.6-48.28 12.6-32.89-6.36-43.9-19.08c-11.02-12.72-16.52-27.78-16.52-45.18s4.59-35.58 13.77-54.54 20.68-34.86 34.51-47.7c13.82-12.84 27.59-19.26 41.31-19.26s26.41 7.5 38.07 22.5 17.5 29.94 17.5 44.82c0 11.76-7.18 22.32-21.55 31.68h.01Zm-22.84-47.88c-4.54-4.56-8.8-6.84-12.8-6.84s-9.13 3.18-15.39 9.54c-6.27 6.36-12.21 14.58-17.82 24.66 1.94.24 4.75.36 8.42.36 29.59 0 44.39-5.76 44.39-17.28 0-2.4-2.27-5.88-6.8-10.44ZM1319.07 828.88c3.89 3.84 5.83 7.32 5.83 10.44s-1.3 9.6-3.89 19.44-4.32 17.46-5.18 22.86c-.87 5.4-1.57 9.66-2.11 12.78-.54 3.12-.92 5.58-1.13 7.38-.22 1.8-.6 4.02-1.13 6.66-.54 2.64-.97 4.74-1.3 6.3-.32 1.56-.76 3.36-1.3 5.4-.54 2.04-1.13 3.6-1.78 4.68s-1.41 2.22-2.27 3.42c-1.3 1.92-3.46 2.88-6.48 2.88s-6.75-3.36-11.18-10.08c-4.43-6.72-7.73-14.88-9.88-24.48-20.31 23.04-37.37 34.56-51.19 34.56-9.29 0-19.33-5.7-30.13-17.1-10.8-11.4-16.2-22.8-16.2-34.2s4.64-27.66 13.93-48.78c9.28-21.12 21.98-40.68 38.07-58.68s32.02-27 47.79-27c9.07 0 19.55 5.88 31.43 17.64s17.82 22.5 17.82 32.22-3.24 20.94-9.72 33.66Zm-94.28 56.88c8.64 0 20.14-6.54 34.51-19.62 14.36-13.08 23.27-29.58 26.73-49.5.21-2.88 2.05-4.56 5.51-5.04-.65-13.68-2.7-20.52-6.16-20.52-8.64 0-18.31 6.24-29 18.72s-19.44 25.8-26.24 39.96c-6.8 14.16-10.21 24.6-10.21 31.32 0 1.92.27 3.18.81 3.78.54.6 1.89.9 4.05.9ZM1564.66 745.36c8.42 0 15.44 6.24 21.06 18.72 5.61 12.48 8.42 23.88 8.42 34.2s-1.78 25.62-5.35 45.9c-3.56 20.28-9.18 39.84-16.85 58.68-7.67 18.84-15.93 28.26-24.79 28.26-7.13 0-10.69-5.4-10.69-16.2s2.8-28.44 8.42-52.92c5.61-24.48 8.42-40.56 8.42-48.24s-1.08-11.52-3.24-11.52c-4.54 0-9.94 5.52-16.2 16.56-6.27 11.04-13.77 25.8-22.52 44.28s-14.21 30.36-16.36 35.64c-2.16 5.28-3.94 9.48-5.35 12.6s-2.97 6.36-4.7 9.72c-6.92 12.72-16.09 12.72-27.54 0-5.83-6.48-8.75-12.36-8.75-17.64 0-.96 1.78-10.14 5.35-27.54 3.56-17.4 5.35-37.26 5.35-59.58 0-9.36-.97-14.04-2.92-14.04-2.59 0-5.62 2.88-9.07 8.64-3.46 5.76-8.75 16.2-15.88 31.32s-13.28 27.6-18.47 37.44c-18.14 34.32-31.97 51.48-41.47 51.48-4.75 0-10.64-4.44-17.66-13.32s-10.53-15.66-10.53-20.34 2.43-15.96 7.29-33.84 7.99-36.9 9.4-57.06c1.4-20.16 2.7-35.88 3.89-47.16 1.18-11.28 3.73-16.92 7.61-16.92 8.21 0 16.14 3.78 23.81 11.34s11.5 14.46 11.5 20.7c0 14.16-4.65 38.88-13.93 74.16 15.12-40.08 27.86-67.2 38.23-81.36 11.02-14.64 21.6-21.96 31.75-21.96 5.61 0 12.58 5.76 20.9 17.28 8.31 11.52 12.47 22.26 12.47 32.22s-.11 18.66-.32 26.1c6.69-18.72 16.85-36 30.46-51.84s26.35-23.76 38.23-23.76h.03Z" class="cls-2"/><path d="M19.02 990.16c1.19.37 1.19-.88 1.26-1.27 2.09-12.52 7.39-23.99 11.68-35.78 3.84-10.52 6.78-21.33 10.35-31.94 2.66-7.93 5.43-15.83 8.47-23.62 1.62-4.16 1.67-8.65 3.47-12.77.93-2.13 1.94-4.25 2.87-6.39 3.06-7.11 5.08-14.66 9.51-21.22 2.69-3.99 5.81-7.46 9.65-10.14 6.38-4.46 11.94-9.81 17.6-15.07 8.47-7.88 16.07-16.57 23.67-25.27 7.19-8.22 14.7-16.17 21.86-24.41 5.42-6.24 10.75-12.57 15.66-19.25 1.66-2.26 4.42-3.71 6.63-5.61 12.54-10.84 25.49-21.19 37.76-32.35 7.98-7.26 16.35-14.1 23.89-21.86 1.37-1.41 1.83-2.88 1.4-4.57-2.46-9.68-2.87-19.62-4.02-29.47-1.35-11.51-1.93-23.12-4.39-34.5-2.44-11.24-4.56-22.55-7.21-33.73-4.27-18.04-8.32-36.16-13.67-53.91-2.38-7.9-4.69-15.89-8.41-23.36-1.09-2.19.32-4.42.57-6.61.83-7.19.9-14.34-.03-21.51-.2-1.53-.17-3.1-.25-4.8-.51.16-.93.15-1.07.35-.66.99-1.77 1.99-2.58 1.04-1.04-1.22.15-2.22 1.4-2.72 1.54-.62 1.46-1.47 1.36-3.11-.41-6.94-1.63-13.76-2.43-20.64-.72-6.2-.69-12.5-2.37-18.57-.38-1.36-.21-2.69-.25-4.03 0-.52.08-1.5.73-1.12 1.23.71 1.3.39 1.29-.79-.05-9.14.34-18.3-.78-27.39-.43-3.49-1.72-6.88-2.61-10.32-.08-.32-.08-.86-.26-.94-5.81-2.39-3.26-7.87-3.59-11.64-1.5-17.45-1.01-35-.86-52.51.06-6.74 1.13-13.4 2.33-20.07 1.1-6.11 2.21-12.2 3.78-18.19 1.09-4.16 1.6-8.71 5.51-11.67.22-.17 1.94-2.23.05-3.38.93-1.49 1.06-2.96 1.03-4.8-.03-1.39 1.08-1.78.19-3.26-.15-.25 0-.66 0-1 .21-.38.58-.54.92-.73 1.17-1.87.66-4.06 1.16-6.05.24-1.61 1.04-3.22-.03-4.82-.57-.69-.55-1.38 0-2.07 2.1-.74 2.75-2.73 1.44-4.41-.67-.85-.49-1.63.52-2.32.68-1.95.63-4.02 1.05-6.02.09-.44.03.13-.04-.31-.05-.34-.24-.3-.33.07-2.25.53-2.21-1.01-1.94-2.37.73-3.79 1.28-7.24-1.1-11.03-1.56-2.5-.38-6.17 2.16-8.18 1.6-1.26 1.24-2.3.81-3.55-.87-2.56-1.37-5.13-1.31-7.85.04-1.64.1-3.14 1.59-4.17 1.32-.91 1.11-2.31 1.18-3.66.2-3.79-.66-7.64.72-11.35.43-.46.95-.55 1.53-.43 1.64 1.03 1.5-.52 1.84-1.32 2.33-5.41 2.57-11.22 2.96-16.95.54-7.91-.39-15.8-.98-23.68-.81-10.92-2.31-21.81-1.55-32.79.43-6.17 1.16-12.33.92-17.69.58 3.74-.59 8.27-.38 12.84.04.91 0 1.82-.74 2.51-.56.33-1.1.37-1.58-.15-.29-7.02-1.13-14.02-.62-21.69-3.84 4.94-5.67 9.97-6.7 15.3-.71 3.66 2.43 2.86 4.58 3.36-1.43 2.36-3.69 2.11-5.38 1.54-1.84-.62-1.47-2.78-1.36-4.45.48-7.15 3.91-13.12 7.6-18.99.24-.38.58-.71.03-1.39-4.49 1.32-6.11 5.42-8.12 8.98-1.52 2.7-2.45 5.69-4.16 8.37-1.45 2.27-2.95 4.38-5.7 3.41-2.64-.93-3.65-3.48-4.02-6.33-1.21-9.23 3.36-15.95 9.31-22.1 4.29-4.43 4.07-7.88-1.13-11.11-11.09-6.9-18.36-17.1-24.74-28.13-5.3-9.16-9.16-18.94-12.61-28.91-.57-1.66-1.75-3.21-1.94-4.89-.46-4.16-.12-8.35.58-12.48h4.75c1.32.69 2.44 1.6 3.19 2.92 2.06 3.62 4.13 7.24 5.59 10.79-.09-1.84-.36-4-1.15-6.1-.44-1.16-.5-2.54.5-3.5 1.1-1.06 2.35-.43 3.46.1 4.54 2.15 7.99 5.52 10.3 9.92 2.78 5.3 4.82 10.94 7.21 16.42 2.71 6.21 5.52 12.37 10.98 16.83 3.01 2.46 5.43 2.96 8.17 1.28.52-.2 1.03-.18 1.54.02 4.31 2.95 8.84 3.03 13.35.7 3.99-2.05 8.2-1.7 11.59 1.33 2.27 2.03 7.52 2.15 10.01.18 3.46-2.73 6.53-5.97 10.48-8.04 1.78-.93 3.77-2.61 5.64-1.46 2.09 1.28 1.09 3.9 1.12 5.99 0 .45-.09.91-.26 1.33-.54 1.34-.9 3.31-2.63 3.06-1.9-.28-1.36-2.24-1.31-3.66 0-.33.08-.66-.34-1.31-4.05 1.95-7.43 4.83-10.55 8.03-1.04 1.07-.72 2.26-.06 3.44 2.06 3.65 4.28 7.2 6.18 10.94.48.95 1.24 1.6 2.26 1.94.64.22 1.3.4 1.9.74 1.81 1.03 3.29 2.42 2.3 4.63-1.13 2.5-2.82.62-4.51.06-.59 1.63-.19 3.25.42 4.54 1.09 2.31.44 3.84-1.4 5.26-4.36 3.36-5.28 7.98-4.6 13.09 1.76 13.34 3.09 26.74 5.19 40.04 1.11 7.04 2.36 14.06 3.66 21.06 1.61 8.69 1 17.38 1.08 26.08.02 1.92.24 2.65 2.38 2.99 7.09 1.13 13.16 4.85 19.04 8.64 5.83 3.76 12.21 5.27 18.89 5.99 12.67 1.36 25.25.19 37.87-1.03 8.31-.8 16.72-1 25.01-1.83 15.15-1.52 30.31-1.53 45.42-.99 12.59.45 25.35 1.23 37.18 6.62 4.43 2.02 7.54 4.96 9.06 9.86 4.24 13.64 5.05 27.54 3.68 41.63-.78 7.99-1.02 16.02-1.99 24-1.28 10.56-2.9 21.06-4.44 31.58-1.75 11.98-4.46 23.79-6.18 35.78-.54 3.73-2.08 7.34-3.81 10.84-5.17 10.45-9.83 21.13-14.47 31.83-1.46 3.36-2.16 6.92-3.1 10.4-2.52 9.33-7 17.91-9.99 27.06-3.58 10.94-5.52 22.1-6.53 33.55-.87 9.82.62 19.39 1.74 29.02.47 4.08.24 8.14.41 12.52.9-.66 1.65-1.76 2.81-1.11 1.04.58 1.11 1.66 1.06 2.69-.1 1.8.07 3.66-.62 5.37-3.26 8.11-3.71 16.76-4.7 25.29-.64 5.54-1.57 10.98-3.79 16.13-.09.21-.16.42-.26.63-.95 2.13-.66 4.16 1.21 5.48 1.86 1.32 3.71.17 5.31-.93 1.51-1.04 1.94-2.71 2.18-4.44.12-.89.19-1.96 1.39-2 1.02-.04 1.56.77 1.99 1.61 1.26 2.48.26 6.02-2.67 7.59-3.52 1.89-6.88 4.46-11.36 3.62-2.04-.38-2.89.85-2.63 2.86.19 1.48.63 2.88 1.41 4.15 5.59 9.16 8.9 19.27 12.44 29.31 3.95 11.21 7.56 22.54 13.25 33.07 1.41 2.61 3.05 3.37 5.74 2.55 1.08-.33 2.19-.59 3.31-.75 1.11-.17 2.41-.45 3 .83.57 1.23-.42 2.12-1.19 2.94-1.02 1.1-2.28 1.88-3.64 2.46-1.9.81-2.45 2-1.81 4.03.67 2.16 1.44 4.29 1.91 6.51 0 .45.56-.12.14.04-.1.04-.1-.07-.13-.31-.15-1.18-.2-2.36 1.24-2.75 1.17-.31 1.88.52 2.54 1.32.36.44.73.88.98 1.38 1.1 2.21 2.47 3.46 5 1.77.63-.42 1.54-.29 2.34-.24 1.49.09 3.2.15 3.56 1.93.36 1.78-1.06 2.69-2.53 3.08-2.09.56-2.24 1.37-.89 2.97 8.9 10.55 15 22.86 21.74 34.78.39.69.83 1.36 1.16 2.08.84 1.85 2.06 2.27 3.78 1.14.47-.31.96-.62 1.47-.84 1.17-.5 2.52-1.96 3.62-.54 1.26 1.65-.14 3.26-1.45 3.94-3.2 1.66-2.2 3.24-.61 5.45 2.33 3.25 3.68 6.98 4.38 10.95.87 4.9 1.83 9.79 2.47 14.73.74 5.69 2.56 10.98 5.72 15.83 2.28 3.49 1.54 7.58 1.09 11.27-1.25 10.24-.1 20.36 1.06 30.45 1.08 9.42 2.32 18.88 5.21 27.99.48 1.52.79 3.15 2.04 4.22 3.02 2.59 3.6 6.17 3.15 9.62-1.25 9.53 1.09 18.33 4.06 27.24 3.92 11.78 10.16 22.45 15.09 33.74 1.67 3.84 3.2 7.74 4.2 11.82.68 2.78 1.11 2.98 3.65 1.44 3.67-2.23 7.24-4.66 11.27-6.23 1.32-.51 2.91-1.5 4 .11.96 1.41.09 2.94-.88 4.04-1.67 1.9-3.18 4.21-6.48 3.04-1.41-.5-8.09 3.55-8.62 4.86-.43 1.07.13 2 .55 2.91 9.89 21.42 17.23 43.8 25.23 65.95 6.19 17.14 12.83 34.12 18.87 51.31 2.59 7.37 5.09 14.78 7.39 22.24 2.33 7.55 5.7 14.54 10.16 21.01 6.18 8.97 9.92 18.99 13.14 29.3 6.41 20.56 11.56 41.42 15.73 62.54.29 1.45.45 2.77 2.53 1.77 5.2-2.5 10.53-4.75 14.95-8.6 3.2-2.77 3.29-4.09.34-7.01-.79-.78-1.53-1.58-.46-2.54.95-.86 1.87-2.07 3.51-1.22 1.51.78 2.24 2.19 3.03 3.56v5.44c-3.96 3.71-7.61 7.78-12.6 10.25-3.35 1.66-6.31 4.11-10.11 4.88-.91.19-1.63.75-1.79 2.08-.94 7.84-1.31 15.67.77 23.38.86 3.2 2.18 6.28 3.42 9.36.3.74 1.02 1.44.26 2.07-.9.75-1.77.06-2.27-.69-.79-1.21-1.6-2.47-2.03-3.83-.72-2.3-1.5-4.7-1.89-6.96-.64-3.72-2.49-4.09-5.49-3.89-2.68.18-5.39.04-8.13.04.52 3.21.61 6.04-2.05 8.09-1.17.9-.11 1.55.22 2.16 4.46 8.24 4.14 16.62.04 24.69-2.98 5.86-7.97 9.42-14.99 9.24-2.17-.05-4.09-.83-3.46 3.36.76 5.06-1.81 9.82-6.3 12.86-5.9 3.98-12.44 5.8-19.63 5.57-6.16-.19-12.35.24-18.25-2.1-6.94-2.76-11.07-6.94-11.21-15.69-.12-7.6 1.8-14.76 3.89-21.95 1.78-6.13.73-12.45.89-18.68.05-1.84-1.41-1.43-2.44-1.41-4.39.08-8.67-.68-12.99-1.3-4.43-.64-7.37-3.42-10.26-6.34-.41-.41-.43-1.1-1.28-1.22-5.6-.83-7.6-5.32-9.64-9.7-.56-1.2-.9-2.51-1.33-3.77-1.53-4.5-4.87-6.91-9.44-6.9-1.18 0-1.06.41-.93 1.38.16 1.14.61 2.49-.55 3.49-.24.23-.48.24-.73 0-1.66-4.79-1.12-6.28 3.29-8.6-7.5-8.54-11.6-18.73-14.44-29.52-3.54-13.49-6.92-27.03-10.64-40.48-1.57-5.66-3.6-11.22-4.62-17.01-1.32-7.45-2.17-14.99-3.5-22.44-.68-3.78-1.88-7.48-3.02-11.17-1.83-5.95-2.18-12.23-3.99-18.16-2.51-8.24-5.93-16.15-8.97-24.21-3.46-9.19-6.95-18.31-11.66-26.99-3.17-5.83-5.2-12.29-7.57-18.54-3.12-8.23-6.1-16.52-9.11-24.79-2.6-7.15-5.02-14.37-7.77-21.46-4.69-12.1-9.15-24.29-14.12-36.29-4.72-11.38-9.9-22.51-15.41-33.48-4.65-9.24-10.11-18.11-16.39-26.41-1.73-2.29-2.86-6.22-5.3-6.48-3.68-.4-7.63 1.05-11.38 2.03-12.47 3.25-23.69 9.17-33.81 17.02a50.67 50.67 0 0 0-9.87 10.17c-2.35 3.23-5.94 5.12-8.99 7.53-4.14 3.26-8.44 6.41-11.91 10.31-5.62 6.32-12.39 10.9-19.75 14.77-1.46.77-2.78 1.75-3.54 3.05-3.09 5.29-8.01 8.57-12.8 11.95-3.73 2.63-7.4 5.29-10.7 8.43-4.75 4.52-10.89 6.96-16.09 10.8-10.66 7.86-21.96 14.74-31.71 23.98-5.45 5.16-9.94 11.44-16.41 15.55-.71.45-1.39 1.29-1.62 2.08-2.44 8.18-6.7 16.33-5.88 24.8 1.04 10.83-2.55 20.32-5.44 30.12a841.495 841.495 0 0 1-9.63 30.49c-3.86 11.5-8.01 22.87-12.99 33.93-1.06 2.34-.54 4.23.93 6.48 2.9 4.47 4.15 9.66 3.66 15-.97 10.74-5.45 19.87-13.43 27.16-2.22 2.02-4.72 3.73-7.39 5.81 2.49 1.98 5.01 4.04 7.58 6.03 4.88 3.77 9.54 7.72 12.96 12.99 4.23 6.52 4.58 12.58-.69 18.01-4.79 4.94-8.48 10.98-14.37 14.86-.37.24-.64.86-.99.89-6.05.57-9.14 5.66-13.49 8.81-2.66 1.93-5.7 1.8-8.73 1.69-.15 3.26 1.21 6.16 1.66 9.19.34 2.32 2.02 3.62 2.83 5.49 2.14 4.92.3 10.23-5.13 15.17-7.1 6.46-15.14 11.47-24.61 13.23-11.76 2.18-24.46-1.33-32.84-11.48-5.11-6.18-4.28-12.52-2.17-19.21.56-1.77 1.92-3.19 3.48-4.01 2.46-1.29 3.48-3.76 5.28-5.56.65-.65.56-1.41.08-2.17-1.43-2.27-.54-5.49-3.41-7.38-.89-.59-.31-3.11-1.1-4.87-1.15-2.58-2.5-1.55-3.74-.95-1.13.55-1.94 1.58-3.23.37-1.17-1.09-1.17-2.19-.63-3.65.45-1.19.98-2.18 1.86-3.1 3.78-3.9 3.6-6.92-.19-10.65-1.81-1.78-4.28-3.25-4.16-6.43.05-1.4.42-2.55 1.62-3.09 1.16-.51 2.13.42 2.9 1.17 1.94 1.89 3.81 3.85 5.64 5.86.41.46.51 1.42 1.33 1.1.87-.34.99-1.27.6-2.03-2.37-4.6-1.92-9.57-1.79-14.44.1-3.62 2.76-6.38 6.66-6.8 1.92-.2 2.18-1.03 2.26-2.49.3-5.3 1.34-10.51 1.35-15.88 0-3.58-1.43-5.79-4.09-7.5-8.68-5.59-16.87-11.85-24.01-19.28-3.52-3.66-6.1-8.27-6-13.79.08-4.22-.37-8.43 1.96-12.41 1.02-1.74 2.89-2.25 3.86-4.04 1.79-3.32 1.55-6.94 2.28-10.39 1.59-7.54 2.98-15.13 4.28-22.73 1.2-7.06 2.39-14.14 3.17-21.26.41-3.74 2.53-7.08 2.15-10.93.91-.37-.56-2.27 1.3-2.03l.02-.03Z" style="fill:#f04bad"/><path d="M19.02 990.16c-1.08.26-.32 1.71-1.3 2.03.69-5.8 1.3-11.6 2.09-17.38.8-5.89 1.76-11.76 2.69-17.64.1-.63.45-1.21 1.02-1.75-1.72 11.57-3.52 23.11-4.5 34.75Z" style="fill:#f2f2f2"/><path d="M469.28 1178.43h.73c.64 3.75 1.3 7.49 5.68 9-4.41-.68-6.21-3.35-6.41-9Z" style="fill:#ededed"/><path d="M230.25 307.99c.3-6.49 2.3-12.61 4.59-18.57 3.24-8.41 6.38-16.82 6.88-25.91.12-2.23.82-3.34 2.93-3.67 1.87-.3 3.74-.58 5.5-1.37 1.33-.6 2.21.11 1.76 1.35-1.4 3.81.17 7.85-1.16 11.68-.41 1.17-.72 1.85-1.74 2.72-2.27 1.93-2.12 5.14-2.34 7.81-.72 8.69.28 17.15 4.59 24.98 1.49 2.71 3.18 5.13 6.18 6.3.99.39 1.46 1.03 1.27 2.08-1.14 6.29.53 12.38 1.22 18.55.68 6.09 2.5 11.99 2.35 18.25-.2 8.56-3.45 10.82-10.69 11.39-.86.07-2.22-.57-2.24 1.17 0 .63.79 1.54-.73 1.53-1.34 0-1.39-.81-1.37-1.79.07-3.49-.6-6.87-1.23-10.29-1.46-7.95-5.21-15.01-8.34-22.32-3.3-7.7-6.87-15.32-7.41-23.89h-.02ZM393.87 257.92c-7.68 21.83-8.58 45.8-20.61 66.35-.33-24.86-6.42-48.83-10.05-73.6 10.13 1.96 19.99 5.58 30.66 7.25ZM358.39 249.69c1.93.33 2.86.9 2.96 2.67.66 11.12 3.52 21.89 5.19 32.85 1.39 9.11 3.32 18.18 3.43 27.46-4.44-20.84-8.24-41.79-11.59-62.98h.01ZM193.38 532.25c-2.4-5.2-2.81-10.76-3.3-16.32 2.26 5.21 1.8 10.99 3.3 16.32ZM194.04 246.29c-.51-1.88-.9-3.75.73-5.62-.02 2.07-.91 3.78-.73 5.62Z" class="cls-4"/></g><path d="M1463.76 362.6c15.7-15.23 32.54-22.84 50.51-22.84s31.92 5.11 41.86 15.32c9.93 10.22 14.9 23.27 14.9 39.16 0 21-7.48 38.45-22.42 52.36-14.95 13.91-33.49 20.86-55.62 20.86-16.65 0-29.61-4.97-38.88-14.9-9.27-9.93-13.91-22.65-13.91-38.17 0-19.3 7.85-36.56 23.55-51.79Zm28.38 88.96c18.16 0 32.44-5.11 42.85-15.32 10.4-10.22 15.61-24.59 15.61-43.13 0-10.97-2.94-19.96-8.8-26.96-5.87-7-13.24-10.5-22.13-10.5-14.57 0-28.09 5.77-40.58 17.31-12.49 11.54-18.73 26.39-18.73 44.55 0 10.98 2.84 19.39 8.51 25.26 5.67 5.87 13.43 8.8 23.27 8.8Zm-2.27-17.59c-1.52 0-3.36-1.13-5.53-3.41-2.18-2.27-3.26-4.06-3.26-5.39s1.28-6.14 3.83-14.47c2.55-8.32 4.11-16.08 4.68-23.27-1.52-1.13-2.98-2.7-4.4-4.68s-2.13-3.45-2.13-4.4c0-1.7 2.46-3.59 7.38-5.68 4.92-2.08 9.65-3.12 14.19-3.12 17.03 0 25.54 5.11 25.54 15.32 0 6.24-4.35 12.68-13.05 19.3-3.03 2.08-4.54 3.5-4.54 4.26 0 2.46 1.13 4.78 3.41 6.95 2.27 2.18 4.73 4.31 7.38 6.39 4.73 3.97 7.09 6.72 7.09 8.23 0 2.65-1.99 3.97-5.96 3.97s-8.56-2.27-13.76-6.81c-5.2-4.54-9.22-9.36-12.06-14.47-4.35 14.19-7.28 21.28-8.8 21.28Zm25.26-48.24c0-1.32-1.66-1.99-4.97-1.99s-6.1.47-8.37 1.42c1.13 1.33 1.7 3.12 1.7 5.39s-.38 5.01-1.14 8.23c1.32-.57 2.6-1.37 3.83-2.41s2.36-1.94 3.41-2.7c1.04-.75 1.8-1.37 2.27-1.84s.99-1.09 1.56-1.85c1.13-1.51 1.7-2.93 1.7-4.26Z" class="cls-2"/></g></svg>