<svg xmlns="http://www.w3.org/2000/svg" data-name="Ebene 2" viewBox="0 0 4.56 3.34"><g data-name="Ebene 2"><path d="M0 3.08c0-.1.03-.2.1-.32s.17-.27.29-.46c.18-.26.32-.48.41-.66.09-.18.13-.36.13-.54 0-.07 0-.16-.04-.27A.818.818 0 0 1 .96.16c.08-.11.25-.16.52-.16s.47.07.58.2c.11.14.16.29.16.46 0 .64-.43 1.43-1.28 2.38-.18.2-.4.3-.64.3-.21 0-.31-.08-.31-.25H0Zm2.33 0c0-.1.03-.2.1-.32s.17-.27.29-.46c.18-.26.32-.48.41-.66.09-.18.13-.36.13-.54 0-.07 0-.16-.04-.27S3.18.64 3.18.6c0-.18.04-.33.11-.44.08-.11.25-.16.52-.16s.47.07.58.2c.11.14.16.29.16.46 0 .64-.43 1.43-1.28 2.38-.18.2-.4.3-.64.3-.21 0-.31-.08-.31-.25h.01Z" data-name="Ebene 1-2" style="fill:#fff"/></g></svg>