<svg xmlns="http://www.w3.org/2000/svg" id="Ebene_2" data-name="Ebene 2" viewBox="0 0 512 379.92"><defs><style>.cls-2,.cls-3{fill:#fff;opacity:.3}.cls-3{isolation:isolate}.cls-4{fill:#f24cae}</style></defs><g id="Ebene_1-2" data-name="Ebene 1"><path d="m132.76 323.86-47.47 52.22a11.733 11.733 0 0 1-8.67 3.84H44.27c-5.09 0-7.76-6.04-4.33-9.8l42.05-46.26h50.77ZM379.24 323.86l47.47 52.22c2.22 2.44 5.37 3.84 8.67 3.84h32.34c5.09 0 7.76-6.04 4.33-9.8L430 323.86h-50.77Z" class="cls-4"/><path d="m99.96 359.94 32.8-36.08H81.99l-32.8 36.08h50.77ZM462.81 359.94l-32.8-36.08h-50.77l32.8 36.08h50.77Z" class="cls-4"/><path d="M497 342.93H15c-8.28 0-15-6.72-15-15V15C0 6.72 6.72 0 15 0h482c8.28 0 15 6.72 15 15v312.93c0 8.28-6.72 15-15 15Z" style="fill:#706c64"/><path d="M497 342.93H15c-8.28 0-15-6.72-15-15V15C0 6.72 6.72 0 15 0h482c8.28 0 15 6.72 15 15v312.93c0 8.28-6.72 15-15 15Z" class="cls-4"/><path d="M512 15v312.93c0 8.28-6.72 15-15 15H258.64C382.24 311.22 473.6 199.07 473.6 65.58c0-22.57-2.61-44.52-7.55-65.58H497c8.28 0 15 6.72 15 15Z" class="cls-2"/><path d="M512 15v280.77H0V15C0 6.72 6.72 0 15 0h482c8.28 0 15 6.72 15 15Z" style="fill:#05b9c8"/><path d="M512 15v280.77H357.57C427.97 243.6 473.6 159.92 473.6 65.58c0-22.57-2.61-44.52-7.55-65.58H497c8.28 0 15 6.72 15 15Z" class="cls-2"/><path d="m219.1 228.33 90.33-57.26c15.49-9.82 15.49-32.41 0-42.23l-90.32-57.26c-16.65-10.55-38.38 1.41-38.38 21.12v114.52c0 19.71 21.74 31.67 38.38 21.11Z" class="cls-4"/><path d="m309.43 171.07-90.33 57.26c-16.64 10.55-38.38-1.4-38.38-21.11v-11.31c49.3-2.09 88.82-41.91 90.45-91.32l38.26 24.25c15.48 9.82 15.48 32.42 0 42.23Z" class="cls-4"/><path d="M373.72 162.69c-4.11-2.06-9.12-.41-11.18 3.71l-20.08 40-20.08-40a8.324 8.324 0 0 0-7.45-4.59h-50.72a8.33 8.33 0 0 0 0 16.66h17.03v46.5c0 4.6 3.74 8.33 8.34 8.32 4.59 0 8.31-3.73 8.32-8.32v-46.5h11.89L335 228.71c2.06 4.11 7.07 5.77 11.18 3.71 1.6-.8 2.9-2.1 3.71-3.71l27.52-54.83c2.06-4.11.4-9.12-3.71-11.18Z" style="fill:#fff"/><path d="M125.43 325.86H30.48c-4.73 0-8.56-3.83-8.56-8.56s3.83-8.56 8.56-8.56h94.95c4.73 0 8.56 3.83 8.56 8.56s-3.83 8.56-8.56 8.56ZM174.69 325.86h-17.85c-4.73 0-8.56-3.83-8.56-8.56s3.83-8.56 8.56-8.56h17.85c4.73 0 8.56 3.83 8.56 8.56s-3.83 8.56-8.56 8.56Z" class="cls-3"/></g></svg>