<svg xmlns="http://www.w3.org/2000/svg" width="462" height="164" data-bbox="0.6 0.508 460.957 163.086" data-type="shape"><path d="M124.1 13h7c3.5.6 8 1.6 10.1 4.3 5.6 7.2-1 16.9-3.5 23.2-1.8 4.7-3.2 9.8-4.4 14.8-4.7 20.1-7.2 42.2 2.6 60.3 2.7-1.6 3.5-5 4.4-7.8 5.8-19.5 7-42.8 11.3-63.5.7-3.1 1.3-7.6 2.6-9.8 1.5-2.6 7.2-5.9 10.7-5.8 4 .1 8 4 9 7.3 1.5 5.1-.8 10.9-1.7 16.5-2.9 16.8-6.5 31.5-9.3 47.2-1.8 10.3-3.3 21.2-6.4 31.3-2.6 8.4-7.4 21.2-14.8 23.2-3.2.9-10 .1-12.2-.9-3.4-1.6-6.5-8.4-8.4-13.3-2.2-5.7-3.6-11.5-4.9-16.8-3.1-12.6-5.6-23-6.4-36.8-.4-6.5.3-13.7.6-20.6.7-14.3 1.6-25.5 5.2-38 1.7-5.5 4.5-13.4 8.5-14.8M323.5 79.1c3.4 3.9 8.3 5.8 12.5 8.4 4.2 2.6 8.1 5.5 12.2 8.7 6.9 5.4 19.9 16.4 15.9 29.3-3.4 11.1-18.7 19.8-29 24.4-8.2 3.7-20 7.5-31.9 6.4-4.4-.4-8.4-1.8-8.7-4.6-.6-6.4 10.6-7.3 16.2-8.7 5.8-1.5 11.9-5.4 18-9 4.7-2.9 13.3-7.4 14.2-12.5.6-3.3-2.1-7.2-4.6-10.1-7.3-8.5-18.3-13.5-26.4-21.7 1 15.3 2 30.2 3.5 45.8-3.8 1-10 3.5-13.9.9-.8-22.5-6.6-45.6-7-68.7-.1-7.3 0-15.2-.9-22.6-.5-4-2.3-8.7-1.4-12.5 1.6-6.6 11.3-10.3 17.7-12.5 8.6-2.9 18-4.9 25.8-5.5 11.3-.8 28.1 1.2 26.7 14.8-.6 5.4-3.9 10.4-7 15.4-8.1 12.8-19.7 26.4-31.9 34.3m-12.2-5 .3-.6c6.1-11.1 17.8-20.6 26.4-30.7 2.5-3 7.4-8.7 5.8-12.2-1.1-2.5-5.4-3.1-9-3.2-8.8-.3-17.9 1.8-23.2 4.9-2.3 12.6-.6 30.3-.3 41.8M447 155.3c-1.5.2-3.1-1-4.3-1.7-12.6-7.5-20.2-20.9-22.9-38.6-9.8.9-21 2.1-31 3.2-.8 9.8-.3 20.4 1.4 30.4-4.4 2.4-10.1 3.4-15.7 2.6-11-28.3-4.3-73.8 4.9-101.2 4.3-12.8 11.6-31.3 27.2-31.6 17.2-.4 21.7 15.5 24.6 30.7 2.3 11.9 3.5 24.5 4.3 35.7 2.3 27 10.5 45.7 11.5 70.5M409.6 52.7c-.5-2.7-.9-11.8-4.1-12.5-2.9-.6-5.7 3.6-6.7 5.2-6.7 11.5-8.4 36.5-9.9 51.9 8.7-1 16.9-1.7 26.7-1.7-2-13.9-3.6-28.8-6-42.9"/><path d="M40.9 136.5c22.9-2.1 44.2-10.8 65.5-11 3.1 0 7.1-.1 8.1 2.3 1.6 3.9-10.3 9.7-15.1 11.9-7.4 3.3-13.7 5.4-20.6 7.5-12.4 3.9-32.4 9.4-45.8 9.301C22.6 156.4 10.6 151.7 9.5 141.7c-1.1-10.4 7.9-23.5 12.5-30.1 14.9-21.8 31.9-39.5 49-58.9 3.3-3.7 7.2-7.4 9-12.5-2.5-2.5-7.2-2.3-10.7-2-15.7 1.4-33.3 10.5-49.9 9.3-7.9-.6-12.7-4-18.8-7.3 10.2-16.1 38-21.9 61.7-21.4 17.2.3 37.8 5.2 43.8 18.3 3.5 7.7-1.2 13.4-5.5 19.7-18.5 26.8-41.4 52.7-59.1 78.8l-.6.9ZM236.3 103.4c4.9-8.9 8.6-18.8 13.9-28.7 3.7-7 10.6-21.1 20-23.2 11.8-2.6 17.2 6.9 18 17.4.5 7.5-.6 14-.6 21.7 0 17.6 1.1 35.9 1.7 52.5.1 2.2.5 7.6-.3 10.4-1.4 4.8-9.6 11.3-15.7 9.9-7.3-1.7-7-19.5-7.3-27.5-.3-10-.6-20.1-1.4-30.4-4.7 6.4-9.1 14.3-13.6 22.3-4.5 7.9-8.1 16.1-15.4 20.3-12.4 7.2-16.3-7.3-18.3-17.7-4.9-25.3-4.1-50.5-4.6-78.8-13.7 23.8-20 59.4-22.6 94.8-2.7 5.6-11.3 8.5-19.1 5.5-.1-22 2.4-44.8 7.3-67.6 4.5-21 10.4-42.9 22.9-54.8 4.9-4.6 14-8.7 22.9-4.9 11.7 4.9 11 28.1 11.3 41.7.3 13.9.4 24.9.9 37.1M461.557 12.835c0 2.202-.551 4.25-1.652 6.147a12.16 12.16 0 0 1-4.512 4.495 12.148 12.148 0 0 1-6.18 1.652c-2.201 0-4.259-.55-6.17-1.652a12.142 12.142 0 0 1-4.52-4.495 12.062 12.062 0 0 1-1.652-6.164c0-2.203.55-4.254 1.652-6.156a12.142 12.142 0 0 1 4.511-4.503 12.148 12.148 0 0 1 6.18-1.651c2.213 0 4.272.55 6.18 1.652a12.142 12.142 0 0 1 4.51 4.503 12.105 12.105 0 0 1 1.653 6.172Zm-2.546.032c0-2.729-.954-5.046-2.86-6.953-1.907-1.907-4.209-2.86-6.905-2.86-2.718 0-5.035.95-6.953 2.852-1.917 1.901-2.876 4.195-2.876 6.88a9.51 9.51 0 0 0 1.297 4.85 9.507 9.507 0 0 0 3.585 3.545 9.757 9.757 0 0 0 4.915 1.306 9.77 9.77 0 0 0 4.898-1.298 9.525 9.525 0 0 0 3.593-3.528 9.337 9.337 0 0 0 1.306-4.794Zm-14.905-6.769h5.978c1.257 0 2.18.14 2.771.42.591.279 1.067.719 1.426 1.32.36.602.54 1.327.54 2.176 0 .72-.11 1.308-.33 1.764-.22.457-.637.905-1.249 1.346.494.279.833.593 1.015.942.183.35.296.964.339 1.845.075 1.676.147 2.65.217 2.925.07.274.26.534.572.781h-3.384a4.58 4.58 0 0 1-.29-.918c-.043-.247-.07-.671-.08-1.273-.032-1.192-.097-1.928-.194-2.208a1.122 1.122 0 0 0-.507-.628c-.242-.14-.728-.21-1.458-.21h-2.401v5.237h-2.965V6.099Zm2.965 2.596V11.9h2.481c.956 0 1.59-.129 1.902-.387.311-.257.467-.671.467-1.24 0-.57-.153-.975-.46-1.217-.306-.242-.937-.362-1.893-.362h-2.497Z"/></svg>